<?xml version="1.0" encoding="utf-8"?>
<!-- Generator: Adobe Illustrator 27.3.1, SVG Export Plug-In . SVG Version: 6.00 Build 0)  -->
<svg version="1.1" id="Слой_1" xmlns="http://www.w3.org/2000/svg" xmlns:xlink="http://www.w3.org/1999/xlink" x="0px" y="0px"
	 viewBox="0 0 3200 2000" style="enable-background:new 0 0 3200 2000;" xml:space="preserve">
<style type="text/css">
	.st0{display:none;fill:#FFFFFF;}
	.st1{fill:#EBF3FA;}
	.st2{fill:#C8DBF4;}
	.st3{fill:#D4E4F8;}
	.st4{fill:#9FC1F4;}
	.st5{fill:#8CB4F4;}
	.st6{fill:#9ABFE2;}
	.st7{fill:#BAD4F4;}
	.st8{fill:#DFEBFD;}
	.st9{fill:#B7D3F3;}
	.st10{fill:#C0D8FB;}
	.st11{fill:#233862;}
	.st12{fill:#FFB27D;}
	.st13{fill:#0F2549;}
	.st14{fill:#2B478B;}
	.st15{fill:#ED975D;}
	.st16{fill:#FFFFFF;}
	.st17{fill:#EBF3FF;}
	.st18{fill:#ED7D2B;}
	.st19{fill:#F99746;}
	.st20{fill:#182D4F;}
	.st21{fill:#2E3552;}
	.st22{fill:#1B3051;}
	.st23{fill:#73A2E5;}
</style>
<rect class="st0" width="3200" height="2000"/>
<g>
	<path class="st1" d="M417.73,1799.27c0,0-336.33-405.14-171.96-822.22c107.14-271.87,509.04-420.84,735.85-271.87
		c96.6,63.45,406.53,2.14,572.01-260.54c321.57-510.45,1443.86-200.45,1239.54,583.27c-98.88,379.26,300.92,393.05,97.21,772.16
		L417.73,1799.27z"/>
	<g>
		<g>
			<path class="st2" d="M666.68,1132.49c0,0-33.92-39.57-2.09-64.71c0,0,23.25-14.07,42.21-12.93c0,0-26.86,45.04-18.17,49.52
				c8.69,4.48,26.31-52.35,26.31-52.35s52.91-5.13,69.93,3.05c0,0-45.23,37.01-35.7,39.21s58.38-34.12,58.38-34.12
				s49.24,8.38,46.61,38.42s-19.59,39.31-27.05,38.52c-7.46-0.8-51.08-17.45-52.03-11.34s25.31,26.08,43.7,27.01
				c0,0-34.72,38.29-57.79,27.24c-23.07-11.05-25.04-28.56-39.42-35.13c-14.38-6.57-26.66-6.55-20.72,0.15
				c5.94,6.7,31.97,13.21,40.19,27.76c8.22,14.55,15.6,24.36-8.27,20.77s-62.67-21.06-64.38-41.06
				C666.68,1132.49,666.68,1132.49,666.68,1132.49z"/>
			<g>
				<path class="st2" d="M829.96,1099.4c0,0-133.74-5.15-163.28,33.09c0,0-6.53,19.56-26.63,37.38l-3.13,8.54
					c0,0,23.18-24.44,31.47-25.91C668.38,1152.49,655.42,1105.11,829.96,1099.4z"/>
				<path class="st2" d="M640.05,1169.87c0,0-28.71,21.23-30.7,59.16l5.21,0.47c0,0,9.17-39.22,25.74-54.56
					S640.05,1169.87,640.05,1169.87z"/>
			</g>
		</g>
		<g>
			<path class="st2" d="M548.09,1082.72c0,0,53.96-30.22,28.78-71.22c0,0-20.14-25.18-41.73-31.65c0,0,11.51,61.15,0,62.59
				c-11.51,1.44-7.91-69.07-7.91-69.07s-56.84-27.34-79.14-25.18c0,0,35.25,59.71,23.74,58.27c-11.51-1.44-51.08-61.87-51.08-61.87
				s-58.27-10.79-67.63,23.74c-9.35,34.53,5.76,51.8,14.39,53.96c8.63,2.16,64.03,1.44,62.59,8.63
				c-1.44,7.19-38.85,18.71-59.71,12.23c0,0,23.02,56.83,53.24,53.96c30.22-2.88,39.57-21.58,58.27-23.02
				c18.71-1.44,32.37,3.6,23.02,8.63c-9.35,5.04-41.01,1.65-56.12,14.5c-15.11,12.84-27.34,20.76,0.72,26.51
				c28.06,5.76,78.42,2.16,88.49-19.42C548.09,1082.72,548.09,1082.72,548.09,1082.72z"/>
			<g>
				<path class="st2" d="M379.74,979.13c0,0,151.08,48.92,168.35,103.6c0,0-0.72,24.46,14.39,52.52v10.79
					c0,0-15.83-36.69-24.46-41.73C538.01,1104.31,571.83,1056.83,379.74,979.13z"/>
				<path class="st2" d="M562.47,1135.24c0,0,23.3,35.38,10.02,78.45l-5.99-1.61c0,0,5.82-47.44-6.37-71.3
					C547.94,1116.93,562.47,1135.24,562.47,1135.24z"/>
			</g>
		</g>
		<g>
			<path class="st3" d="M633.93,1041.05c0,0-71.13-39.83-37.93-93.89c0,0,26.55-33.19,55-41.73c0,0-15.17,80.61,0,82.51
				c15.17,1.9,10.43-91.04,10.43-91.04s74.92-36.04,104.32-33.19c0,0-46.47,78.71-31.3,76.82c15.17-1.9,67.33-81.56,67.33-81.56
				s76.82-14.23,89.14,31.3c12.33,45.52-7.59,68.28-18.97,71.13c-11.38,2.84-84.4,1.9-82.51,11.38c1.9,9.48,51.21,24.66,78.71,16.12
				c0,0-30.35,74.92-70.18,71.13c-39.83-3.79-52.16-28.45-76.82-30.35c-24.66-1.9-42.68,4.74-30.35,11.38
				c12.33,6.64,54.06,2.18,73.97,19.11c19.91,16.93,36.04,27.36-0.95,34.95c-36.99,7.59-103.37,2.84-116.65-25.61
				C633.93,1041.05,633.93,1041.05,633.93,1041.05z"/>
			<g>
				<path class="st3" d="M855.84,904.49c0,0-199.15,64.49-221.91,136.56c0,0,0.95,32.24-18.97,69.23v14.23c0,0,20.86-48.37,32.24-55
					C647.21,1069.5,602.63,1006.91,855.84,904.49z"/>
				<path class="st3" d="M614.96,1110.28c0,0-30.71,46.64-13.2,103.41l7.9-2.12c0,0-7.67-62.53,8.4-93.98
					C634.13,1086.14,614.96,1110.28,614.96,1110.28z"/>
			</g>
		</g>
		<path class="st3" d="M631.53,1336.81c76.95,0,139.32-62.38,139.32-139.33H492.21C492.21,1274.43,554.59,1336.81,631.53,1336.81z"
			/>
		<path class="st3" d="M772.78,1343.9h-282.5v0c0-9.49,7.7-17.19,17.19-17.19h248.12C765.08,1326.71,772.78,1334.4,772.78,1343.9
			L772.78,1343.9z"/>
		<rect x="487.63" y="1197.48" class="st4" width="286.4" height="4.27"/>
	</g>
	<g>
		<g>
			<path class="st5" d="M1350.45,1796.37l0.69-0.01c5.63-0.1,9.98-4.71,9.45-10l-37.56-375.07l-32.77,2.92l53.93,377.09
				C1344.61,1794.25,1347.3,1796.43,1350.45,1796.37z"/>
		</g>
		<g>
			<path class="st5" d="M988.83,1796.37l-0.69-0.01c-5.63-0.1-9.98-4.71-9.45-10l37.56-375.07l32.77,2.92l-53.93,377.09
				C994.67,1794.25,991.97,1796.43,988.83,1796.37z"/>
		</g>
		<g>
			<path class="st5" d="M1615.4,1796.37l0.69-0.01c5.63-0.1,9.98-4.71,9.45-10l-37.56-375.07l-32.77,2.92l53.93,377.09
				C1609.56,1794.25,1612.25,1796.43,1615.4,1796.37z"/>
		</g>
		<path class="st5" d="M1000.01,1356.74l-66.66-329.21c-8.56-44.57,28.38-85.33,76.33-84.23l128.57,2.94
			c44.35,1.01,82.91,30.7,95.24,73.31l97.53,337.19H1000.01z"/>
		<path class="st5" d="M1040.34,1356.74l-66.66-329.21c-8.56-44.57,28.38-85.33,76.33-84.23l128.57,2.94
			c44.35,1.01,82.91,30.7,95.24,73.31l97.53,337.19H1040.34z"/>
		<path class="st5" d="M1018.59,1416.78h508.66c10.22,0,18.58-8.36,18.58-18.58v-22.88c0-10.22-8.36-18.58-18.58-18.58h-527.24
			v41.46C1000.01,1408.42,1008.37,1416.78,1018.59,1416.78z"/>
		<path class="st5" d="M1257.29,1416.78h324.26c8.23,0,14.97-6.74,14.97-14.97v-30.11c0-8.23-6.74-14.97-14.97-14.97h-324.26
			c-8.23,0-14.97,6.74-14.97,14.97v30.11C1242.32,1410.04,1249.06,1416.78,1257.29,1416.78z"/>
	</g>
	<g>
		<path class="st6" d="M848.24,1352.45v11.23c0,3.93-1.27,7.14-2.83,7.14H435.56c-1.55,0-2.83-3.21-2.83-7.14v-11.23
			c0-3.93,1.27-7.14,2.83-7.14h409.86C846.96,1345.31,848.24,1348.52,848.24,1352.45z"/>
		<path class="st7" d="M848.24,1352.45v11.23c0,3.93-1.17,7.14-2.59,7.14H520.26c-1.43,0-2.59-3.21-2.59-7.14v-11.23
			c0-3.93,1.17-7.14,2.59-7.14h325.38C847.07,1345.31,848.24,1348.52,848.24,1352.45z"/>
		<rect x="453.53" y="1370.83" class="st2" width="290.97" height="424.11"/>
		<rect x="535.07" y="1370.83" class="st8" width="290.97" height="424.11"/>
		<g>
			<g>
				<path class="st9" d="M810.41,1771.52h-259.7v-388.71h259.7V1771.52z M553.52,1768.71h254.09v-383.1H553.52V1768.71z"/>
			</g>
			<g>
				<rect x="552.11" y="1511.4" class="st9" width="256.9" height="2.8"/>
			</g>
			<g>
				<rect x="552.11" y="1642.49" class="st9" width="256.9" height="2.8"/>
			</g>
			<path class="st9" d="M706.89,1407.88h-47.67c-2.31,0-4.21-1.89-4.21-4.21l0,0c0-2.31,1.89-4.21,4.21-4.21h47.67
				c2.31,0,4.21,1.89,4.21,4.21l0,0C711.09,1405.98,709.2,1407.88,706.89,1407.88z"/>
			<path class="st9" d="M706.89,1536.07h-47.67c-2.31,0-4.21-1.89-4.21-4.21l0,0c0-2.31,1.89-4.21,4.21-4.21h47.67
				c2.31,0,4.21,1.89,4.21,4.21l0,0C711.09,1534.18,709.2,1536.07,706.89,1536.07z"/>
			<path class="st9" d="M706.89,1669.71h-47.67c-2.31,0-4.21-1.89-4.21-4.21l0,0c0-2.31,1.89-4.21,4.21-4.21h47.67
				c2.31,0,4.21,1.89,4.21,4.21l0,0C711.09,1667.82,709.2,1669.71,706.89,1669.71z"/>
		</g>
	</g>
	<g>
		<path class="st10" d="M1990.51,608.28h-184.43c-8.47,0-15.39-6.93-15.39-15.39V414.87c0-8.47,6.93-15.39,15.39-15.39h184.43
			c8.47,0,15.39,6.93,15.39,15.39v178.01C2005.91,601.35,1998.98,608.28,1990.51,608.28z"/>
		<path class="st8" d="M1982.52,599.23h-168.45c-7.73,0-14.06-6.33-14.06-14.06V422.59c0-7.73,6.33-14.06,14.06-14.06h168.45
			c7.73,0,14.06,6.33,14.06,14.06v162.59C1996.58,592.91,1990.25,599.23,1982.52,599.23z"/>
		<g>
			<g>
				<circle class="st9" cx="1898.29" cy="427.58" r="4.46"/>
				<path class="st9" d="M1929.81,433.88c1.2-2.15,3.91-2.93,6.06-1.73c2.15,1.2,2.93,3.91,1.73,6.06c-1.2,2.15-3.91,2.93-6.06,1.73
					C1929.39,438.75,1928.61,436.04,1929.81,433.88z"/>
				<path class="st9" d="M1960.63,458.37c2.07-1.33,4.83-0.74,6.16,1.33c1.33,2.07,0.74,4.83-1.33,6.16
					c-2.07,1.33-4.83,0.74-6.16-1.33C1957.97,462.46,1958.56,459.7,1960.63,458.37z"/>
				<path class="st9" d="M1975.9,496.27c2.46,0,4.46,2,4.46,4.46c0,2.46-2,4.46-4.46,4.46c-2.46,0-4.46-2-4.46-4.46
					C1971.44,498.26,1973.43,496.27,1975.9,496.27z"/>
				<path class="st9" d="M1968.1,540.25c1.74,1.74,1.74,4.56,0,6.3c-1.74,1.74-4.56,1.74-6.3,0c-1.74-1.74-1.74-4.56,0-6.3
					C1963.54,538.51,1966.36,538.51,1968.1,540.25z"/>
				<path class="st9" d="M1940.11,568.32c1.74,1.74,1.74,4.56,0,6.3c-1.74,1.74-4.56,1.74-6.3,0c-1.74-1.74-1.74-4.56,0-6.3
					C1935.54,566.58,1938.37,566.58,1940.11,568.32z"/>
				<path class="st9" d="M1893.84,582.78c0-2.46,2-4.46,4.46-4.46c2.46,0,4.46,2,4.46,4.46c0,2.46-2,4.46-4.46,4.46
					C1895.83,587.24,1893.84,585.25,1893.84,582.78z"/>
			</g>
			<g>
				<path class="st9" d="M1866.64,433.88c-1.2-2.15-3.91-2.93-6.06-1.73c-2.15,1.2-2.93,3.91-1.73,6.06
					c1.2,2.15,3.91,2.93,6.06,1.73C1867.06,438.75,1867.83,436.04,1866.64,433.88z"/>
				<path class="st9" d="M1835.82,458.37c-2.07-1.33-4.83-0.74-6.16,1.33c-1.33,2.07-0.74,4.83,1.33,6.16
					c2.07,1.33,4.83,0.74,6.16-1.33C1838.48,462.46,1837.89,459.7,1835.82,458.37z"/>
				<path class="st9" d="M1820.55,496.27c-2.46,0-4.46,2-4.46,4.46c0,2.46,2,4.46,4.46,4.46c2.46,0,4.46-2,4.46-4.46
					C1825.01,498.26,1823.01,496.27,1820.55,496.27z"/>
				<path class="st9" d="M1828.35,540.25c-1.74,1.74-1.74,4.56,0,6.3c1.74,1.74,4.56,1.74,6.3,0c1.74-1.74,1.74-4.56,0-6.3
					C1832.91,538.51,1830.09,538.51,1828.35,540.25z"/>
				<path class="st9" d="M1856.34,568.32c-1.74,1.74-1.74,4.56,0,6.3c1.74,1.74,4.56,1.74,6.3,0c1.74-1.74,1.74-4.56,0-6.3
					C1860.91,566.58,1858.08,566.58,1856.34,568.32z"/>
			</g>
		</g>
		<g>
			<path class="st9" d="M1897.09,500.72c0-2.46,2-4.46,4.46-4.46c2.46,0,4.46,2,4.46,4.46c0,2.46-2,4.46-4.46,4.46
				C1899.09,505.18,1897.09,503.19,1897.09,500.72z"/>
			<g>
				<rect x="1900.94" y="445.03" class="st9" width="1.22" height="55.7"/>
			</g>
			<g>
				
					<rect x="1896.98" y="487.23" transform="matrix(0.7866 -0.6175 0.6175 0.7866 106.8564 1287.2916)" class="st9" width="37.54" height="3.65"/>
			</g>
		</g>
	</g>
	<g>
		<g>
			<path class="st11" d="M1443.13,1287.84c-27.52,47.89-62.13,66.38-62.13,66.38h-143.99
				C1237.01,1354.22,1464.12,1251.31,1443.13,1287.84z"/>
			<g>
				<path class="st12" d="M1620.72,1763.66c-1.56,15.11,19.46,19.01,43.83,20.49c24.37,1.48,16.95,6.39,50.3,12.8
					c33.35,6.41,46.84-2.59,49.31-7.08c2.2-3.98-13.27-10.41-29.75-17.67c-2.08-0.91-4.15-1.84-6.23-2.77
					c-18.55-8.39-28.82-25.22-43.18-40.87c-13.6-14.82-26.17-61.95-26.17-61.95l-45.3-10.18c0,0,12.3,42.43,16.53,60.53
					c2.49,10.65-1.48,22.48-4.99,31.48C1623.18,1753.33,1621.27,1758.34,1620.72,1763.66z"/>
				<path class="st13" d="M1664.55,1784.15c24.37,1.48,16.95,6.39,50.3,12.8c33.35,6.41,46.84-2.59,49.31-7.08
					c2.2-3.98-13.27-10.41-29.75-17.67l-0.26,0.28c0,0-23.58,7.73-50.62,0.06c-22.04-6.24-43.27-19.68-58.46-24.11
					c-1.89,4.9-3.8,9.91-4.34,15.23C1619.17,1778.77,1640.18,1782.67,1664.55,1784.15z"/>
				<path class="st11" d="M1552.08,1238.78c-24.38-17.12-185.64-47.63-267.93-56.46l-90.96-78.96c0,0-77.42,114.67-78.04,202.4
					c-0.29,40.91,18.55,44.97,18.56,44.98c0,0,291.58,2.16,304.37,3.48c20.92,2.16,48.52,54.28,55.41,101.75
					c6.9,47.47,128.49,240.54,128.49,240.54s25.36,8.12,37.08,7.44c12.61-0.74,18.45-4.96,18.45-4.96
					S1607.06,1277.39,1552.08,1238.78z"/>
				<path class="st12" d="M1545.3,1763.66c-1.56,15.11,19.46,19.01,43.83,20.49c24.37,1.48,16.95,6.39,50.3,12.8
					c33.35,6.41,46.84-2.59,49.31-7.08c2.2-3.98-13.27-10.41-29.75-17.67c-2.07-0.91-4.15-1.84-6.23-2.77
					c-18.55-8.39-28.82-25.22-43.18-40.87c-13.6-14.82-26.17-61.95-26.17-61.95l-45.31-10.18c0,0,12.3,42.43,16.53,60.53
					c2.49,10.65-1.48,22.48-4.99,31.48C1547.75,1753.33,1545.85,1758.34,1545.3,1763.66z"/>
				<path class="st11" d="M1589.13,1784.15c24.37,1.48,16.95,6.39,50.3,12.8c33.35,6.41,46.84-2.59,49.31-7.08
					c2.2-3.98-13.27-10.41-29.75-17.67l-0.26,0.28c0,0-23.58,7.73-50.62,0.06c-22.04-6.24-43.27-19.68-58.46-24.11
					c-1.89,4.9-3.8,9.91-4.34,15.23C1543.75,1778.77,1564.76,1782.67,1589.13,1784.15z"/>
				<path class="st14" d="M1476,1238.78c-21.18-14.87-84.88-26.4-155.19-34.96c-19.44-2.37-35.4-16.5-40.15-35.5l0,0l-163.55-64.96
					c0,0-77.42,114.67-78.04,202.4c-0.29,40.91,18.55,44.97,18.56,44.98c0,0,291.58,2.16,304.37,3.48
					c20.92,2.16,48.52,54.28,55.41,101.75c6.9,47.47,128.49,240.54,128.49,240.54s25.36,8.12,37.08,7.44
					c12.61-0.74,18.45-4.96,18.45-4.96S1530.97,1277.39,1476,1238.78z"/>
				<path class="st11" d="M1257.15,626.92c-22.47-11.8-56.67-13.4-62.23-14.14c-66.48-8.93-106.49,87.67-108.85,116.94
					c-4.34,53.95-32.88,62.18-73.05,95.97c-80.55,67.75-56.93,146.48-12.88,175.73c26.43,17.55,73.01,0,73.01,0
					c0.66,0.46,127.4-70.85,189.87-105.25C1356.68,882.85,1314.42,656.99,1257.15,626.92z"/>
				<path class="st12" d="M1243.28,862.93c0.29,0.15-29.54,13.72-51.08,6.6c-20.26-6.67-38.1-37.17-37.82-37.22
					c8.79-1.27,17.73-9.95,20.23-61.35l3.89,0.98l65.47,16.55c0,0-2.59,20.74-3.66,40.35
					C1239.42,845.31,1239.61,860.98,1243.28,862.93z"/>
				<path class="st15" d="M1243.98,788.49c0,0,0,4.27-2.45,23.56c-37.03-9.34-53.35-21.62-64.87-35.67L1243.98,788.49z"/>
				<path class="st12" d="M1257.95,791.1c0,0-86.57,14.1-94.52-39.95c-7.95-54.05-24.47-88.63,30.46-99.92
					c54.94-11.28,68.74,7.76,75.78,25.15C1276.71,693.78,1280.26,786.04,1257.95,791.1z"/>
				<path class="st11" d="M1258.03,648.97c0,0-39.31,62.06-74.41,76.76c-35.1,14.7-52.34,7.24-52.34,7.24s15.97-24.21,20.13-56.72
					c1.23-9.58,7.47-17.8,16.44-21.39C1193.03,644.77,1241.75,628.86,1258.03,648.97z"/>
				<path class="st11" d="M1223.5,654.97c0,0,23.04,11.81,32.53,22.89c9.16,10.68,19.74,39.68,18.98,52.7
					c0,0,11.37-62.4-12.31-83.85C1237.59,623.96,1223.5,654.97,1223.5,654.97z"/>
				<path class="st16" d="M1312.54,994.97c-2.63,175.98-0.72,139.2-19.97,155.9c-4.64,4.02-17.68,6.42-34.84,7.55
					c-53.96,3.58-148.81-5.31-152.42-15.28c-12.45-34.5-3.66-45.22-14.04-98.05c-1.08-5.62-2.42-11.7-3.99-18.32
					c-8.66-36.28-17.08-48.63,13.63-106.91c27.86-52.8,60.61-95.69,63.22-94.15c73.49,43.63,76.01,7.06,76.01,7.06
					S1313.83,909.14,1312.54,994.97z"/>
				<path class="st16" d="M1240.13,832.77c0,0,75.22,12.75,84.1,45.31c8.88,32.56,61.14,223.97,61.14,223.97s-38.44,6.91-56.2-10.85
					s-61.8-164.77-61.8-164.77L1240.13,832.77z"/>
				<path class="st17" d="M1257.73,1158.42c-53.96,3.58-148.81-5.31-152.42-15.28c-12.45-34.5-3.66-45.22-14.04-98.05l26.03-73.29
					c0,0-4.3,81.61,19.76,103.08c24.04,21.46,98.54,41.44,110.24,59.37C1252.94,1142.86,1256.65,1151.49,1257.73,1158.42z"/>
				<path class="st12" d="M1195.91,1124.1c0,0,53.24-11.85,61.82-7.13c8.59,4.72,29.58,21.93,32.21,27.92
					c2.63,5.99-19.12-4.54-26.2-6.44c-4.58-1.23-16.64,2.96-22.61,4.95c-25.12,8.38-40.52,4.07-40.52,4.07L1195.91,1124.1z"/>
				<path class="st16" d="M1164.12,825.71c0,0-75.34,4.4-100.09,38.92c-34.83,48.58-103.93,255.63-64.33,283.24
					c44.6,31.1,202.97,8.14,202.97,8.14s5.27-24.63-2.06-36.55c-7.33-11.92-126.5-31.17-132-36.67
					c-5.5-5.5,68.75-107.25,68.75-123.75C1137.36,942.54,1164.12,825.71,1164.12,825.71z"/>
				<path class="st12" d="M1260.31,1131.79c0,0,11.15,14.39,14.81,16.11s6.02,1.29,6.02,1.29l-7.52-13.53L1260.31,1131.79z"/>
				<path class="st12" d="M1257.73,1116.97l32.43,15.75c0,0-1.38,2.26-5.37,2.08c-3.99-0.18-14.07-3.87-14.07-3.87L1257.73,1116.97z
					"/>
			</g>
		</g>
	</g>
	<g>
		<path class="st18" d="M1377.2,1154.3h-150.62l0,0c0-6.63,5.38-12.01,12.01-12.01h138.61V1154.3z"/>
		<polygon class="st18" points="1376.76,990.27 1609.63,990.27 1553.77,1154.3 1319.4,1154.3 		"/>
		<polygon class="st19" points="1613.06,990.26 1557.2,1154.3 1322.83,1154.3 1380.2,990.26 		"/>
		<path class="st16" d="M1487.51,1070.77c-1.45,6.27-7.7,11.35-13.97,11.35s-10.18-5.08-8.73-11.35c1.45-6.27,7.7-11.35,13.97-11.35
			S1488.96,1064.5,1487.51,1070.77z"/>
	</g>
	<g>
		<path class="st20" d="M1174.52,1191.21h1020.49c4.29,0,7.77-3.48,7.77-7.77v-21.36c0-4.29-3.48-7.77-7.77-7.77H1174.52
			c-4.29,0-7.77,3.48-7.77,7.77v21.36C1166.75,1187.73,1170.23,1191.21,1174.52,1191.21z"/>
		<g>
			<path class="st20" d="M2219.99,1799.12l0.44-0.05c5.23-0.65,8.93-5.31,8.27-10.42l-90.94-615.56l-33.29,0.95l107,618.89
				C2212.15,1796.89,2215.91,1799.62,2219.99,1799.12z"/>
		</g>
		<g>
			<path class="st20" d="M1140.35,1799.12l-0.44-0.05c-5.23-0.65-8.93-5.31-8.27-10.42l90.94-615.56l33.29,0.95l-107,618.89
				C1148.19,1796.89,1144.43,1799.62,1140.35,1799.12z"/>
		</g>
		<g>
			<path class="st20" d="M1350.87,1799.12l-0.44-0.05c-5.23-0.65-8.93-5.31-8.27-10.42l90.94-615.56l33.29,0.95l-107,618.89
				C1358.71,1796.89,1354.95,1799.62,1350.87,1799.12z"/>
		</g>
	</g>
	<path class="st21" d="M3030.66,1804.19H204.39c-2.12,0-3.86-1.74-3.86-3.86v-3.16c0-2.12,1.74-3.86,3.86-3.86h2826.27
		c2.12,0,3.86,1.74,3.86,3.86v3.16C3034.52,1802.45,3032.78,1804.19,3030.66,1804.19z"/>
	<g>
		<path class="st11" d="M1887.37,1798.62h180.46c8.68-10.59,5.48-49.67,4.17-62.44c-0.27-2.57-0.46-4.07-0.46-4.07
			s-61.62-49.29-70.09-11.55c-0.26,1.18-0.57,2.34-0.91,3.48c-10.66,35.3-58.5,51.34-86.12,55.81
			C1896.46,1782.78,1889.83,1792.11,1887.37,1798.62z"/>
		<path class="st11" d="M2379.77,1212.26c-6.51,0-309.11,56.81-359.16,118.77c-25,30.95-28.72,388.41-28.72,388.41
			s30.93,38.35,97.74,16.08c0,0,48.98-244.57,45.37-318.74c-1-20.51,206.75-2.97,244.77-12.81s130.93-92.56,110.46-132.85
			C2469.75,1230.82,2379.77,1212.26,2379.77,1212.26z"/>
		<path class="st12" d="M2021.9,1124.73c0,0-61.04,0.82-75.47,7.01s-43.72,20.39-35.88,22.57c7.84,2.18,45.23-0.9,53.31,0.34
			c8.08,1.24,18.04-0.34,22.99-0.34c4.95,0,28.03,0,28.03,0L2021.9,1124.73z"/>
		<path class="st12" d="M1950.54,978.25c0,0-20.81-14.87-41.02-17.76c-11.53-1.65-22.73-3.7-29.5-6.09
			c-18.65-6.57-55.96-40.12-53.13-44.05c9.05-12.61,52.61,14.08,60.21,11.21c7.6-2.87-14.61-18.66-6.89-24.22
			c4.04-2.9,13.48,11.64,21.19,13.1c10.44,1.98,18.6,16.72,21.75,17.49c6.12,1.5,32.92,21.43,32.92,21.43L1950.54,978.25z"/>
		<path class="st18" d="M2349.63,804.59c0,0-46.46,14.4-92.24,140.46c-45.78,126.06-63.16,132.87-79.8,137.81
			s-162.7,34.03-162.7,34.03v37.41h225.05c0,0,84.39-80.28,109.69-134.32C2374.93,965.94,2349.63,804.59,2349.63,804.59z"/>
		<path class="st22" d="M1807.62,1798.62h180.45c8.68-10.59,5.48-49.67,4.17-62.44c-0.27-2.57-0.46-4.07-0.46-4.07
			s-61.62-49.29-70.09-11.55c-0.26,1.18-0.57,2.34-0.91,3.48c-10.66,35.3-58.5,51.34-86.12,55.81
			C1816.71,1782.78,1810.07,1792.11,1807.62,1798.62z"/>
		<path class="st14" d="M2290.6,1212.26c-6.52,0-309.11,56.81-359.16,118.77c-25,30.95-28.72,388.41-28.72,388.41
			s30.94,38.35,97.74,16.08c0,0,48.98-244.57,45.37-318.74c-1-20.51,206.75-2.97,244.77-12.81
			c38.02-9.84,130.93-92.56,110.46-132.85C2380.58,1230.82,2290.6,1212.26,2290.6,1212.26z"/>
		<path class="st12" d="M2309.54,844.54c21.77-1.8,44.59-7.6,64.32-14c24.66-8,44.53-19.7,31.73-42.23
			c-11.8-20.77-30.91-67.17-29.62-105.61l-45.88,36.98l-31.17,25.11c0,0,0.13,14.81,3.54,40.76c0.62,4.73,1.35,9.84,2.21,15.29
			c0.69,4.41-1.33,8.81-5.12,11.16c-0.24,0.15-0.47,0.29-0.7,0.44C2283.34,822.17,2291.3,846.04,2309.54,844.54z"/>
		<path class="st15" d="M2298.91,738.67c0,0-1.59,5.38,1.15,25.23c27.79-4.53,53.76-26.7,53.76-26.7
			c-14.15-3.88-19.29-19.17-29.83-17.74L2298.91,738.67z"/>
		<path class="st12" d="M2273.21,743.2c0,0,106.88,17.76,116.92-48.98c10.03-66.73,30.59-109.38-37.23-123.54
			c-67.82-14.16-84.94,9.31-93.7,30.77C2250.42,622.91,2245.66,736.86,2273.21,743.2z"/>
		<path class="st14" d="M2243.47,571.92c-4.59,16.07,7.69,35.64,28.31,42.09c30.61,9.56,23.84,47.11,37.62,46.6
			c13.77-0.51,19.33-21.58,31.63-4.75c10.49,14.36-8.73,31.38-7.41,39.26c2.27,13.52,23.45,41.18,42.53,39.79
			c19.08-1.39,54.79-92.08,47.65-120.14c-7.14-28.06-35.71-57.65-62.75-61.73c-27.04-4.08-64.59,7.59-73.26,7.59
			S2245.95,563.24,2243.47,571.92z"/>
		<path class="st19" d="M2491.65,897.21c-15.45-62.18-58.15-127.42-87.02-127.37c-49.2,0.09-119.92,13.08-148.47,83.52
			c-21.03,51.88-49.08,350.31-17.38,371.53c72.47,48.52,240.46,147.56,270.3,46.56C2536.43,1178.9,2518.46,1005.12,2491.65,897.21z"
			/>
		<path class="st19" d="M2372.16,835.33c-14.03-36.51-59.3-49.13-90.17-25.11c-16.7,12.99-37.14,31.49-61.84,57.79
			c-91.81,97.77-110.47,97.16-127.71,95.14c-17.24-2.02-162.92-32.94-162.92-32.94s-7.46,5.5-11.85,14.4
			c-5.86,11.88-2.91,19.98-2.91,19.98c-5.71-3.69,51.64,35.84,80.18,51.6c37.7,20.81,94.5,40.33,117.12,47.74
			c6.41,2.1,13.33,2,19.68-0.29c33.58-12.1,146.34-56.21,238.14-132.73C2394.06,910.73,2385.17,869.18,2372.16,835.33z"/>
		<path class="st16" d="M2409.58,770.44l-11.14-25.09c0,0-99.7,8.13-116.46,64.87C2281.99,810.22,2359.27,771.65,2409.58,770.44z"/>
	</g>
	<g>
		<g>
			<path class="st5" d="M2651.64,1796.37l0.69-0.01c5.63-0.1,9.98-4.71,9.45-10l-37.56-375.07l-32.77,2.92l53.93,377.09
				C2645.8,1794.25,2648.49,1796.43,2651.64,1796.37z"/>
		</g>
		<g>
			<path class="st5" d="M2458.33,1796.37l0.69-0.01c5.63-0.1,9.98-4.71,9.45-10l-37.55-375.07l-32.77,2.92l53.93,377.09
				C2452.49,1794.25,2455.18,1796.43,2458.33,1796.37z"/>
		</g>
		<g>
			<path class="st23" d="M2095.43,1796.37l-0.69-0.01c-5.63-0.1-9.98-4.71-9.45-10l37.56-375.07l32.77,2.92l-53.93,377.09
				C2101.28,1794.25,2098.58,1796.43,2095.43,1796.37z"/>
		</g>
		<path class="st5" d="M2641.03,1358.16l35.64-313.26c4.67-45.14-10.43-89.35-75.58-92.77l-114.61-6.98
			c-67.93-2.8-98.59,53.73-107.19,97.25l-68.04,344.35L2641.03,1358.16z"/>
		<path class="st23" d="M2621.87,1416.78h-508.66c-10.22,0-18.58-8.36-18.58-18.58v-22.88c0-10.22,8.36-18.58,18.58-18.58h527.24
			v41.46C2640.45,1408.42,2632.09,1416.78,2621.87,1416.78z"/>
		<path class="st5" d="M2626.02,1416.78h-300.34c-7.94,0-14.43-6.49-14.43-14.43v-31.18c0-7.94,6.49-14.43,14.43-14.43h314.77v45.61
			C2640.45,1410.28,2633.96,1416.78,2626.02,1416.78z"/>
	</g>
</g>
</svg>
