<?xml version="1.0" encoding="utf-8"?>
<!-- Generator: Adobe Illustrator 27.3.1, SVG Export Plug-In . SVG Version: 6.00 Build 0)  -->
<svg version="1.1" id="Слой_1" xmlns="http://www.w3.org/2000/svg" xmlns:xlink="http://www.w3.org/1999/xlink" x="0px" y="0px"
	 viewBox="0 0 2825.56 2000" style="enable-background:new 0 0 2825.56 2000;" xml:space="preserve">
<style type="text/css">
	.st0{display:none;fill:#FAFAFA;}
	.st1{opacity:0.95;fill:url(#SVGID_1_);}
	.st2{fill:#96BFE6;}
	.st3{opacity:0.95;fill:url(#SVGID_00000149342923738966562220000017463929657883274426_);}
	.st4{fill:#4598E6;}
	.st5{fill:url(#SVGID_00000065055065892253713600000015095722097584729992_);}
	.st6{opacity:0.95;fill:url(#SVGID_00000020386261179059980130000018194692748701933498_);}
	.st7{fill:url(#SVGID_00000079481081090866895580000016009684049130767260_);}
	.st8{fill:url(#SVGID_00000052092513753665516860000001874812198605299596_);}
	.st9{fill:url(#SVGID_00000031889157184439242280000015538596168050870461_);}
	.st10{fill:url(#SVGID_00000001624722777656180480000013964993334441814693_);}
	.st11{fill:url(#SVGID_00000109028058707903295870000013703159189206361231_);}
	.st12{fill:#FFFFFF;}
	.st13{fill:url(#SVGID_00000168800430397604630590000001977954498389463170_);}
	.st14{fill:url(#SVGID_00000092437313921522786530000000624047413123237254_);}
	.st15{opacity:0.95;fill:url(#SVGID_00000179618039283218751350000015863309019931022253_);}
	.st16{fill:#E65353;}
	.st17{fill:#EEA987;}
	.st18{fill:#D98B52;}
	.st19{fill:#B84343;}
	.st20{fill:#C78D71;}
	.st21{fill:#EEA886;}
	.st22{fill:#16202E;}
	.st23{fill:#FAA146;}
	.st24{fill:#8E4F3A;}
	.st25{fill:#633029;}
	.st26{fill:#323657;}
	.st27{fill:#FCCCA2;}
	.st28{fill:#E55353;}
	.st29{fill:#A77860;}
	.st30{fill:#EBEEFF;}
	.st31{fill:#353A3D;}
	.st32{fill:#81807E;}
	.st33{fill:#2D3133;}
	.st34{fill:#DECBC4;}
	.st35{fill:#495055;}
	.st36{fill:#252E3B;}
	.st37{fill:#3C4145;}
	.st38{fill:#B3A5A0;}
	.st39{fill:#51565C;}
	.st40{fill:#F5E2D9;}
	.st41{fill:#AD9F99;}
	.st42{fill:#69737A;}
	.st43{fill:#181929;}
	.st44{fill:#22243B;}
	.st45{fill:#292C47;}
	.st46{fill:#CFBEB6;}
	.st47{fill:#3A3F47;}
	.st48{fill:#23263D;}
	.st49{fill:#D44040;}
	.st50{fill:#EDDAD3;}
	.st51{fill:#8F5C28;}
	.st52{opacity:0.95;}
	.st53{fill:url(#SVGID_00000026126682369639702730000017818245237897875126_);}
	.st54{fill:url(#SVGID_00000038372940343000582440000004540612030616930944_);}
	.st55{fill:url(#SVGID_00000050629671136139515690000003739346020254566024_);}
	.st56{fill:url(#SVGID_00000183955037964956832800000017571873525271572612_);}
	.st57{fill:url(#SVGID_00000012434652849156988770000006051546877113979521_);}
	.st58{fill:url(#SVGID_00000033327754905170290190000014585629207981154220_);}
	.st59{fill:url(#SVGID_00000134939840619805928520000013611657771479914420_);}
	.st60{fill:url(#SVGID_00000123438561130794258440000004502116188046417586_);}
	.st61{fill:url(#SVGID_00000114771817308955840300000014351713878227135648_);}
	.st62{fill:url(#SVGID_00000112595491538162370880000007380290232484325554_);}
	.st63{fill:url(#SVGID_00000132075787884328466280000013893879876143353749_);}
</style>
<g>
	<rect class="st0" width="2825.56" height="2000"/>
	<linearGradient id="SVGID_1_" gradientUnits="userSpaceOnUse" x1="1561.3813" y1="1443.0178" x2="1520.1924" y2="696.4565">
		<stop  offset="0" style="stop-color:#D1D7E0"/>
		<stop  offset="1" style="stop-color:#EBEBFF"/>
	</linearGradient>
	<path class="st1" d="M1728.77,1023.93h-410.12c-32.4,0-58.67-26.27-58.67-58.67V555.13c0-32.4,26.27-58.67,58.67-58.67h410.12
		c32.4,0,58.67,26.27,58.67,58.67v410.13C1787.44,997.66,1761.17,1023.93,1728.77,1023.93z"/>
	<rect x="1401.61" y="903.84" class="st2" width="244.21" height="12.06"/>
	<rect x="1436.19" y="941.86" class="st2" width="175.03" height="12.06"/>
	
		<linearGradient id="SVGID_00000050665167302429939240000000037641371431480731_" gradientUnits="userSpaceOnUse" x1="2235.1606" y1="1651.1506" x2="2235.1606" y2="882.5548">
		<stop  offset="0" style="stop-color:#D1D7E0"/>
		<stop  offset="1" style="stop-color:#EBEBFF"/>
	</linearGradient>
	<path style="opacity:0.95;fill:url(#SVGID_00000050665167302429939240000000037641371431480731_);" d="M2526.99,1526.74h-583.66
		c-38.17,0-69.12-30.94-69.12-69.12V748.52c0-38.17,30.94-69.12,69.12-69.12h583.66c38.17,0,69.12,30.94,69.12,69.12v709.11
		C2596.11,1495.8,2565.16,1526.74,2526.99,1526.74z"/>
	<g>
		<rect x="2201.53" y="1179.28" class="st4" width="57.25" height="10.6"/>
	</g>
	<g>
		<rect x="1984.16" y="1276.45" class="st2" width="333.16" height="20.53"/>
		<rect x="1984.16" y="1375.01" class="st2" width="269.41" height="20.53"/>
		<rect x="1984.16" y="1325.73" class="st2" width="157.94" height="20.53"/>
	</g>
	<g>
		<path class="st4" d="M2404.48,763.9v10.37h61.05v57.3h10.37V763.9H2404.48z M1989.89,831.57h10.37v-57.3h61.05V763.9h-71.42
			V831.57z M2465.53,1127.23v57.32h-61.05v10.37h71.42v-67.69H2465.53z M2000.26,1127.23h-10.37v67.69h71.42v-10.37h-61.05V1127.23z
			"/>
	</g>
	<g>
		<g>
			<path class="st4" d="M2443.58,1397.05c-33.67,0-61.06-27.39-61.06-61.06c0-33.67,27.39-61.06,61.06-61.06
				c33.67,0,61.06,27.39,61.06,61.06C2504.63,1369.66,2477.24,1397.05,2443.58,1397.05z M2443.58,1286.76
				c-27.15,0-49.24,22.09-49.24,49.24c0,27.15,22.09,49.24,49.24,49.24c27.15,0,49.24-22.09,49.24-49.24
				C2492.82,1308.84,2470.73,1286.76,2443.58,1286.76z"/>
		</g>
		<g>
			<polygon class="st4" points="2439.68,1360.03 2411.94,1332.29 2420.3,1323.93 2439.68,1343.31 2466.85,1316.14 2475.21,1324.5 
							"/>
		</g>
	</g>
	
		<linearGradient id="SVGID_00000119091913451319136520000003410486311386671768_" gradientUnits="userSpaceOnUse" x1="498.835" y1="1873.2251" x2="2480.2939" y2="1873.2251">
		<stop  offset="5.208330e-03" style="stop-color:#1A2257"/>
		<stop  offset="1" style="stop-color:#5E60F2"/>
	</linearGradient>
	<path style="fill:url(#SVGID_00000119091913451319136520000003410486311386671768_);" d="M2480.29,1873.22
		c0,25.61-443.56,46.37-990.73,46.37c-547.16,0-990.73-20.76-990.73-46.37c0-25.61,443.57-46.37,990.73-46.37
		C2036.73,1826.86,2480.29,1847.62,2480.29,1873.22z"/>
	
		<linearGradient id="SVGID_00000035515048426675035940000003810604741836051638_" gradientUnits="userSpaceOnUse" x1="1523.709" y1="1176.5261" x2="1523.709" y2="614.5229">
		<stop  offset="0" style="stop-color:#D1D7E0"/>
		<stop  offset="1" style="stop-color:#EBEBFF"/>
	</linearGradient>
	
		<rect x="1345.94" y="516.19" style="opacity:0.95;fill:url(#SVGID_00000035515048426675035940000003810604741836051638_);" width="355.53" height="305.04"/>
	<g>
		<g>
			
				<linearGradient id="SVGID_00000060005558748823580530000009603274423049250216_" gradientUnits="userSpaceOnUse" x1="-3593.5498" y1="1498.3564" x2="-3466.1611" y2="1498.3564" gradientTransform="matrix(-1 0 0 1 -2645.543 0)">
				<stop  offset="5.208330e-03" style="stop-color:#1A2257"/>
				<stop  offset="1" style="stop-color:#5E60F2"/>
			</linearGradient>
			<path style="fill:url(#SVGID_00000060005558748823580530000009603274423049250216_);" d="M823.43,1738.05
				c29.6-20.82,64.24-165.88,66.31-252.29c1.06-44.26,14.14-62.7,25.69-78.97c11.03-15.55,20.56-28.98,15.01-59.82
				c-10.61-58.93,17.28-84.37,17.57-84.62l-3.23-3.68c-1.24,1.09-30.29,27.33-19.16,89.17c5.19,28.81-3.36,40.86-14.19,56.12
				c-11.36,16.01-25.49,35.93-26.59,81.68c-2.22,92.73-37.63,229.7-64.23,248.4L823.43,1738.05z"/>
		</g>
		<g>
			
				<linearGradient id="SVGID_00000152968347473523178650000010409539351831856826_" gradientUnits="userSpaceOnUse" x1="-3494.5732" y1="1603.5096" x2="-3262.9854" y2="1603.5096" gradientTransform="matrix(-1 0 0 1 -2645.543 0)">
				<stop  offset="5.208330e-03" style="stop-color:#1A2257"/>
				<stop  offset="1" style="stop-color:#5E60F2"/>
			</linearGradient>
			<path style="fill:url(#SVGID_00000152968347473523178650000010409539351831856826_);" d="M761.39,1695.74
				c-2.79-6.33-5.68-12.88-8.96-19.79c-16.91-35.69-31.89-41.57-56.7-51.31c-6.06-2.38-12.94-5.08-20.48-8.47
				c-35.55-15.98-28.67-39.52-22.59-60.29c0.85-2.91,1.7-5.8,2.43-8.67c3.13-12.22-2.88-18.34-11.97-27.62
				c-6.76-6.9-15.17-15.48-21.65-29.03c-7.1-14.83-3.48-22.79,0.8-26.85c9.02-8.55,29.81-6.97,49.45,3.75
				c6.1,3.33,11.12,8.59,16.44,14.15c12.52,13.11,28.09,29.42,67.49,29.6c22.46,0.11,34.77,3.21,41.14,10.37
				c7.23,8.12,5.87,20.29,3.98,37.13c-0.65,5.82-1.39,12.42-1.84,19.56c-2.68,42.55,22.44,73.24,22.69,73.54
				c15.01,17.87,33.49,54.94,25.51,77.76c-3.34,9.57-10.83,15.58-22.23,17.89c-4.54,0.92-8.7,1.36-12.52,1.36
				C784.8,1748.8,774.72,1725.95,761.39,1695.74z M669.36,1471.75c-17.53-9.57-36.33-11.5-43.73-4.49
				c-5.62,5.33-2.97,14.46,0.24,21.18c6.13,12.82,13.89,20.74,20.73,27.72c9.51,9.71,17.03,17.38,13.22,32.26
				c-0.75,2.92-1.61,5.87-2.47,8.83c-6.05,20.69-11.76,40.22,19.9,54.45c7.44,3.34,14.25,6.02,20.26,8.38
				c25.05,9.83,41.6,16.33,59.34,53.77c3.3,6.97,6.2,13.55,9.01,19.91c15.31,34.71,24.56,55.66,58.04,48.89
				c9.6-1.94,15.85-6.89,18.58-14.71c7.03-20.11-9.79-55.31-24.65-73c-1.09-1.3-26.62-32.43-23.82-76.99
				c0.46-7.25,1.2-13.91,1.86-19.79c1.75-15.58,3.01-26.83-2.77-33.33c-5.28-5.94-16.85-8.63-37.5-8.73
				c-41.48-0.19-57.85-17.34-71-31.11C679.34,1479.47,674.79,1474.71,669.36,1471.75L669.36,1471.75z"/>
		</g>
		<g>
			
				<linearGradient id="SVGID_00000183220152298809245880000017582506868481387164_" gradientUnits="userSpaceOnUse" x1="-3474.7764" y1="1637.1875" x2="-3300.9541" y2="1637.1875" gradientTransform="matrix(-1 0 0 1 -2645.543 0)">
				<stop  offset="5.208330e-03" style="stop-color:#1A2257"/>
				<stop  offset="1" style="stop-color:#5E60F2"/>
			</linearGradient>
			<path style="fill:url(#SVGID_00000183220152298809245880000017582506868481387164_);" d="M824.35,1777.06l4.89-0.26
				c-0.24-4.59-6.41-112.85-49.88-144.54c-47.69-34.76-62.72-72.12-69.89-97.19c-8.44-29.55-51.38-37.44-53.21-37.76l-0.85,4.82
				c0.42,0.07,41.76,7.69,49.35,34.29c7.36,25.77,22.8,64.15,71.71,99.8C818.08,1666.55,824.29,1775.96,824.35,1777.06z"/>
		</g>
		<g>
			
				<linearGradient id="SVGID_00000129188188079255918510000010627819857319705772_" gradientUnits="userSpaceOnUse" x1="-3684.8906" y1="1460.6116" x2="-3423.8665" y2="1460.6116" gradientTransform="matrix(-1 0 0 1 -2645.543 0)">
				<stop  offset="5.208330e-03" style="stop-color:#1A2257"/>
				<stop  offset="1" style="stop-color:#5E60F2"/>
			</linearGradient>
			<path style="fill:url(#SVGID_00000129188188079255918510000010627819857319705772_);" d="M816.07,1801.41
				c-10.23-5.09-9.86-25.57-9.3-56.57c0.71-39.17,1.68-92.82-18.83-142.17c-21.78-52.42-2.36-67.74,16.43-82.56
				c21.04-16.59,40.92-32.27,2.77-103.02c-17.52-32.49-23.08-54.47-17.51-69.17c5.51-14.52,20.98-20.18,37.35-26.18
				c28.26-10.34,60.3-22.07,56.16-81.89c-1.27-18.34,0.89-29.62,6.79-35.49c6.41-6.38,15.85-5.69,26.78-4.89
				c16.52,1.21,35.23,2.58,51.53-18.69c1.69-5.31,17.28-52.74,35.92-60.86c3.91-1.71,7.75-1.68,11.4,0.06l0,0
				c12.87,6.16,20.34,13.45,22.83,22.32c4.34,15.41-6.95,32.8-20.03,52.93c-20.54,31.63-43.83,67.49-19.68,110.16
				c31.93,56.42,15.07,76.16-8.28,103.48c-13.37,15.65-28.53,33.4-38.66,62.34c-8.15,23.28,5.75,45.47,19.2,66.93
				c16.87,26.92,34.3,54.76-2.41,78.92c-60.71,39.94-120.66,170.31-121.26,171.62l-0.25,0.54l-0.47,0.37
				c-11.18,8.77-19.33,12.95-25.46,12.95C819.26,1802.55,817.59,1802.17,816.07,1801.41z M965.85,1612.98
				c32.72-21.52,18-45.02,0.96-72.23c-13.4-21.4-28.6-45.65-19.67-71.15c10.44-29.8,25.91-47.92,39.56-63.9
				c22.87-26.77,37.98-44.46,7.74-97.89c-25.62-45.25-0.41-84.06,19.83-115.23c12.43-19.13,23.16-35.65,19.42-48.93
				c-2.09-7.43-8.71-13.71-20.23-19.23l0,0c-2.35-1.12-4.75-1.12-7.34,0.01c-17.29,7.53-33.17,57.74-33.33,58.25l-0.13,0.41
				l-0.26,0.34c-17.96,23.74-39.07,22.19-56.04,20.95c-10.14-0.74-18.14-1.33-22.97,3.48c-4.75,4.73-6.5,15.1-5.36,31.68
				c4.39,63.49-30.96,76.43-59.36,86.82c-15.96,5.84-29.74,10.89-34.46,23.32c-5.04,13.27,0.44,33.96,17.24,65.11
				c40.1,74.37,17.66,92.07-4.05,109.18c-18.16,14.32-35.3,27.84-14.94,76.83c20.9,50.29,19.92,104.53,19.2,144.13
				c-0.49,27.04-0.88,48.39,6.58,52.1c4.37,2.17,12.72-1.5,24.83-10.92C847.93,1775.56,905.35,1652.78,965.85,1612.98z"/>
		</g>
		
			<linearGradient id="SVGID_00000155837891110683004220000016549186734601415348_" gradientUnits="userSpaceOnUse" x1="883.9312" y1="1745.5404" x2="731.9547" y2="1289.6094">
			<stop  offset="5.208330e-03" style="stop-color:#1A2257"/>
			<stop  offset="1" style="stop-color:#5E60F2"/>
		</linearGradient>
		<path style="fill:url(#SVGID_00000155837891110683004220000016549186734601415348_);" d="M720.25,1233.17
			c30.9-10.59,24.48,48.96,37.53,93.01c13.05,44.06,145.23,19.22,89.75,129.55c-55.48,110.33,70.17,36.9,32.64,133.17
			c-37.53,96.28-3.26,199.25-44.06,173.06c-40.79-26.19-22.92-147.43-65.35-161.84c-42.43-14.41-49.35-31.21-7.34-70.37
			s-110.08-78.04-72.54-157.13C728.41,1293.55,684.55,1245.41,720.25,1233.17z"/>
		<g>
			<path class="st12" d="M821.89,1755.64c3.89-16.48,37.07-161.53,6.11-179.06c-27.29-15.45-26.62-75.56-22.36-132.31
				c3.77-50.24-60.76-73.72-63.51-74.7l-1.64,4.61c0.64,0.23,63.75,23.21,60.26,69.72c-4.37,58.29-4.84,120.14,24.83,136.94
				c23.51,13.31,1.86,129.88-8.46,173.68L821.89,1755.64z"/>
		</g>
		
			<linearGradient id="SVGID_00000165947225123700162440000004003734304654943663_" gradientUnits="userSpaceOnUse" x1="766.3475" y1="2043.3003" x2="842.3361" y2="1715.728">
			<stop  offset="0" style="stop-color:#C9C4C1"/>
			<stop  offset="1" style="stop-color:#FFF6DE"/>
		</linearGradient>
		<polygon style="fill:url(#SVGID_00000165947225123700162440000004003734304654943663_);" points="938.46,1704 894.35,1871.35 
			795.77,1871.35 751.66,1704 		"/>
		
			<linearGradient id="SVGID_00000050626650783389846720000015641351757135093924_" gradientUnits="userSpaceOnUse" x1="732.1234" y1="1787.6729" x2="918.9242" y2="1787.6729" gradientTransform="matrix(1 0 0 1 19.5338 0)">
			<stop  offset="0" style="stop-color:#C9C4C1"/>
			<stop  offset="1" style="stop-color:#FFF6DE"/>
		</linearGradient>
		<path style="fill:url(#SVGID_00000050626650783389846720000015641351757135093924_);" d="M938.46,1704
			c0,0-97.11,18.23-97.11,167.35h-45.58L751.66,1704H938.46z"/>
	</g>
	
		<linearGradient id="SVGID_00000033362276308182470410000014192250333377686682_" gradientUnits="userSpaceOnUse" x1="2033.0171" y1="701.3976" x2="2033.0171" y2="384.814">
		<stop  offset="0" style="stop-color:#D1D7E0"/>
		<stop  offset="1" style="stop-color:#EBEBFF"/>
	</linearGradient>
	<path style="opacity:0.95;fill:url(#SVGID_00000033362276308182470410000014192250333377686682_);" d="M2178.55,650.15h-291.06
		c-26.64,0-48.23-21.59-48.23-48.23V349.37c0-26.64,21.59-48.23,48.23-48.23h291.06c26.64,0,48.23,21.59,48.23,48.23v252.55
		C2226.78,628.56,2205.19,650.15,2178.55,650.15z"/>
	<g>
		<rect x="2016.18" y="584.14" class="st4" width="30.73" height="5.69"/>
	</g>
	<g>
		<path class="st4" d="M2125.13,364.3v5.57h32.77v30.76h5.57V364.3H2125.13z M1902.57,400.62h5.57v-30.76h32.77v-5.57h-38.34V400.62
			z M2157.9,559.34v30.77h-32.77v5.57h38.34v-36.34H2157.9z M1908.13,559.34h-5.57v36.34h38.34v-5.57h-32.77V559.34z"/>
	</g>
	<g>
		<rect x="1503.18" y="844.91" class="st4" width="41.05" height="7.6"/>
	</g>
	<g>
		<path class="st4" d="M1646.74,551.26v7.43h43.78v41.09h7.43v-48.52H1646.74z M1349.47,599.78h7.43v-41.09h43.78v-7.43h-51.21
			V599.78z M1690.52,811.77v41.1h-43.78v7.43h51.21v-48.53H1690.52z M1356.9,811.77h-7.43v48.53h51.21v-7.43h-43.78V811.77z"/>
	</g>
	<g>
		<g>
			<path class="st16" d="M2453.17,1084.58h-68.48c-4.51-32.79-10.04-70.22-10.04-70.22s-2.77,30.89-6.13,70.22h-274.05
				c-2.5-35.37-5.51-61.83-6.6-62.38c-1.58-0.79-11.35,30.59-19.46,62.38h-74.18c19.08-82.19,54.67-214.06,75.24-221.96
				c29.29-11.26,148.72-48.07,148.72-48.07h68.16c0,0,121.12,34.55,132.38,72.12C2427.68,916.61,2447.44,1015.34,2453.17,1084.58z"
				/>
		</g>
		<g>
			<path class="st17" d="M2255.39,593.44c0,0,63.64,10.03,53.95,109.6c-9.69,99.58-65.86,91.41-69.62,91.31
				c-3.75-0.1-56.39,1.82-60.49-119.76C2179.24,674.6,2177.44,584.7,2255.39,593.44z"/>
		</g>
		<g>
			<path class="st17" d="M2285.1,765.03c0,0-1.74,40.96,2.22,49.82s-52.52,37.35-86.97,5.61c0,0,8.32-44.51,6.01-60.29
				C2204.04,744.4,2285.1,765.03,2285.1,765.03z"/>
		</g>
		<g>
			<path class="st17" d="M2310.33,674.92c0,0,6.97-7.44,9.53,0.09c2.56,7.54-10.81,41.21-9.94,42.72c0,0-1.27,2.92-2.95,1.31
				C2305.3,717.43,2310.33,674.92,2310.33,674.92z"/>
		</g>
		<g>
			<path class="st17" d="M2179.95,673.66c0,0-6.82-7.58-9.53-0.09c-2.7,7.49,10.01,41.41,9.11,42.9c0,0,1.22,2.95,2.92,1.37
				C2184.16,716.26,2179.95,673.66,2179.95,673.66z"/>
		</g>
		<g>
			<path class="st18" d="M2310.3,690.19l-9.11,12.18c0,0,0.26-26.7-1.2-30.89c-1.46-4.19-3.7-16.98-4.92-20
				c-1.22-3.02-54.65-17.99-101.85,4.37c0,0,2.08,19.2-2.45,20.91c-4.52,1.71-2.31,31.28-2.31,31.28l-7.49-8.45
				c0,0-11.47-76.61-8.64-84.59c2.83-7.98,11.86-55.99,108.68-27.49c0,0,30.18-6.39,36.24,14.45
				C2323.32,622.79,2310.3,690.19,2310.3,690.19z"/>
		</g>
		<g>
			<path class="st17" d="M2287.32,814.85c0,0,14.36,3.06-45.73,60.65c0,0-42.62-47.14-41.24-55.04
				C2201.73,812.56,2287.32,814.85,2287.32,814.85z"/>
		</g>
		<g>
			<polygon class="st19" points="2241.59,875.5 2257.99,903.54 2306.63,820.95 2285.56,806.25 			"/>
		</g>
		<g>
			<polygon class="st19" points="2241.59,875.5 2201.79,812.18 2179.23,826.68 2219.68,903.54 			"/>
		</g>
		<g>
			<path class="st19" d="M2229.25,1050.92c0.49,9.34,0.71,20.79,0.73,33.66h-2.25c-0.03-12.81-0.24-24.24-0.73-33.55
				c-3.69-70.25,13.33-155.73,13.44-175.76l2.2,0.43C2242.53,895.74,2225.56,980.97,2229.25,1050.92z"/>
		</g>
		<path class="st20" d="M2212.28,782.64c0,0,15.12,15.99,36.48,11.72c21.36-4.26,30.84-14.04,30.84-14.04s-8.43,21.14-33.12,23.08
			C2221.78,805.33,2212.28,782.64,2212.28,782.64z"/>
	</g>
	<g>
		<g>
			<g>
				<path class="st21" d="M1474.86,554.08c-0.05,0-0.1-0.01-0.14-0.02c-1.44-0.35-3.71-7.23-4.15-8.61
					c-0.1-0.38-0.33-1.07-0.64-2.03c-1.78-5.51-5.96-18.42-4.33-23.36c0.51-1.56,1.31-2.46,2.38-2.68c2.29-0.47,4.9,2.43,5.01,2.55
					l0.05,0.06l0.01,0.08c0.59,5.43,3.49,32.57,2.24,33.82C1475.17,554.01,1475.02,554.08,1474.86,554.08z M1468.5,517.85
					c-0.14,0-0.28,0.01-0.42,0.04c-0.87,0.18-1.54,0.97-1.99,2.34c-1.57,4.78,2.72,18.04,4.33,23.03c0.31,0.96,0.54,1.66,0.64,2.04
					c1.06,3.3,2.93,8.04,3.77,8.25c0.02,0,0.04,0.01,0.08-0.03c0.79-1.08-1.03-20.96-2.38-33.3
					C1472.18,519.84,1470.24,517.85,1468.5,517.85z"/>
			</g>
		</g>
		<g>
			<g>
				<path class="st22" d="M1522.17,445.86c0,0,35.03-3.67,47.66,30.16c12.62,33.83,24.51,44.91,26,62.68
					c6.02,71.89,39.59,55.63,30.15,97.06c-9.44,41.44-15.98,47.71-15.98,47.71l-80.26-15.74l-81.3,0.26c0,0,31.81-15.88,24.73-49.72
					c-7.08-33.83-24.73-89.28-14.76-127.05C1468.36,453.46,1501.24,448.74,1522.17,445.86z"/>
			</g>
		</g>
		<g>
			<g>
				<path class="st21" d="M1564.96,554.08c-0.16,0-0.3-0.06-0.42-0.18c-1.25-1.25,1.65-28.39,2.24-33.82l0.01-0.08l0.06-0.06
					c0.11-0.12,2.72-3.03,5.01-2.55c1.07,0.22,1.87,1.12,2.38,2.68c1.63,4.94-2.55,17.85-4.33,23.36c-0.31,0.96-0.53,1.65-0.63,2.02
					c-0.44,1.39-2.72,8.27-4.16,8.62C1565.05,554.07,1565.01,554.08,1564.96,554.08z M1567.29,520.22
					c-1.35,12.34-3.18,32.23-2.38,33.31c0.03,0.03,0.05,0.03,0.07,0.02c0.84-0.21,2.72-4.95,3.78-8.26c0.1-0.37,0.33-1.07,0.64-2.03
					c1.62-4.99,5.9-18.25,4.33-23.03c-0.45-1.37-1.12-2.15-1.99-2.34C1569.92,517.51,1567.67,519.81,1567.29,520.22z"/>
			</g>
		</g>
		<g>
			<g>
				<path class="st23" d="M1686.89,769.08h-50.01c-10.37-18.9-18.79-33.68-18.79-33.68s-6.74,12.3-11.97,33.68h-168.36
					c-2.57-13.34-2.73-26.13-2.19-35.23c0,0-9,16.26-19.44,35.23h-56.56c15.01-28.11,43.13-79.28,49.52-85.95
					c8.03-8.41,54.54-40.56,87.76-51.05c33.23-10.49,52.11-0.36,52.11-0.36s34.12,6.15,65.66,18.66
					C1627.03,655.28,1661.29,718.54,1686.89,769.08z"/>
			</g>
		</g>
		<g>
			<g>
				<path class="st24" d="M1526.79,465.65c0,0,46.4,6.69,39.61,75.19c-6.79,68.49-47.74,63.06-50.48,63
					c-2.74-0.06-41.08,1.42-44.4-82.15C1471.52,521.68,1469.98,459.88,1526.79,465.65z"/>
			</g>
		</g>
		<g>
			<g>
				<path class="st24" d="M1547.41,591.68c0,0-2.87,35.63,3.99,46.3c6.86,10.67-5.87,25.16-32.1,20.21
					c-26.23-4.96-24.7-19.82-24.7-19.82s7.34-21.99,5.2-39.58C1497.64,581.18,1547.41,591.68,1547.41,591.68z"/>
			</g>
		</g>
		<g>
			<g>
				<path class="st22" d="M1521.49,490.47c0,0,21.68,22.79,31.75,34.33c10.07,11.54,11.23,33.83,11.23,33.83s16.96-20.72,9.87-44.85
					c-7.09-24.13-23.88-71.07-66.36-56.65c-42.49,14.42-44.06,77.89-39.08,109.36C1468.89,566.5,1487.96,497.02,1521.49,490.47z"/>
			</g>
		</g>
		<g>
			<g>
				<path class="st24" d="M1563.7,634.84c0,0-32.18,81.5-51.73,95.66c0,0-25.69-83.12-23.89-95.29
					C1488.07,635.21,1526.82,620.02,1563.7,634.84z"/>
			</g>
		</g>
		<g>
			<path class="st22" d="M1495.7,615.13c0,0-57.36,51.04-42.47,82.88c12.71,27.17,57.75,10.51,50.32-17.96
				C1496.12,651.57,1495.7,615.13,1495.7,615.13z"/>
		</g>
		<g>
			<path class="st25" d="M1503.2,600.73c0,0,19.77,9.34,39.01-4.46c0,0-5.34,11.04-19.5,12.61
				C1508.55,610.45,1503.2,600.73,1503.2,600.73z"/>
		</g>
	</g>
	<g>
		<g>
			<path class="st26" d="M2012.31,412.21c0,0-19.02,71.59-22.99,87.73c-1.18,4.86-5,13.26-9.84,22.84
				c-0.03,0.07-0.07,0.14-0.12,0.22c-1.04,2.1-1.54,4.02-1.78,5.82c-0.77,5.97,1.52,10.67-2.45,17.76l-0.72,2.98h-37.65
				c4.4-13.05,9.97-29.66,14.44-43.04c3.75-11.29,6.71-20.27,7.49-22.87c2.33-7.77,10.86-32.91,18.12-49.61
				c2.53-5.82,12.28-11.56,20.92-15.72C2005.46,414.62,2012.31,412.21,2012.31,412.21z"/>
		</g>
		<g>
			<path class="st27" d="M1987.12,309.94c0,0-12-77.65,52.31-76.22s63.45,39.83,62.3,77.94s-25.79,35.24,2.01,88.25
				c27.79,53.01-24.07,53.01-24.07,53.01l-40.24-55.3L1987.12,309.94z"/>
		</g>
		<g>
			<path class="st21" d="M2032.39,241.17c0,0-43.55,6.88-45.27,68.77c-1.72,61.89,11.75,75.07,49.86,62.18
				c38.11-12.89,50.14-77.65,51-87.68C2088.83,274.41,2091.13,233.72,2032.39,241.17z"/>
		</g>
		<g>
			<path class="st28" d="M2108.88,456.45c0.15,21.3-24.33,72.24-28.11,87.98c-0.45,1.83-0.92,3.52-1.4,5.11h-118.86
				c-0.62-7.34-1.2-13.62-1.49-17.16c-0.94-11.63-12.73-36.69-12.33-48.36c0.41-11.89,6.24-22.15,14.41-34.85
				c2.53-3.93,5.2-7.94,7.85-11.84c8.66-12.69,17.29-24.22,21.54-28.19c3.16-2.94,6.11-5.2,8.67-6.91c0.02-0.02,0.02-0.02,0.02-0.02
				c5.34-3.56,8.93-4.7,8.93-4.7l37.43-5.99c0,0,23.33,8.45,36.76,11.58C2082.29,403.11,2108.48,406.94,2108.88,456.45z"/>
		</g>
		<g>
			<path class="st28" d="M1999.18,402.22l-21.7,34.2l-20.03,31.56c0.05-0.17,1.38-4.95,3.64-18.79c0.43-2.63,0.89-5.58,1.39-8.89
				c0.15-0.98,0.36-1.95,0.63-2.91c0,0,0,0,0,0c8.57-19.76,35.07-34.66,36.04-35.15C1999.17,402.22,1999.18,402.22,1999.18,402.22z"
				/>
		</g>
		<g>
			<path class="st21" d="M2061.47,344.24c-3.78,7.13-7.76,51.38-7.76,51.38s-53.27,20.13-47.82,8.75c2.47-5.17,3.2-11.88,3.25-17.66
				c0.05-4.56-0.33-8.54-0.59-10.75c-0.14-1.16-0.25-1.83-0.25-1.83S2065.25,337.11,2061.47,344.24z"/>
		</g>
		<g>
			<path class="st27" d="M2014.62,285.59c0,0,22.35,36.39,42.69,50.72c20.34,14.33,10.03,25.79,10.03,25.79
				s53.08-111.75,2.62-119.48c-50.46-7.74-81.41-8.31-82.84,67.33C1987.12,309.94,2010.04,285.01,2014.62,285.59z"/>
		</g>
		<g>
			<path class="st29" d="M2038.93,371.4c-8.18,12.06-29.78,15.31-29.78,15.31s0,0,0,0c0.05-4.56-0.33-8.54-0.59-10.75
				C2022.43,378.63,2038.93,371.4,2038.93,371.4z"/>
		</g>
		<path class="st30" d="M1963.2,437.15L1963.2,437.15c0,0-1.16,2.4-2.11,12.04l7.85-11.84c0,0,14.01-20.09,18.81-25.32
			c4.8-5.22,11.4-9.8,11.4-9.8S1971.58,415.47,1963.2,437.15z"/>
		<path class="st28" d="M2069.2,467.11c0,0,34.19-13.41,44.3-14.19c0,0-6.88-54.9-40.46-49.08
			C2039.46,409.65,2069.2,467.11,2069.2,467.11z"/>
		<path class="st21" d="M2008.1,397.51c0,0-25.1,38.6-16.6,41.97c8.5,3.37,54.49-4.5,74.04-41.16
			C2065.54,398.32,2036.3,383.33,2008.1,397.51z"/>
		<path class="st26" d="M2113.51,452.92c-1.74,30.26-10.33,58.97-17.42,85.31c-1.03,3.82-2.02,7.6-2.94,11.31h-69.61
			c-0.17-10.44-0.14-19.64,0.19-27.32c3.51-84,30.13-128.17,30.13-128.17s8.5,2.86,32.97,9.79c16.76,4.74,23.09,26.07,25.4,39
			c0,0,0.02,0.05,0.04,0.15C2113.29,448.83,2113.51,452.92,2113.51,452.92z"/>
		<path class="st26" d="M2008.08,397.53c-0.27,0.48-4.86,8.18-10.35,20.77c-8.25,18.9-18.54,48.84-19.42,81.82
			c-0.27,10.59-2.38,27.75-5.58,49.42h-13.89c-1.4-18.13-4.72-32.62-7.65-43.04c-1.9-6.76-3.64-11.8-4.58-15
			c-4.43-15.07,9.73-35.14,14.47-42.32C1965.84,442.01,1977.2,409.03,2008.08,397.53z"/>
		<path class="st26" d="M2135.68,549.54h-37.38c0-2.43-0.84-6.4-2.21-11.31c-6.79-24.14-26.89-71.13-26.89-71.13
			s-30.08-49.15-1.57-61.67c28.5-12.52,40.77,22.48,44.6,37.41c0,0,0.02,0.05,0.04,0.15
			C2113.21,446.58,2130.18,511.27,2135.68,549.54z"/>
	</g>
	<g>
		<g>
			<path class="st21" d="M1526.06,1250.3c0,0,13.06-0.18,17.71-5.22c4.65-5.03,12.87-9.54,15.5-10.83
				c3.52-1.71,13.27-11.19,14.49-6.56c1.22,4.63-15.52,16.36-18.7,19.53c-3.19,3.17,13.91,4.55,16.42,7.62
				c2.51,3.07-6.22,35.42-17.61,32.92c-11.39-2.5-20.72-13.99-22.87-13.97c-2.15,0.03-8.41-1.44-8.41-1.44L1526.06,1250.3z"/>
		</g>
		<g>
			<path class="st21" d="M1569.06,1253.54c0,0,34,10.38,35.4,13.33c1.4,2.94,0.45,5.1-2.79,4.28c-3.24-0.81-33.28-8.9-33.28-8.9
				s37.16,20.32,38.83,22.35c0.98,1.19-0.65,5.44-2.45,5.19c-1.8-0.25-40.05-17.79-40.05-17.79s34.65,19.05,35.52,21.31
				c0.75,1.98-1.57,5.63-4.26,4.43s-36.08-16.64-36.08-16.64s24.15,15.81,23.77,18.42c-0.23,1.59-1.5,5.31-7.58,0.98
				c-6.08-4.32-21.67-12.63-21.67-12.63L1569.06,1253.54z"/>
		</g>
		<g>
			<path class="st31" d="M1454.54,1823.89c0,0,10.91,16.32,26.21,19.84c15.3,3.53,30.37,9.13,30.49,18.79
				c0.11,9.65-44.24,15.41-61.75,5.68c-26.13-14.53-28.79-10.15-31.69-17.41c-2.9-7.26,3.48-26.68,3.29-28.99
				C1420.86,1818.95,1454.54,1823.89,1454.54,1823.89z"/>
		</g>
		<g>
			<path class="st32" d="M1452.84,1815.84c0,0,1.99,7.88,1.69,8.05s-34.48,4.24-33.45-2.09c0.84-5.13,2.04-10.71,2.04-10.71
				L1452.84,1815.84z"/>
		</g>
		<g>
			<path class="st31" d="M1239.89,1822.81c0,0,7.78,15.61,21.07,20.93c14.21,5.68,25.61,12.22,25.35,21.62
				c-0.26,9.41-34.74,18.94-59.82,0.89c-15.85-11.41-20.87-11.46-23.41-18.65c-2.54-7.18,4.42-25.85,4.32-28.11
				C1207.28,1816.71,1239.89,1822.81,1239.89,1822.81z"/>
		</g>
		<g>
			<path class="st32" d="M1240.28,1814.71c0,0-0.09,7.96-0.39,8.11c-0.29,0.15-33.33,2.87-32.49-3.32
				c0.67-4.92,3.21-10.86,3.21-10.86L1240.28,1814.71z"/>
		</g>
		<g>
			<path class="st33" d="M1361.41,1337.84c0,0,43.39,166.24,59.92,204.67c15.31,35.61,20.36,85.4,22.47,110.42
				c2.65,31.46,18.43,153.96,20.29,163.16c1.86,9.2-51.05,5.09-51.05,5.09s-36.48-211.81-51.62-242.72
				c-10.11-20.63-68.74-168.55-75.45-160.03c-6.71,8.52-15.03,156.73-20,181.34s-20.22,219.01-20.22,219.01s-34.11,5.03-43.22-2.68
				c0,0-4.15-166-0.98-212.12c1.21-17.58-20.6-210.78,7.36-288.55C1223.67,1274.3,1361.41,1337.84,1361.41,1337.84z"/>
		</g>
		<g>
			<path class="st34" d="M1119.71,1218.63c0,1.9,3.59,9.51,9.32,20.45c8.38-16.76,14.96-30.53,17.12-35.59
				c7.06-16.68,43.45-54.91,43.45-54.91s0,0.03,0.02,0.08c0,0.02,0,0.03,0.01,0.05c0.01,0.01,0.01,0.03,0.01,0.04
				c0.02,0.05,0.03,0.11,0.04,0.16c0.03,0.09,0.05,0.2,0.09,0.33c0.02,0.06,0.04,0.13,0.05,0.2c0.02,0.05,0.03,0.1,0.04,0.15
				c1.98,7.38,14.15,53.52,14.6,76.25c0.49,24.74,6.95,70.52,6.95,70.52l0.03,0l7.6,1.06l16.81,2.37l2.02,0.28l4.89,0.69l44.59,6.27
				l15.81,2.22l2.14,0.3l9.04,1.27l24.96,3.51l6.37,0.89l0.06,0.01l4.76,0.67l6.59,0.92c0,0,0,0,0,0c0.18-0.25,6.41-8.77,5.45-27.72
				c-0.61-12.23-2.08-35.21-1.47-56.53c0-0.11,0.01-0.22,0.01-0.33c0-0.27,0.02-0.54,0.02-0.81c0.01-0.1,0.01-0.18,0.02-0.27v-0.05
				c0.39-11.71,1.42-22.82,3.6-31.25c1.47-5.71,2.46-11.36,3.1-16.66c0.03-0.26,0.06-0.52,0.1-0.77c0.11-0.98,0.22-1.96,0.31-2.91
				c1.42-14.79,0.3-26.04,0.23-26.71l0.03,0.05c0.45,0.98,3.71,12.91,7.97,27.63c7.21,24.89,17.3,57.78,21.6,59.36
				c6.25,2.3,107.55,32.3,129.43,35.38c2.53,0.36,4,0.35,4.14-0.1c0.1-0.32,0.2-0.65,0.3-0.99c2.66-8.76,6.31-23.66,6.9-26.06
				c0.06-0.22,0.08-0.33,0.08-0.33l-3.92-1.17l-110.22-33.03l-50.39-145.3c-1.05-0.84-13.43-6.83-22.47-11.13
				c-9.21-4.39-20.33-10.83-30.39-16.35c-5.13-2.81-9.99-5.37-14.18-7.29l-0.64-0.29l0-0.01c-6.94-3.17-11.55-5.27-11.55-5.27
				s-0.01,0-0.02,0c-0.17-0.02-1.25-0.12-3.01-0.29c-9.68-0.92-39.75-3.74-49.83-4.33c-0.83-0.05-1.53-0.09-2.06-0.1
				c-0.46-0.02-0.8-0.02-1.02,0c-1.28,0.07-7.47,2.24-15.62,5.34h0c-0.31,0.12-0.62,0.23-0.93,0.36c-0.38,0.14-0.77,0.29-1.15,0.44
				c-0.71,0.27-1.43,0.55-2.15,0.83c-1.46,0.57-2.96,1.15-4.48,1.75c-0.52,0.21-1.05,0.42-1.59,0.63
				c-16.3,6.47-34.98,14.47-39.42,17.66c-2.93,2.1-12.07,19.32-22.66,40.61c-13.64,43.69-30.93,110.58-31.46,127.07
				C1119.72,1218.14,1119.71,1218.39,1119.71,1218.63z"/>
		</g>
		<g>
			<path class="st35" d="M1357.09,1316.83c0,0,3.36,4.01,4.33,21.01c0,0-137.93-16.09-152.52-22.43c0,0-0.57-18.73,2.52-19.05
				C1214.82,1296,1357.09,1316.83,1357.09,1316.83z"/>
		</g>
		<g>
			<path class="st21" d="M1239.46,1018.52c0.43,21.65,42.34,33.49,42.34,33.49s17.53-21.98,13.34-24.08
				c-1.64-0.83-2.31-4.11-2.52-7.79c-0.19-3.5,0.03-7.37,0.24-9.82c0.12-1.53,0.24-2.52,0.24-2.52s-5.99-6.32-13.61-13.85
				c-13.31-13.16-31.62-30.03-31.64-23.32c0,0.35,0.05,0.78,0.15,1.27C1251.23,987.01,1239.46,1018.52,1239.46,1018.52z"/>
		</g>
		<g>
			<path class="st31" d="M1242.94,1299.67c0,0-3.01,18.99-3.27,23.93l-6.38-1.27c0,0,1.76-20.09,2.79-23.45L1242.94,1299.67z"/>
		</g>
		<g>
			<path class="st31" d="M1345.58,1314.62c0,0,2.42,17.26,2.48,23.77l-6.75-0.88c0,0-1.38-21.55-2.15-23.8L1345.58,1314.62z"/>
		</g>
		<g>
			<path class="st29" d="M1255.6,986.8C1255.6,986.8,1255.6,986.8,1255.6,986.8c0.09,0.13,1.86,2.79,4.9,6.61
				c6.43,8.09,18.53,21.39,32.13,26.73c-0.19-3.5,0.03-7.37,0.24-9.82c1.39-0.04,2.78-0.2,4.16-0.5
				c-3.73-6.51-9.11-13.34-9.11-13.34l-8.41-2.52L1255.6,986.8z"/>
		</g>
		<g>
			<path class="st21" d="M1247.56,970.93c3.63,7.89,7.07,13.6,8.05,15.87c0,0,0,0,0,0c0.63,1.48,2.37,3.88,4.89,6.6
				c6.91,7.44,19.75,17.26,32.37,16.91c1.39-0.04,2.78-0.2,4.16-0.5c5.1-1.11,11.11-3.48,14.43-9.97
				c26.15-51.2,7.22-93.06,7.22-93.06s-71.5-20.22-82.69,1.31C1228.14,923.2,1239.04,952.4,1247.56,970.93z"/>
		</g>
		<g>
			<path class="st36" d="M1318.67,906.79c0,0,6.64-0.37,8.28-12.96c1.62-12.44-1.66-15.89-1.66-15.89s-29.52-12.36-40.12-13.96
				c-10.6-1.61-36.67-3.15-42.77,3.84c0,0-14.84-3.45-18.89,21.19c-6.42,39.09,21.86,77.05,21.86,77.05s-0.24-25.54,5.39-28.92
				c5.63-3.38,10.49,4.66,10.49,4.66l11.52,2.06c0,0-17.5-37.79,3.49-39.18C1297.27,903.29,1306.66,908.99,1318.67,906.79z"/>
		</g>
		<g>
			<path class="st21" d="M1260.95,931.63c-1.1-11.25-21.44-15.55-20.08-3.75c1.36,11.79,11.38,23.12,16.01,22.72
				C1261.51,950.2,1261.78,940.21,1260.95,931.63z"/>
		</g>
		<g>
			<path class="st37" d="M1129.04,1239.07c8.86,16.91,22.85,41.79,36.66,65.91c-1.82,3.39-3.59,6.76-5.3,10.08
				c-4.15,8.12-7.84,15.99-10.45,23.32c-3.15,8.82-7.52,31.4,0.85,35.6l44.12,24.35c0,0,0.31-0.86,0.89-2.46
				c1.46-3.96,4.63-12.44,9.02-23.42c0.14-0.36,0.58-1.4,1.24-2.95c0.88-2.07,2.14-5.03,3.59-8.4c0.65-1.51,1.33-3.11,2.04-4.74
				c0.8-1.87,1.63-3.8,2.45-5.72c1.2-2.8,2.4-5.58,3.5-8.15c3.01-7.01,5.36-12.46,5.36-12.46c0.15-0.32,0.3-0.64,0.45-0.97
				c1.44-3.1,2.91-6.22,4.41-9.33c2.32-4.81,4.71-9.6,7.15-14.29c0.25-0.48,0.49-0.95,0.74-1.42c0.44-0.82,0.87-1.65,1.31-2.46
				c0.27-0.5,0.54-1,0.81-1.49c0.06-0.11,0.12-0.22,0.18-0.33c0.11-0.2,0.22-0.39,0.33-0.59c12.76-23.27,27.12-42.72,31.71-71.26
				c0.44-2.75,0.86-5.49,1.26-8.21c0.66-4.53,1.28-9,1.83-13.38c0.21-1.66,0.42-3.3,0.61-4.92c2.3-19.04,3.67-36,4.78-47.81
				c3.45-36.81-19.09-76.66-36.4-101.28c-9.26-13.17-17.01-21.98-18.5-23.65c-0.04-0.03-0.06-0.06-0.09-0.09
				c-0.31,0.12-0.62,0.23-0.93,0.36c-0.38,0.14-0.77,0.29-1.15,0.44c-0.71,0.27-1.43,0.55-2.15,0.83c-1.46,0.57-2.96,1.15-4.48,1.75
				c-0.52,0.21-1.05,0.42-1.59,0.63c-16.76,6.57-52.06,16.28-56.5,19.47c-2.56,1.83-8.3,18.63-14.92,39.85
				c-13.64,43.69-21.73,109.57-22.13,126.02c-0.01,0.26-0.01,0.51-0.01,0.75C1119.71,1220.53,1123.3,1228.13,1129.04,1239.07z
				 M1196.08,1230.85c0,8.21-2.67,17.61-6.77,27.63c-0.11,0.25-0.21,0.5-0.31,0.75c-2.83-6.04-5.49-11.82-7.88-17.17
				c0-0.01-0.01-0.02-0.01-0.03c-6.57-14.7-11.08-26.16-11.33-30.7c-1.62-29.14,19.84-62.69,19.84-62.69c0,0.02,0,0.03,0.01,0.05
				c0.01,0.01,0.01,0.03,0.01,0.04c0.02,0.05,0.03,0.11,0.04,0.16c0.03,0.11,0.06,0.21,0.09,0.33c0.02,0.06,0.04,0.13,0.05,0.2
				c0.02,0.05,0.03,0.1,0.04,0.15C1194.27,1166.9,1196.08,1230.85,1196.08,1230.85z"/>
		</g>
		<path class="st38" d="M1279.89,1340.67l-125.77,55.98c-7.12,3.17-15.45-0.03-18.62-7.15l-34.43-77.36
			c-3.17-7.11,0.03-15.45,7.15-18.62l125.77-55.98c7.11-3.17,15.45,0.03,18.62,7.15l34.43,77.36
			C1290.21,1329.16,1287.01,1337.5,1279.89,1340.67z"/>
		<g>
			<path class="st37" d="M1307.01,1033.75c0,0,5.9,19.64,13.53,68.65c0,0,0,0.01,0.01,0.02c0.26,1.65,0.52,3.32,0.78,5.04
				c0.03,0.2,0.06,0.4,0.09,0.6c0.17,1.13,0.35,2.28,0.52,3.45c0.02,0.14,0.04,0.28,0.06,0.41c0.12,0.78,0.23,1.57,0.35,2.37
				c0.29,1.94,0.57,3.91,0.86,5.92c3.4,23.86,8.18,64.46,12.77,105.45v0.02c3.63,32.31,11.89,65.46,14.52,90.2
				c0,0.02,0.01,0.03,0.01,0.05c0.52,4.85,1.76,11.31,3.43,18.6c0.19,0.82,0.38,1.66,0.58,2.5c7.39,31.23,21.74,75.43,21.74,75.43
				l4.18-3.86l12.38-11.43c2.85-2.63,3.93-6.66,2.78-10.35c-6.87-22.15-30.2-100.53-34.47-155.63c0-0.02,0-0.03,0-0.05
				c2.1-19.36,7.46-45.35,6.66-49.08c0.05,0.13,0.1,0.27,0.15,0.4c2.46,6.83,5.18,14.26,7.92,21.49v0.01
				c7.37,19.42,14.9,37.41,18.04,38.56c6.98,2.57,132.39,39.57,133.3,34.4c0.09-0.52,0.2-1.07,0.32-1.66
				c0.11-0.58,0.24-1.18,0.37-1.81c1.55-7.07,4.36-17.2,6.32-24.04c0.29-1.01,0.56-1.95,0.81-2.8c0.82-2.83,1.36-4.63,1.36-4.63
				l-106.05-34.81l-53.51-139.93c-1.05-0.83-14.71-8.18-23.75-12.49c-9.41-4.48-21.32-10.01-31.89-14.89
				c-5.05-2.33-9.8-4.51-13.81-6.36L1307.01,1033.75z"/>
		</g>
		<g>
			<path class="st39" d="M1235.21,1082.26l20.39,11.5l-8.71,8.88l23.2,125.25c4.73-29.36,6.88-57.24,8.48-74.33
				c5.33-56.9-51.46-121.09-55-125.02c-2.73,1.03-5.67,2.18-8.72,3.38L1235.21,1082.26z"/>
		</g>
		<g>
			<path class="st39" d="M1306.7,1033.2c0,0,7.62,24.88,16.5,86.99c3.4,23.86,8.18,64.47,12.77,105.45l4.75-117.3l-9.71-10.52
				l8.63-10.79l-18.48-47.18c-5.05-2.33-9.8-4.52-13.82-6.36L1306.7,1033.2z"/>
		</g>
		<g>
			<path class="st40" d="M1222.44,1028.97l17.02-10.45c0,0,0.47,9.27,42.34,33.49l-11.89,33.49L1222.44,1028.97z"/>
		</g>
		<g>
			<path class="st40" d="M1292.94,1023.19c0,0-0.66,10.01-11.14,28.82l23.21,30.25l1.69-49.06L1292.94,1023.19z"/>
		</g>
		<g>
			<path class="st23" d="M1281.74,1052.01c0,0-4.5,17.99-2.88,23.03c0,0,9.89,3.6,17-0.9
				C1295.86,1074.14,1290.82,1061.54,1281.74,1052.01z"/>
		</g>
		<g>
			<g>
				<path class="st41" d="M1304.99,1311.45c2.52-12.69,0.12-50.73,0.02-52.34l-2.15,0.14c0.02,0.39,2.48,39.36,0.02,51.78
					L1304.99,1311.45z"/>
			</g>
		</g>
		<g>
			<path class="st42" d="M1287.38,1305.6c0,0,20.3,2.42,27.01,4.1l-0.88,22.75l-26.58-2.84L1287.38,1305.6z"/>
		</g>
		<g>
			<path class="st23" d="M1291.82,1072.52c0,0,22.64,57.17,18.94,121.15c-3.83,66.34-10.11,90.39-10.11,90.39l-13.96,17.5
				l-6.15-21.51c0,0,18.73-84.58,6.64-166.88c-2.19-14.91-5.44-43.17-5.44-43.17L1291.82,1072.52z"/>
		</g>
		<g>
			<path class="st21" d="M1223.8,1342.48c0,0,4.86,9.71,9.71,11.33c4.86,1.62,11.94,9.51,11.94,9.51l-34.2,18.01
				c0,0-9.11-17.81-9.51-29.14C1201.34,1340.86,1223.8,1342.48,1223.8,1342.48z"/>
		</g>
		<g>
			<path class="st34" d="M1227.05,1343.39l2.27,4.55c0,0-21.72,15.89-27.58,16.9l-2.01-6.07L1227.05,1343.39z"/>
		</g>
		<g>
			<path class="st37" d="M1229.31,1343.59c0,0-16.28,13.46-29.99,19.67l-61.45-107.75l39.22-21.45
				C1177.09,1234.06,1228.23,1335.5,1229.31,1343.59z"/>
		</g>
		<g>
			<path class="st33" d="M1367.12,1153.05c0.75,15.35,0.64,28.98,0.64,28.98s0,0.01,0,0.01c0,0.07,0.02,0.49,0.05,1.17
				c0.03-0.26,0.06-0.52,0.1-0.77c2.46,6.83,5.18,14.26,7.92,21.49c0.64-8.38,0.8-16.19,0.62-23.42
				c-1.1-43.04-14.64-65.62-14.64-65.62C1364.92,1122.4,1366.41,1138.5,1367.12,1153.05z"/>
		</g>
	</g>
	<g>
		<g>
			<path class="st21" d="M1901.1,1011.14c0,0-0.64-7.91,0.29-11.6c1.61-6.38-0.76-16.7,7.26-21.71s31.07,15.97,32.88,21.83
				c1.81,5.86-6.81,15.85-24.83,24.24S1901.1,1011.14,1901.1,1011.14z"/>
		</g>
		<g>
			<path class="st21" d="M1906.2,979.91c0,0,7.78-11.71,18.06-23.68c9.01-10.5,21.67-22.27,24.34-20.03
				c4.05,3.4-7.42,11.86-15.65,22.87c-7.58,10.14-4.36,9.42-4.36,9.42s-0.93,0.15,9.5-9.27c11.22-10.14,23.69-20.56,25.91-18.77
				c2.75,2.22,2.91,2.73-0.55,7.08c2.53-2.07,3.47-1.67,4.44-0.69c5.05,5.07-9.08,22.55-14.69,29.49c4.34-5.3,8.11-8.73,9.19-3.63
				c1.24,5.84-19.86,29.64-26.59,38.89C1928.45,1021.69,1906.2,979.91,1906.2,979.91z"/>
		</g>
		<g>
			<g>
				<g>
					<g>
						<path class="st43" d="M1636.56,1820.93c0,0,21.94,12.97,31.87,17.79c9.93,4.82,48.53,6.2,52.34,9.83
							c3.81,3.62,2.42,15.16-3.98,16.34c-6.4,1.18-53.3,5.42-68.96,1.76c-15.65-3.66-44.92,2.5-51.41,0.3
							c-6.48-2.2-2.3-37.15,0.2-44.99C1599.14,1814.1,1636.56,1820.93,1636.56,1820.93z"/>
					</g>
				</g>
			</g>
		</g>
		<g>
			<g>
				<g>
					<g>
						<path class="st44" d="M1638.38,1806.64l-1.83,14.29c0,0-29.33,5.48-38.21,0.97l2.2-14.85L1638.38,1806.64z"/>
					</g>
				</g>
			</g>
		</g>
		<g>
			<path class="st45" d="M1756.04,1318.58c-0.31,9.89-2.12,31.36-4.21,53.91c-0.47,5.01-0.96,10.08-1.44,15.08
				c-2.93,30.34-5.88,58.4-5.88,58.4c-3.71,24.15-11.35,66.08-19.89,97.78v0.01c-2.47,9.15-5,17.45-7.54,24.22
				c-2.48,6.59-4.96,11.74-7.37,14.82c-18.17,23.22-59.84,229.04-59.84,229.04l-56.88-0.43c0,0,12.51-139.37,25.08-174.7
				c14.03-39.46,38.4-92.63,32.35-130.68c-3.79-23.88-8.67-99.89-8.67-99.89s-4.75-85.41,17.58-147.97
				C1664.9,1242.53,1756.04,1318.58,1756.04,1318.58z"/>
		</g>
		<g>
			<g>
				<g>
					<g>
						<path class="st43" d="M1796.41,1826.27c0,0,21.78,13.23,31.65,18.17c9.87,4.94,48.45,6.78,52.22,10.45
							c3.77,3.67,2.23,15.19-4.18,16.29c-6.41,1.1-53.36,4.78-68.97,0.93c-15.61-3.85-44.95,1.96-51.4-0.32s-1.86-37.17,0.74-44.99
							S1796.41,1826.27,1796.41,1826.27z"/>
					</g>
				</g>
			</g>
		</g>
		<g>
			<g>
				<g>
					<g>
						<path class="st44" d="M1798.41,1812.01l-2,14.26c0,0-29.39,5.13-38.22,0.51l2.38-14.82L1798.41,1812.01z"/>
					</g>
				</g>
			</g>
		</g>
		<g>
			<path class="st45" d="M1730.41,1607.91c-1.48-45.52-5.5-75.76-17.21-102.06c-9.84-22.08-18.26-91.44-18.26-91.44
				s-26.66-81.27-21.26-147.49c1.35-16.54,104.4,25.04,104.4,25.04c2.25,9.64,9.15,39.98,11.59,62.48
				c13.95,128.57,8.73,212.32,8.73,212.32c-7.97,28.39,12.17,251.75,12.17,251.75h-58c0,0-15.21-79.46-16.8-128.87
				C1735.77,1689.64,1729.84,1615.78,1730.41,1607.91z"/>
		</g>
		<g>
			<g>
				<path class="st46" d="M1729.12,1018.87c0,0,27.02,44.3,34.92,69.02c7.9,24.72,1.54,96.6,2.93,111.04
					c4.33,44.82,10.63,94.16,10.63,94.16l-90.59,57.86c0,0-16.26-37.98-30.44-85.27c-14.18-47.29-15.32-89.87-15.19-118.32
					c0.42-89.24,48.65-139.63,48.65-139.63L1729.12,1018.87z"/>
			</g>
		</g>
		<g>
			<g>
				<path class="st21" d="M1762.41,900.05c0,0,18.57,19.88,13.33,25.11c-4.33,4.32,12.74,24.13,15.17,27.46
					c2.43,3.33-7.58,8.84-9.23,11.83s-0.68,34.17-9.27,37.37c-8.6,3.21-52.01-0.18-65.8-8.6c-13.79-8.42-36.04-56.96-34.44-80.32
					C1673.76,889.54,1729.74,865.38,1762.41,900.05z"/>
			</g>
		</g>
		<g>
			<g>
				<path class="st21" d="M1744.85,995.08c0,0-0.32,2.65-0.74,6.76c-0.16,1.72-0.37,3.68-0.56,5.83c-0.11,1.27-0.21,2.62-0.34,4
					c-0.03,0.37-0.08,0.74-0.11,1.11c-0.05,0.63-0.11,1.27-0.16,1.93c-0.21,2.99-0.42,6.09-0.58,9.17c-0.4,7.92-0.45,15.5,0.4,19.71
					c2.28,11.55-47.48-37.2-47.48-37.2s4.21-37.81,2.17-80.31C1695.38,883.59,1744.85,995.08,1744.85,995.08z"/>
			</g>
		</g>
		<g>
			<g>
				<path class="st47" d="M1766.22,904.41c0,0,8.79-20.73-18.31-35.12c-31.9-16.94-65.73,25.59-70.22,28.1
					c-4.49,2.51-24.89,25.46-4.92,55.89c25.19,38.4,23.86,37.11,23.86,37.11s2.53-28.32,2.36-33.79c-0.3-9.99,25.9-11.17,25.9-11.17
					s-10.76-14.32,1.2-20.75C1738.05,918.25,1752.05,903.01,1766.22,904.41z"/>
			</g>
		</g>
		<g>
			<g>
				<path class="st21" d="M1711.13,941.8c-1.91-2.68-8.91-14.51-17.91-4.12c-9,10.39,15.14,29.82,17.13,29.63
					C1712.35,967.11,1727.18,964.35,1711.13,941.8z"/>
			</g>
		</g>
		<g>
			<path class="st48" d="M1782.55,1312.2c0,0-4.51-21.19-5.38-24.36l-132.48,22.04l1.36,17.13
				C1646.05,1327,1741.5,1321.29,1782.55,1312.2z"/>
		</g>
		<g>
			<path class="st23" d="M1632.9,1218.83c0,0,20.35,87.9-11.52,190.43c-3.89,12.52,88.23-1.95,88.23-1.95L1632.9,1218.83z"/>
		</g>
		<g>
			<g>
				<path class="st23" d="M1749.92,1400.88c0,0-65.43,14.36-83.81,7.87c0,0-26.74-97.28-36.07-196.03
					c-0.72-7.63-1.34-15.26-1.83-22.86c0-0.02,0-0.02,0-0.02c-5.21-80.33,15.24-161.83,61.83-182.09
					c1.31,0.89,66.93,58.74,65.68,111.69c-0.09,3.58-0.14,7.18-0.16,10.78c-0.04,6.51,0.01,13.04,0.15,19.54l0.01,0.01
					c0.42,20.14,1.66,40.23,3.44,59.75c0.18,2.03,0.38,4.07,0.57,6.08c0.32,3.28,0.66,6.53,1,9.77c0.47,4.31,0.95,8.58,1.46,12.82
					C1772.78,1326.57,1749.92,1400.88,1749.92,1400.88z"/>
			</g>
		</g>
		<g>
			<path class="st49" d="M1747.24,1057.56c0,0,12.33,48.8,17.03,110.2c3.93,51.37,9.18,87.7,9.18,87.7l7.87,25.43l3.23-24.53
				c0,0-2.89-66.3-6.73-93.27c-3.88-27.19-5.57-61.71-27.31-106.49L1747.24,1057.56z"/>
		</g>
		<g>
			<path class="st49" d="M1745.86,1057.6c0,0,1.49,1.42,3.59,1.74s5.11-3.05-5.64-17.24L1745.86,1057.6z"/>
		</g>
		<g>
			<g>
				<path class="st50" d="M1695.85,1000.42c0,0,30.47,28.69,48.6,35.03l3.46,27.49l-57.87-55.18L1695.85,1000.42z"/>
			</g>
		</g>
		<g>
			<path class="st23" d="M1716.31,1111.51c-12.01-4.27-61.92-28.5-48.65-56.78c13.27-28.28,47.5-13.24,73.26-1.73
				c26.95,12.04,90.58,49.03,95.61,45.59c5.04-3.45,27.04-34.94,31.02-41.96c3.98-7.02,28-51.88,30.26-55.26
				c2.21-3.3,37.11,26,37.11,26s-62.66,111.28-79.52,128.99C1838.54,1174.07,1716.31,1111.51,1716.31,1111.51z"/>
		</g>
		<g>
			<path class="st43" d="M1724.62,1543.75L1724.62,1543.75c-2.47,9.16-5,17.45-7.54,24.22c-0.01-0.01-0.01-0.01-0.01-0.01
				l-19.84-118.35C1702.25,1460.84,1724.62,1543.75,1724.62,1543.75z"/>
		</g>
		<g>
			<path class="st51" d="M1755.7,1149.77l-57.41-46.89c15.21,8.15,52.58,25.22,57.26,27.35
				C1755.51,1136.73,1755.56,1143.26,1755.7,1149.77z"/>
		</g>
		<g>
			<path class="st29" d="M1744.1,1001.84c-0.16,1.72-0.37,3.68-0.56,5.83c-0.11,1.27-0.21,2.62-0.34,4
				c-19.02-1.27-33.73-16.43-34.63-17.35C1716.31,1000.46,1744.1,1001.84,1744.1,1001.84z"/>
		</g>
	</g>
	<g class="st52">
		
			<linearGradient id="SVGID_00000002350512404509792030000011339295194540963458_" gradientUnits="userSpaceOnUse" x1="2480.4268" y1="556.1541" x2="2519.7959" y2="556.1541">
			<stop  offset="0" style="stop-color:#D1D7E0"/>
			<stop  offset="1" style="stop-color:#EBEBFF"/>
		</linearGradient>
		<polygon style="fill:url(#SVGID_00000002350512404509792030000011339295194540963458_);" points="2489.65,565.72 2519.8,565.72 
			2510.57,546.59 2480.43,546.59 		"/>
		
			<linearGradient id="SVGID_00000158004664672795604310000006736201994366860464_" gradientUnits="userSpaceOnUse" x1="2466.3232" y1="556.1541" x2="2482.7314" y2="556.1541">
			<stop  offset="0" style="stop-color:#D1D7E0"/>
			<stop  offset="1" style="stop-color:#EBEBFF"/>
		</linearGradient>
		<polygon style="fill:url(#SVGID_00000158004664672795604310000006736201994366860464_);" points="2475.55,565.72 2482.73,565.72 
			2473.5,546.59 2466.32,546.59 		"/>
		
			<linearGradient id="SVGID_00000030461911753099762780000014821009167134639546_" gradientUnits="userSpaceOnUse" x1="2367.3574" y1="538.1484" x2="2493.4609" y2="538.1484">
			<stop  offset="0" style="stop-color:#D1D7E0"/>
			<stop  offset="1" style="stop-color:#EBEBFF"/>
		</linearGradient>
		<polygon style="fill:url(#SVGID_00000030461911753099762780000014821009167134639546_);" points="2371.41,542.93 2493.46,542.93 
			2489.41,533.36 2367.36,533.36 		"/>
	</g>
	<g>
		<g>
			
				<linearGradient id="SVGID_00000164484757213797531150000012055707059145951894_" gradientUnits="userSpaceOnUse" x1="1667.0264" y1="230.0457" x2="1718.7471" y2="230.0457">
				<stop  offset="0" style="stop-color:#D1D7E0"/>
				<stop  offset="1" style="stop-color:#EBEBFF"/>
			</linearGradient>
			<path style="fill:url(#SVGID_00000164484757213797531150000012055707059145951894_);" d="M1715.93,237.84h-46.09
				c-1.56,0-2.82-1.26-2.82-2.82v-9.95c0-1.56,1.26-2.82,2.82-2.82h46.09c1.56,0,2.82,1.26,2.82,2.82v9.95
				C1718.75,236.58,1717.49,237.84,1715.93,237.84z"/>
		</g>
		<g>
			
				<linearGradient id="SVGID_00000135690990885111133790000006567135148064993958_" gradientUnits="userSpaceOnUse" x1="1667.0264" y1="267.4216" x2="1718.7471" y2="267.4216">
				<stop  offset="0" style="stop-color:#D1D7E0"/>
				<stop  offset="1" style="stop-color:#EBEBFF"/>
			</linearGradient>
			<path style="fill:url(#SVGID_00000135690990885111133790000006567135148064993958_);" d="M1715.93,275.22h-46.09
				c-1.56,0-2.82-1.26-2.82-2.82v-9.95c0-1.56,1.26-2.82,2.82-2.82h46.09c1.56,0,2.82,1.26,2.82,2.82v9.95
				C1718.75,273.95,1717.49,275.22,1715.93,275.22z"/>
		</g>
		<g>
			
				<linearGradient id="SVGID_00000014607772258747502160000017825518580652551825_" gradientUnits="userSpaceOnUse" x1="1667.0264" y1="304.7976" x2="1718.7471" y2="304.7976">
				<stop  offset="0" style="stop-color:#D1D7E0"/>
				<stop  offset="1" style="stop-color:#EBEBFF"/>
			</linearGradient>
			<path style="fill:url(#SVGID_00000014607772258747502160000017825518580652551825_);" d="M1715.93,312.59h-46.09
				c-1.56,0-2.82-1.26-2.82-2.82v-9.95c0-1.56,1.26-2.82,2.82-2.82h46.09c1.56,0,2.82,1.26,2.82,2.82v9.95
				C1718.75,311.33,1717.49,312.59,1715.93,312.59z"/>
		</g>
		<g>
			
				<linearGradient id="SVGID_00000012458709901324834490000007661394665078762651_" gradientUnits="userSpaceOnUse" x1="1740.1025" y1="230.0457" x2="1754.8193" y2="230.0457">
				<stop  offset="0" style="stop-color:#D1D7E0"/>
				<stop  offset="1" style="stop-color:#EBEBFF"/>
			</linearGradient>
			<path style="fill:url(#SVGID_00000012458709901324834490000007661394665078762651_);" d="M1752,237.84h-9.08
				c-1.56,0-2.82-1.26-2.82-2.82v-9.95c0-1.56,1.26-2.82,2.82-2.82h9.08c1.56,0,2.82,1.26,2.82,2.82v9.95
				C1754.82,236.58,1753.56,237.84,1752,237.84z"/>
		</g>
		<g>
			
				<linearGradient id="SVGID_00000064352506529347800400000018278846802034446480_" gradientUnits="userSpaceOnUse" x1="1740.1025" y1="267.4216" x2="1754.8193" y2="267.4216">
				<stop  offset="0" style="stop-color:#D1D7E0"/>
				<stop  offset="1" style="stop-color:#EBEBFF"/>
			</linearGradient>
			<path style="fill:url(#SVGID_00000064352506529347800400000018278846802034446480_);" d="M1752,275.22h-9.08
				c-1.56,0-2.82-1.26-2.82-2.82v-9.95c0-1.56,1.26-2.82,2.82-2.82h9.08c1.56,0,2.82,1.26,2.82,2.82v9.95
				C1754.82,273.95,1753.56,275.22,1752,275.22z"/>
		</g>
		<g>
			
				<linearGradient id="SVGID_00000059305024312814436510000005982412980194920861_" gradientUnits="userSpaceOnUse" x1="1740.1025" y1="304.7976" x2="1754.8193" y2="304.7976">
				<stop  offset="0" style="stop-color:#D1D7E0"/>
				<stop  offset="1" style="stop-color:#EBEBFF"/>
			</linearGradient>
			<path style="fill:url(#SVGID_00000059305024312814436510000005982412980194920861_);" d="M1752,312.59h-9.08
				c-1.56,0-2.82-1.26-2.82-2.82v-9.95c0-1.56,1.26-2.82,2.82-2.82h9.08c1.56,0,2.82,1.26,2.82,2.82v9.95
				C1754.82,311.33,1753.56,312.59,1752,312.59z"/>
		</g>
	</g>
	<g>
		
			<linearGradient id="SVGID_00000065768989892509528340000014634584333817776532_" gradientUnits="userSpaceOnUse" x1="1503.1641" y1="1104.5342" x2="1573.8309" y2="1104.5342">
			<stop  offset="0" style="stop-color:#D1D7E0"/>
			<stop  offset="1" style="stop-color:#EBEBFF"/>
		</linearGradient>
		<polygon style="fill:url(#SVGID_00000065768989892509528340000014634584333817776532_);" points="1519.72,1121.71 
			1573.83,1121.71 1557.27,1087.36 1503.16,1087.36 		"/>
		
			<linearGradient id="SVGID_00000009551491254368012800000018064924985849482941_" gradientUnits="userSpaceOnUse" x1="1477.8467" y1="1104.5342" x2="1507.2998" y2="1104.5342">
			<stop  offset="0" style="stop-color:#D1D7E0"/>
			<stop  offset="1" style="stop-color:#EBEBFF"/>
		</linearGradient>
		<polygon style="fill:url(#SVGID_00000009551491254368012800000018064924985849482941_);" points="1494.41,1121.71 1507.3,1121.71 
			1490.74,1087.36 1477.85,1087.36 		"/>
	</g>
</g>
</svg>
