<?xml version="1.0" encoding="utf-8"?>
<!-- Generator: Adobe Illustrator 27.3.1, SVG Export Plug-In . SVG Version: 6.00 Build 0)  -->
<svg version="1.1" id="Layer_1" xmlns="http://www.w3.org/2000/svg" xmlns:xlink="http://www.w3.org/1999/xlink" x="0px" y="0px"
	 viewBox="0 0 450 450" style="enable-background:new 0 0 450 450;" xml:space="preserve">
<style type="text/css">
	.st0{display:none;}
	.st1{display:inline;fill:#F5EFEB;}
	.st2{fill:#282729;}
	.st3{fill:#4E4C4F;}
	.st4{fill:#F8B81A;}
	.st5{fill:#7AA343;}
	.st6{fill:#302F30;}
	.st7{fill:#3B393B;}
	.st8{fill:#B3B3B3;}
	.st9{fill:#787878;}
	.st10{fill:#50C0D8;}
	.st11{fill:#03AAB6;}
	.st12{fill:#FFFFFF;}
	.st13{fill:#D9D9D9;}
	.st14{fill:#CCCCCC;}
	.st15{fill:#F1A13E;}
	.st16{fill:#3E83F1;}
	.st17{fill:#DE7A00;}
	.st18{fill:#AD742D;}
	.st19{fill:#4BCDD6;}
	.st20{fill:#0F303F;}
	.st21{fill:#2C5871;}
	.st22{fill:#8DC63F;}
	.st23{fill:#FDA014;}
	.st24{fill:#FDC63A;}
	.st25{fill:#303030;}
	.st26{fill:#161616;}
	.st27{fill:#D0D1D6;}
	.st28{fill:#6A676B;}
	.st29{fill:#8E8E8E;}
	.st30{fill:#C1C1C1;}
	.st31{fill:#D1D1D1;}
	.st32{fill:#FFD37B;}
	.st33{fill:#9EB603;}
	.st34{fill:#C3D64B;}
</style>
<g class="st0">
	<rect class="st1" width="450" height="450"/>
</g>
<g>
	<g>
		<g>
			<path class="st2" d="M401.59,119.9c-0.04,0.42-0.1,0.69-0.16,0.69c-0.07,0-0.13-0.28-0.17-0.71c-0.54-0.04-1.09-0.06-1.65-0.09
				c-0.04,0.48-0.1,0.8-0.17,0.8c-0.08,0-0.14-0.33-0.18-0.82c-0.54-0.03-1.08-0.05-1.63-0.07c-0.04,0.53-0.1,0.9-0.18,0.9
				c-0.08,0-0.15-0.37-0.18-0.92c-0.54-0.02-1.08-0.04-1.63-0.06c-0.03,0.58-0.1,0.97-0.19,0.97c-0.08,0-0.15-0.4-0.19-0.99
				c-0.53-0.02-1.08-0.03-1.62-0.04c-0.03,0.6-0.11,1.02-0.19,1.02c-0.09,0-0.16-0.43-0.19-1.04c-0.53-0.01-1.07-0.02-1.61-0.03
				c-0.03,0.63-0.11,1.06-0.19,1.06c-0.09,0-0.16-0.44-0.19-1.07c-0.53-0.01-1.07-0.01-1.61-0.01c-0.03,0.64-0.11,1.08-0.19,1.08
				c-0.09,0-0.16-0.45-0.19-1.08c-0.27,0-0.54,0-0.8,0c-0.27,0-0.54,0-0.81,0c-0.03,0.64-0.11,1.08-0.19,1.08
				c-0.09,0-0.16-0.45-0.19-1.08c-0.54,0.01-1.08,0.01-1.61,0.01c-0.03,0.63-0.11,1.07-0.19,1.07c-0.09,0-0.16-0.43-0.19-1.06
				c-0.54,0.01-1.08,0.02-1.61,0.03c-0.03,0.61-0.11,1.04-0.19,1.04c-0.08,0-0.16-0.42-0.19-1.02c-0.55,0.01-1.09,0.02-1.62,0.04
				c-0.03,0.58-0.1,0.99-0.19,0.99c-0.08,0-0.15-0.4-0.18-0.97c-0.55,0.02-1.09,0.04-1.63,0.06c-0.04,0.54-0.1,0.92-0.18,0.92
				s-0.15-0.36-0.18-0.9c-0.55,0.02-1.1,0.05-1.63,0.07c-0.04,0.49-0.1,0.82-0.17,0.82c-0.08,0-0.14-0.32-0.18-0.8
				c-0.56,0.03-1.11,0.06-1.65,0.09c-0.04,0.43-0.1,0.71-0.17,0.71c-0.07,0-0.13-0.27-0.16-0.69c-8.53,0.56-14.31,1.63-14.31,2.87
				c0,1.8,12.28,3.26,27.44,3.26c15.15,0,27.43-1.46,27.43-3.26C415.9,121.54,410.12,120.46,401.59,119.9z"/>
		</g>
		<g>
			<path class="st2" d="M411.76,98.22c0-0.09,0.21-0.17,0.53-0.22v-1.37c0-0.29-0.6-0.52-1.34-0.52c-0.74,0-1.33,0.23-1.33,0.52V98
				c0.31,0.04,0.52,0.12,0.52,0.22c0,0.09-0.21,0.17-0.52,0.22v25.83h2.67V98.43C411.97,98.39,411.76,98.31,411.76,98.22z"/>
		</g>
		<g>
			<path class="st3" d="M415.14,143.24h-53.35c-2.11,0-3.81-1.71-3.81-3.81v-13.62c0-2.1,1.71-3.81,3.81-3.81h53.35
				c2.11,0,3.81,1.71,3.81,3.81v13.62C418.95,141.54,417.24,143.24,415.14,143.24z"/>
		</g>
		<g>
			<path class="st2" d="M420.7,137.51h-64.47c-0.42,0-0.76-0.34-0.76-0.76v-6.83c0-0.42,0.34-0.76,0.76-0.76h64.47
				c0.42,0,0.76,0.34,0.76,0.76v6.83C421.46,137.17,421.12,137.51,420.7,137.51z"/>
		</g>
		<g>
			<g>
				<path class="st4" d="M386.31,133.47c0,0.81-0.66,1.48-1.48,1.48c-0.82,0-1.48-0.66-1.48-1.48c0-0.81,0.66-1.48,1.48-1.48
					C385.65,131.99,386.31,132.65,386.31,133.47z"/>
			</g>
			<g>
				<path class="st4" d="M392.12,133.47c0,0.81-0.66,1.48-1.48,1.48c-0.81,0-1.47-0.66-1.47-1.48c0-0.81,0.66-1.48,1.47-1.48
					C391.46,131.99,392.12,132.65,392.12,133.47z"/>
			</g>
			<g>
				<path class="st4" d="M397.93,133.47c0,0.81-0.66,1.48-1.48,1.48c-0.82,0-1.48-0.66-1.48-1.48c0-0.81,0.66-1.48,1.48-1.48
					C397.27,131.99,397.93,132.65,397.93,133.47z"/>
			</g>
			<g>
				<path class="st4" d="M403.73,133.47c0,0.81-0.66,1.48-1.47,1.48c-0.82,0-1.48-0.66-1.48-1.48c0-0.81,0.66-1.48,1.48-1.48
					C403.07,131.99,403.73,132.65,403.73,133.47z"/>
			</g>
			<g>
				<path class="st4" d="M409.54,133.47c0,0.81-0.66,1.48-1.48,1.48c-0.81,0-1.47-0.66-1.47-1.48c0-0.81,0.66-1.48,1.47-1.48
					C408.88,131.99,409.54,132.65,409.54,133.47z"/>
			</g>
			<g>
				<g>
					<rect x="368.63" y="131.84" class="st5" width="0.62" height="1.69"/>
				</g>
				<g>
					<path class="st5" d="M369.56,131.91v0.6c0.23,0.19,0.38,0.47,0.38,0.79c0,0.56-0.46,1.02-1.02,1.02
						c-0.56,0-1.02-0.46-1.02-1.02c0-0.34,0.17-0.64,0.42-0.83v-0.59c-0.55,0.23-0.94,0.78-0.94,1.41c0,0.85,0.69,1.53,1.53,1.53
						c0.84,0,1.53-0.69,1.53-1.53C370.44,132.68,370.08,132.15,369.56,131.91z"/>
				</g>
			</g>
			<g>
				<g>
					<path class="st5" d="M378.15,133.33c0-0.12,0.05-0.22,0.13-0.3l-0.24-0.24c-0.14,0.14-0.22,0.33-0.22,0.54
						c0,0.21,0.09,0.4,0.22,0.54l0.24-0.24C378.2,133.55,378.15,133.45,378.15,133.33z"/>
				</g>
				<g>
					<path class="st5" d="M377.18,133.33c0-0.39,0.15-0.73,0.41-0.99l-0.24-0.24c-0.32,0.31-0.51,0.75-0.51,1.23
						c0,0.48,0.19,0.91,0.51,1.23l0.24-0.24C377.33,134.07,377.18,133.72,377.18,133.33z"/>
				</g>
				<g>
					<path class="st5" d="M376.16,133.33c0-0.67,0.27-1.27,0.71-1.71l-0.24-0.24c-0.5,0.5-0.81,1.19-0.81,1.95
						c0,0.76,0.31,1.45,0.81,1.95l0.24-0.24C376.42,134.6,376.16,134,376.16,133.33z"/>
				</g>
			</g>
		</g>
	</g>
	<g>
		<g>
			<path class="st3" d="M73.67,409.71H46.04c-1.5,0-2.72-1.22-2.72-2.72v-63.07c0-1.5,1.22-2.72,2.72-2.72h27.63
				c1.5,0,2.72,1.22,2.72,2.72v63.07C76.39,408.49,75.17,409.71,73.67,409.71z"/>
		</g>
		<g>
			<path class="st6" d="M76.39,406.99v-24.47c-2.66-5.54-9.06-9.45-16.53-9.45c-7.48,0-13.87,3.91-16.53,9.45v24.47
				c0,1.5,1.22,2.72,2.72,2.72h27.63C75.17,409.71,76.39,408.49,76.39,406.99z"/>
		</g>
		<g>
			<rect x="59.16" y="388.5" class="st5" width="1.4" height="21.21"/>
		</g>
		<g>
			<path class="st7" d="M59.86,389.03c-1.27,0-2.44-0.76-3.2-2.08l-1.73-2.99c-0.76-1.32-0.83-2.71-0.2-3.81
				c0.64-1.1,1.88-1.74,3.4-1.74h3.45c1.53,0,2.76,0.63,3.4,1.74c0.64,1.1,0.56,2.49-0.2,3.81l-1.73,2.99
				C62.29,388.27,61.13,389.03,59.86,389.03z"/>
		</g>
		<g>
			<path class="st4" d="M56.5,383.05l1.73,2.99c0.9,1.56,2.36,1.56,3.26,0l1.73-2.99c0.9-1.56,0.17-2.83-1.63-2.83h-3.45
				C56.33,380.23,55.6,381.49,56.5,383.05z"/>
		</g>
		<g>
			<rect x="45.33" y="345.78" class="st6" width="29.04" height="7.55"/>
		</g>
		<g>
			<rect x="45.33" y="354.49" class="st6" width="29.04" height="7.55"/>
		</g>
		<g>
			<g>
				<g>
					<rect x="48.48" y="364.18" class="st8" width="4.41" height="2.09"/>
				</g>
				<g>
					<rect x="48.48" y="364.18" class="st9" width="4.41" height="0.76"/>
				</g>
			</g>
			<g>
				<g>
					<rect x="55.28" y="364.18" class="st8" width="4.41" height="2.09"/>
				</g>
				<g>
					<rect x="55.28" y="364.18" class="st9" width="4.41" height="0.76"/>
				</g>
			</g>
			<g>
				<g>
					<path class="st6" d="M64.4,365.39c0,0.46-0.37,0.83-0.83,0.83c-0.46,0-0.83-0.37-0.83-0.83c0-0.46,0.37-0.83,0.83-0.83
						C64.03,364.56,64.4,364.93,64.4,365.39z"/>
				</g>
				<g>
					<circle class="st9" cx="63.57" cy="365.39" r="0.65"/>
				</g>
			</g>
			<g>
				<g>
					<path class="st6" d="M67.63,365.39c0,0.46-0.37,0.83-0.83,0.83c-0.46,0-0.83-0.37-0.83-0.83c0-0.46,0.37-0.83,0.83-0.83
						C67.26,364.56,67.63,364.93,67.63,365.39z"/>
				</g>
				<g>
					<path class="st9" d="M66.8,366.04c-0.36,0-0.65-0.29-0.65-0.65s0.29-0.65,0.65-0.65c0.36,0,0.65,0.29,0.65,0.65
						S67.16,366.04,66.8,366.04z"/>
				</g>
			</g>
			<g>
				<path class="st10" d="M71.23,365.39c0,0.36-0.29,0.65-0.65,0.65s-0.65-0.29-0.65-0.65s0.29-0.65,0.65-0.65
					S71.23,365.03,71.23,365.39z"/>
			</g>
		</g>
		<g>
			<rect x="70.58" y="355.78" class="st3" width="2.69" height="1.25"/>
		</g>
		<g>
			<rect x="70.58" y="346.99" class="st3" width="2.69" height="1.25"/>
		</g>
		<g>
			<path d="M43.32,406.14v0.85c0,1.5,1.22,2.72,2.72,2.72h27.63c1.5,0,2.72-1.22,2.72-2.72v-0.85H43.32z"/>
		</g>
	</g>
	<g>
		<g>
			<g>
				<path class="st10" d="M388.95,361.6c-0.54,0-0.97-0.44-0.97-0.97c0-0.71,0.02-6.96,0.85-9.17c1.21-3.23,4.3-3.69,7.03-4.09
					c3.42-0.51,5.36-0.97,5.36-4.4c0-0.54,0.43-0.98,0.98-0.98c0.54,0,0.97,0.44,0.97,0.98c0,5.27-3.9,5.85-7.02,6.32
					c-2.92,0.43-4.74,0.84-5.5,2.85c-0.6,1.6-0.73,6.67-0.73,8.49C389.92,361.16,389.49,361.6,388.95,361.6z"/>
			</g>
		</g>
		<g>
			<path class="st4" d="M372.6,379.69l-1.7,20.98c0,8.05,6.53,14.58,14.58,14.58h6.92c8.05,0,14.58-6.53,14.58-14.58l-1.7-20.98
				H372.6z"/>
		</g>
		<g>
			<g>
				<g>
					<path class="st11" d="M385.49,360.62c-8.05,0-12.52,6.53-12.52,14.58l-0.36,4.49h16.35v-19.07H385.49z"/>
				</g>
			</g>
			<g>
				<g>
					<path class="st11" d="M404.94,375.2c0-8.05-4.47-14.58-12.52-14.58h-3.46v19.07h16.35L404.94,375.2z"/>
				</g>
			</g>
		</g>
		<g>
			<path class="st3" d="M389.71,381.08h-1.52c-0.54,0-0.97-0.58-0.97-1.29v-11.38c0-0.71,0.44-1.3,0.97-1.3h1.52
				c0.54,0,0.97,0.58,0.97,1.3v11.38C390.68,380.5,390.25,381.08,389.71,381.08z"/>
		</g>
		<g>
			<g>
				<rect x="388.46" y="360.62" class="st3" width="0.98" height="6.49"/>
			</g>
		</g>
	</g>
	<g>
		<g>
			<path class="st3" d="M111.01,70.33H35.34c-2.04,0-3.69-1.65-3.69-3.68V41.34c0-2.04,1.65-3.69,3.69-3.69h75.67
				c2.04,0,3.69,1.65,3.69,3.69v25.31C114.7,68.68,113.05,70.33,111.01,70.33z"/>
		</g>
		<g>
			<g>
				<path class="st12" d="M41.78,46.67h-2.55c-0.41,0-0.74-0.33-0.74-0.74v-2.55c0-0.41,0.33-0.74,0.74-0.74h2.55
					c0.41,0,0.74,0.33,0.74,0.74v2.55C42.52,46.33,42.18,46.67,41.78,46.67z"/>
			</g>
			<g>
				<path class="st12" d="M48.28,46.67h-2.55c-0.41,0-0.74-0.33-0.74-0.74v-2.55c0-0.41,0.33-0.74,0.74-0.74h2.55
					c0.41,0,0.74,0.33,0.74,0.74v2.55C49.01,46.33,48.68,46.67,48.28,46.67z"/>
			</g>
			<g>
				<path class="st12" d="M54.77,46.67h-2.55c-0.41,0-0.74-0.33-0.74-0.74v-2.55c0-0.41,0.33-0.74,0.74-0.74h2.55
					c0.41,0,0.74,0.33,0.74,0.74v2.55C55.51,46.33,55.18,46.67,54.77,46.67z"/>
			</g>
			<g>
				<path class="st12" d="M61.27,46.67h-2.55c-0.41,0-0.74-0.33-0.74-0.74v-2.55c0-0.41,0.33-0.74,0.74-0.74h2.55
					c0.41,0,0.74,0.33,0.74,0.74v2.55C62.01,46.33,61.68,46.67,61.27,46.67z"/>
			</g>
			<g>
				<path class="st12" d="M67.77,46.67h-2.55c-0.41,0-0.74-0.33-0.74-0.74v-2.55c0-0.41,0.33-0.74,0.74-0.74h2.55
					c0.41,0,0.74,0.33,0.74,0.74v2.55C68.5,46.33,68.17,46.67,67.77,46.67z"/>
			</g>
			<g>
				<path class="st12" d="M74.26,46.67h-2.55c-0.41,0-0.74-0.33-0.74-0.74v-2.55c0-0.41,0.33-0.74,0.74-0.74h2.55
					c0.41,0,0.74,0.33,0.74,0.74v2.55C75,46.33,74.67,46.67,74.26,46.67z"/>
			</g>
			<g>
				<path class="st12" d="M80.76,46.67h-2.55c-0.41,0-0.74-0.33-0.74-0.74v-2.55c0-0.41,0.33-0.74,0.74-0.74h2.55
					c0.41,0,0.74,0.33,0.74,0.74v2.55C81.5,46.33,81.17,46.67,80.76,46.67z"/>
			</g>
			<g>
				<path class="st12" d="M87.26,46.67h-2.55c-0.41,0-0.73-0.33-0.73-0.74v-2.55c0-0.41,0.33-0.74,0.73-0.74h2.55
					c0.41,0,0.74,0.33,0.74,0.74v2.55C87.99,46.33,87.67,46.67,87.26,46.67z"/>
			</g>
			<g>
				<path class="st12" d="M93.76,46.67h-2.55c-0.41,0-0.74-0.33-0.74-0.74v-2.55c0-0.41,0.33-0.74,0.74-0.74h2.55
					c0.41,0,0.74,0.33,0.74,0.74v2.55C94.49,46.33,94.16,46.67,93.76,46.67z"/>
			</g>
			<g>
				<path class="st12" d="M100.25,46.67H97.7c-0.4,0-0.73-0.33-0.73-0.74v-2.55c0-0.41,0.33-0.74,0.73-0.74h2.55
					c0.41,0,0.73,0.33,0.73,0.74v2.55C100.99,46.33,100.66,46.67,100.25,46.67z"/>
			</g>
			<g>
				<path class="st12" d="M106.75,46.67h-2.55c-0.41,0-0.74-0.33-0.74-0.74v-2.55c0-0.41,0.33-0.74,0.74-0.74h2.55
					c0.41,0,0.74,0.33,0.74,0.74v2.55C107.49,46.33,107.16,46.67,106.75,46.67z"/>
			</g>
		</g>
		<g>
			<g>
				<g>
					<path class="st12" d="M38.8,53.06h-2.55c-0.41,0-0.74-0.33-0.74-0.74v-2.55c0-0.41,0.33-0.74,0.74-0.74h2.55
						c0.41,0,0.74,0.33,0.74,0.74v2.55C39.53,52.72,39.2,53.06,38.8,53.06z"/>
				</g>
				<g>
					<path class="st12" d="M45.29,53.06h-2.55c-0.41,0-0.74-0.33-0.74-0.74v-2.55c0-0.41,0.33-0.74,0.74-0.74h2.55
						c0.41,0,0.74,0.33,0.74,0.74v2.55C46.03,52.72,45.7,53.06,45.29,53.06z"/>
				</g>
				<g>
					<path class="st12" d="M51.79,53.06h-2.55c-0.41,0-0.74-0.33-0.74-0.74v-2.55c0-0.41,0.33-0.74,0.74-0.74h2.55
						c0.41,0,0.74,0.33,0.74,0.74v2.55C52.53,52.72,52.2,53.06,51.79,53.06z"/>
				</g>
				<g>
					<path class="st12" d="M58.29,53.06h-2.55c-0.41,0-0.74-0.33-0.74-0.74v-2.55c0-0.41,0.33-0.74,0.74-0.74h2.55
						c0.41,0,0.74,0.33,0.74,0.74v2.55C59.02,52.72,58.7,53.06,58.29,53.06z"/>
				</g>
				<g>
					<path class="st12" d="M64.78,53.06h-2.55c-0.41,0-0.74-0.33-0.74-0.74v-2.55c0-0.41,0.33-0.74,0.74-0.74h2.55
						c0.41,0,0.74,0.33,0.74,0.74v2.55C65.52,52.72,65.19,53.06,64.78,53.06z"/>
				</g>
				<g>
					<path class="st12" d="M71.28,53.06h-2.55c-0.41,0-0.74-0.33-0.74-0.74v-2.55c0-0.41,0.33-0.74,0.74-0.74h2.55
						c0.41,0,0.74,0.33,0.74,0.74v2.55C72.02,52.72,71.69,53.06,71.28,53.06z"/>
				</g>
				<g>
					<path class="st12" d="M77.78,53.06h-2.55c-0.41,0-0.74-0.33-0.74-0.74v-2.55c0-0.41,0.33-0.74,0.74-0.74h2.55
						c0.41,0,0.74,0.33,0.74,0.74v2.55C78.52,52.72,78.19,53.06,77.78,53.06z"/>
				</g>
				<g>
					<path class="st12" d="M84.28,53.06h-2.55c-0.41,0-0.74-0.33-0.74-0.74v-2.55c0-0.41,0.33-0.74,0.74-0.74h2.55
						c0.4,0,0.74,0.33,0.74,0.74v2.55C85.01,52.72,84.68,53.06,84.28,53.06z"/>
				</g>
				<g>
					<path class="st12" d="M90.77,53.06h-2.55c-0.41,0-0.74-0.33-0.74-0.74v-2.55c0-0.41,0.33-0.74,0.74-0.74h2.55
						c0.41,0,0.74,0.33,0.74,0.74v2.55C91.51,52.72,91.18,53.06,90.77,53.06z"/>
				</g>
				<g>
					<path class="st12" d="M97.27,53.06h-2.55c-0.41,0-0.74-0.33-0.74-0.74v-2.55c0-0.41,0.33-0.74,0.74-0.74h2.55
						c0.4,0,0.74,0.33,0.74,0.74v2.55C98.01,52.72,97.68,53.06,97.27,53.06z"/>
				</g>
				<g>
					<path class="st12" d="M103.77,53.06h-2.55c-0.4,0-0.74-0.33-0.74-0.74v-2.55c0-0.41,0.33-0.74,0.74-0.74h2.55
						c0.41,0,0.74,0.33,0.74,0.74v2.55C104.5,52.72,104.18,53.06,103.77,53.06z"/>
				</g>
			</g>
			<g>
				<g>
					<path class="st12" d="M38.8,59.45h-2.55c-0.41,0-0.74-0.33-0.74-0.74v-2.55c0-0.41,0.33-0.74,0.74-0.74h2.55
						c0.41,0,0.74,0.33,0.74,0.74v2.55C39.53,59.12,39.2,59.45,38.8,59.45z"/>
				</g>
				<g>
					<path class="st12" d="M45.29,59.45h-2.55c-0.41,0-0.74-0.33-0.74-0.74v-2.55c0-0.41,0.33-0.74,0.74-0.74h2.55
						c0.41,0,0.74,0.33,0.74,0.74v2.55C46.03,59.12,45.7,59.45,45.29,59.45z"/>
				</g>
				<g>
					<path class="st12" d="M51.79,59.45h-2.55c-0.41,0-0.74-0.33-0.74-0.74v-2.55c0-0.41,0.33-0.74,0.74-0.74h2.55
						c0.41,0,0.74,0.33,0.74,0.74v2.55C52.53,59.12,52.2,59.45,51.79,59.45z"/>
				</g>
				<g>
					<path class="st12" d="M58.29,59.45h-2.55c-0.41,0-0.74-0.33-0.74-0.74v-2.55c0-0.41,0.33-0.74,0.74-0.74h2.55
						c0.41,0,0.74,0.33,0.74,0.74v2.55C59.02,59.12,58.7,59.45,58.29,59.45z"/>
				</g>
				<g>
					<path class="st12" d="M64.78,59.45h-2.55c-0.41,0-0.74-0.33-0.74-0.74v-2.55c0-0.41,0.33-0.74,0.74-0.74h2.55
						c0.41,0,0.74,0.33,0.74,0.74v2.55C65.52,59.12,65.19,59.45,64.78,59.45z"/>
				</g>
				<g>
					<path class="st12" d="M71.28,59.45h-2.55c-0.41,0-0.74-0.33-0.74-0.74v-2.55c0-0.41,0.33-0.74,0.74-0.74h2.55
						c0.41,0,0.74,0.33,0.74,0.74v2.55C72.02,59.12,71.69,59.45,71.28,59.45z"/>
				</g>
				<g>
					<path class="st12" d="M77.78,59.45h-2.55c-0.41,0-0.74-0.33-0.74-0.74v-2.55c0-0.41,0.33-0.74,0.74-0.74h2.55
						c0.41,0,0.74,0.33,0.74,0.74v2.55C78.52,59.12,78.19,59.45,77.78,59.45z"/>
				</g>
				<g>
					<path class="st12" d="M84.28,59.45h-2.55c-0.41,0-0.74-0.33-0.74-0.74v-2.55c0-0.41,0.33-0.74,0.74-0.74h2.55
						c0.4,0,0.74,0.33,0.74,0.74v2.55C85.01,59.12,84.68,59.45,84.28,59.45z"/>
				</g>
				<g>
					<path class="st12" d="M90.77,59.45h-2.55c-0.41,0-0.74-0.33-0.74-0.74v-2.55c0-0.41,0.33-0.74,0.74-0.74h2.55
						c0.41,0,0.74,0.33,0.74,0.74v2.55C91.51,59.12,91.18,59.45,90.77,59.45z"/>
				</g>
				<g>
					<path class="st12" d="M97.27,59.45h-2.55c-0.41,0-0.74-0.33-0.74-0.74v-2.55c0-0.41,0.33-0.74,0.74-0.74h2.55
						c0.4,0,0.74,0.33,0.74,0.74v2.55C98.01,59.12,97.68,59.45,97.27,59.45z"/>
				</g>
				<g>
					<path class="st12" d="M103.77,59.45h-2.55c-0.4,0-0.74-0.33-0.74-0.74v-2.55c0-0.41,0.33-0.74,0.74-0.74h2.55
						c0.41,0,0.74,0.33,0.74,0.74v2.55C104.5,59.12,104.18,59.45,103.77,59.45z"/>
				</g>
				<g>
					<path class="st12" d="M110.25,53.06h-2.55c-0.41,0-0.74-0.33-0.74-0.74v-2.55c0-0.41,0.33-0.74,0.74-0.74h2.55
						c0.41,0,0.74,0.33,0.74,0.74v2.55C110.98,52.72,110.65,53.06,110.25,53.06z"/>
				</g>
				<g>
					<path class="st12" d="M110.25,59.45h-2.55c-0.41,0-0.74-0.33-0.74-0.74v-2.55c0-0.41,0.33-0.74,0.74-0.74h2.55
						c0.41,0,0.74,0.33,0.74,0.74v2.55C110.98,59.12,110.65,59.45,110.25,59.45z"/>
				</g>
			</g>
		</g>
		<g>
			<path class="st12" d="M41.78,65.83h-2.55c-0.41,0-0.74-0.33-0.74-0.74v-2.55c0-0.41,0.33-0.74,0.74-0.74h2.55
				c0.41,0,0.74,0.33,0.74,0.74v2.55C42.52,65.5,42.18,65.83,41.78,65.83z"/>
		</g>
		<g>
			<path class="st12" d="M48.28,65.83h-2.55c-0.41,0-0.74-0.33-0.74-0.74v-2.55c0-0.41,0.33-0.74,0.74-0.74h2.55
				c0.41,0,0.74,0.33,0.74,0.74v2.55C49.01,65.5,48.68,65.83,48.28,65.83z"/>
		</g>
		<g>
			<path class="st12" d="M54.77,65.83h-2.55c-0.41,0-0.74-0.33-0.74-0.74v-2.55c0-0.41,0.33-0.74,0.74-0.74h2.55
				c0.41,0,0.74,0.33,0.74,0.74v2.55C55.51,65.5,55.18,65.83,54.77,65.83z"/>
		</g>
		<g>
			<path class="st12" d="M74.54,65.83H58.72c-0.41,0-0.74-0.33-0.74-0.74v-2.55c0-0.41,0.33-0.74,0.74-0.74h15.82
				c0.41,0,0.74,0.33,0.74,0.74v2.55C75.28,65.5,74.95,65.83,74.54,65.83z"/>
		</g>
		<g>
			<path class="st12" d="M80.76,65.83h-2.55c-0.41,0-0.74-0.33-0.74-0.74v-2.55c0-0.41,0.33-0.74,0.74-0.74h2.55
				c0.41,0,0.74,0.33,0.74,0.74v2.55C81.5,65.5,81.17,65.83,80.76,65.83z"/>
		</g>
		<g>
			<path class="st12" d="M87.26,65.83h-2.55c-0.41,0-0.73-0.33-0.73-0.74v-2.55c0-0.41,0.33-0.74,0.73-0.74h2.55
				c0.41,0,0.74,0.33,0.74,0.74v2.55C87.99,65.5,87.67,65.83,87.26,65.83z"/>
		</g>
		<g>
			<path class="st12" d="M93.76,65.83h-2.55c-0.41,0-0.74-0.33-0.74-0.74v-2.55c0-0.41,0.33-0.74,0.74-0.74h2.55
				c0.41,0,0.74,0.33,0.74,0.74v2.55C94.49,65.5,94.16,65.83,93.76,65.83z"/>
		</g>
		<g>
			<path class="st12" d="M100.25,65.83H97.7c-0.4,0-0.73-0.33-0.73-0.74v-2.55c0-0.41,0.33-0.74,0.73-0.74h2.55
				c0.41,0,0.73,0.33,0.73,0.74v2.55C100.99,65.5,100.66,65.83,100.25,65.83z"/>
		</g>
		<g>
			<path class="st12" d="M106.75,65.83h-2.55c-0.41,0-0.74-0.33-0.74-0.74v-2.55c0-0.41,0.33-0.74,0.74-0.74h2.55
				c0.41,0,0.74,0.33,0.74,0.74v2.55C107.49,65.5,107.16,65.83,106.75,65.83z"/>
		</g>
		<g>
			<rect x="70.23" y="35.93" class="st3" width="5.53" height="1.72"/>
		</g>
	</g>
	<g>
		<g>
			<polygon class="st13" points="401.05,25.77 401.05,26.16 399.58,26.16 399.58,25.77 398.66,25.77 398.66,26.16 397.19,26.16 
				397.19,25.77 396.27,25.77 396.27,26.16 394.8,26.16 394.8,25.77 393.87,25.77 393.87,26.16 392.41,26.16 392.41,25.77 
				391.48,25.77 391.48,26.16 390.02,26.16 390.02,25.77 389.09,25.77 389.09,26.16 387.62,26.16 387.62,25.77 386.7,25.77 
				386.7,26.16 385.23,26.16 385.23,25.77 384.31,25.77 384.31,26.16 382.84,26.16 382.84,25.77 381.07,25.77 381.07,43.25 
				402.82,43.25 402.82,25.77 			"/>
		</g>
		<g>
			<path class="st4" d="M401.65,58.4h-19.42c-2.15,0-2.33-1.74-2.33-3.88V43.25h24.08v11.26C403.99,56.66,403.8,58.4,401.65,58.4z"
				/>
		</g>
		<g>
			<rect x="382.84" y="34.51" class="st14" width="18.21" height="7.8"/>
		</g>
		<g>
			<g>
				<rect x="382.84" y="34.51" class="st15" width="1.44" height="8.74"/>
			</g>
			<g>
				<rect x="385.25" y="34.51" class="st15" width="1.44" height="8.74"/>
			</g>
			<g>
				<rect x="387.64" y="34.51" class="st5" width="1.43" height="8.74"/>
			</g>
			<g>
				<rect x="390.03" y="34.51" class="st16" width="1.43" height="8.74"/>
			</g>
			<g>
				<rect x="392.42" y="34.51" class="st16" width="1.44" height="8.74"/>
			</g>
			<g>
				<rect x="394.81" y="34.51" class="st5" width="1.44" height="8.74"/>
			</g>
			<g>
				<rect x="397.21" y="34.51" class="st17" width="1.44" height="8.74"/>
			</g>
			<g>
				<rect x="399.6" y="34.51" class="st17" width="1.44" height="8.74"/>
			</g>
		</g>
		<g>
			<rect x="382.84" y="32.98" class="st8" width="18.21" height="1.53"/>
		</g>
		<g>
			<rect x="382.84" y="40.78" class="st13" width="18.21" height="1.53"/>
		</g>
		<g>
			<g>
				<path class="st8" d="M384.31,31.21c0,0.41-0.33,0.73-0.73,0.73l0,0c-0.41,0-0.74-0.33-0.74-0.73v-3.42
					c0-0.41,0.33-0.73,0.74-0.73l0,0c0.4,0,0.73,0.33,0.73,0.73V31.21z"/>
			</g>
			<g>
				<path class="st8" d="M386.7,31.21c0,0.41-0.33,0.73-0.73,0.73l0,0c-0.4,0-0.73-0.33-0.73-0.73v-3.42c0-0.41,0.33-0.73,0.73-0.73
					l0,0c0.4,0,0.73,0.33,0.73,0.73V31.21z"/>
			</g>
			<g>
				<path class="st8" d="M389.09,31.21c0,0.41-0.33,0.73-0.73,0.73l0,0c-0.4,0-0.73-0.33-0.73-0.73v-3.42
					c0-0.41,0.33-0.73,0.73-0.73l0,0c0.41,0,0.73,0.33,0.73,0.73V31.21z"/>
			</g>
			<g>
				<path class="st8" d="M391.48,31.21c0,0.41-0.33,0.73-0.73,0.73l0,0c-0.41,0-0.73-0.33-0.73-0.73v-3.42
					c0-0.41,0.33-0.73,0.73-0.73l0,0c0.4,0,0.73,0.33,0.73,0.73V31.21z"/>
			</g>
			<g>
				<path class="st8" d="M393.87,31.21c0,0.41-0.33,0.73-0.73,0.73l0,0c-0.41,0-0.73-0.33-0.73-0.73v-3.42
					c0-0.41,0.33-0.73,0.73-0.73l0,0c0.41,0,0.73,0.33,0.73,0.73V31.21z"/>
			</g>
			<g>
				<path class="st8" d="M396.27,31.21c0,0.41-0.33,0.73-0.73,0.73l0,0c-0.41,0-0.73-0.33-0.73-0.73v-3.42
					c0-0.41,0.33-0.73,0.73-0.73l0,0c0.4,0,0.73,0.33,0.73,0.73V31.21z"/>
			</g>
			<g>
				<path class="st8" d="M398.66,31.21c0,0.41-0.33,0.73-0.73,0.73l0,0c-0.41,0-0.73-0.33-0.73-0.73v-3.42
					c0-0.41,0.33-0.73,0.73-0.73l0,0c0.41,0,0.73,0.33,0.73,0.73V31.21z"/>
			</g>
			<g>
				<path class="st8" d="M401.05,31.21c0,0.41-0.33,0.73-0.73,0.73l0,0c-0.4,0-0.73-0.33-0.73-0.73v-3.42
					c0-0.41,0.33-0.73,0.73-0.73l0,0c0.4,0,0.73,0.33,0.73,0.73V31.21z"/>
			</g>
		</g>
		<g>
			<polygon class="st18" points="399.61,74.07 384.28,74.07 381.07,58.4 402.82,58.4 			"/>
		</g>
		<g>
			<rect x="384.28" y="74.07" class="st4" width="15.31" height="6.99"/>
		</g>
		<g>
			<rect x="380.29" y="59.82" class="st4" width="23.3" height="1.56"/>
		</g>
		<g>
			<rect x="381.07" y="62.7" class="st4" width="21.75" height="1.55"/>
		</g>
		<g>
			<rect x="381.81" y="65.57" class="st4" width="20.27" height="1.55"/>
		</g>
		<g>
			<rect x="382.84" y="68.45" class="st4" width="18.21" height="1.56"/>
		</g>
		<g>
			<rect x="383.49" y="71.33" class="st4" width="16.91" height="1.55"/>
		</g>
		<g>
			<rect x="390.98" y="61.38" class="st4" width="1.92" height="4.98"/>
		</g>
		<g>
			<rect x="390.98" y="69.23" class="st4" width="1.92" height="4.98"/>
		</g>
		<g>
			<rect x="401.05" y="32.98" class="st8" width="1.77" height="10.27"/>
		</g>
		<g>
			<rect x="381.07" y="32.98" class="st8" width="1.77" height="10.27"/>
		</g>
	</g>
	<g>
		<g>
			<path class="st4" d="M374.94,182.27c1.37-4.74,3.29-8.49,5.57-10.79c-7.1,1.33-13.29,5.27-17.53,10.79H374.94z"/>
		</g>
		<g>
			<path class="st4" d="M357.06,199.08h15.64c0.05-5.41,0.66-10.43,1.71-14.77h-12.85C358.82,188.59,357.18,193.65,357.06,199.08z"
				/>
		</g>
		<g>
			<path class="st4" d="M385.8,171c-2.75,0-5.52,2.95-7.61,8.09c-0.41,1-0.78,2.07-1.12,3.19h17.45c-0.34-1.12-0.71-2.19-1.12-3.19
				C391.32,173.94,388.55,171,385.8,171z"/>
		</g>
		<g>
			<path class="st4" d="M391.09,171.48c2.27,2.3,4.2,6.05,5.57,10.79h11.96C404.38,176.75,398.19,172.81,391.09,171.48z"/>
		</g>
		<g>
			<path class="st4" d="M395.09,184.31h-18.58c-1.11,4.4-1.73,9.46-1.78,14.77h22.13C396.82,193.77,396.2,188.71,395.09,184.31z"/>
		</g>
		<g>
			<path class="st4" d="M395.09,215.19c1.06-4.21,1.67-9.02,1.76-14.08h-22.12c0.09,5.06,0.71,9.88,1.77,14.08H395.09z"/>
		</g>
		<g>
			<path class="st4" d="M374.41,215.19c-1.01-4.15-1.61-8.93-1.7-14.08h-15.63c0.24,5.16,1.85,9.98,4.47,14.08H374.41z"/>
		</g>
		<g>
			<path class="st4" d="M414.52,201.11h-15.63c-0.09,5.15-0.69,9.93-1.7,14.08h12.85C412.67,211.09,414.28,206.27,414.52,201.11z"/>
		</g>
		<g>
			<path class="st4" d="M410.05,184.31H397.2c1.05,4.33,1.66,9.35,1.71,14.77h15.64C414.42,193.65,412.79,188.59,410.05,184.31z"/>
		</g>
		<g>
			<path class="st4" d="M385.8,228.51c2.75,0,5.52-2.95,7.61-8.09c0.41-1.01,0.78-2.07,1.12-3.19h-17.45
				c0.34,1.12,0.71,2.19,1.12,3.19C380.28,225.56,383.05,228.51,385.8,228.51z"/>
		</g>
		<g>
			<path class="st4" d="M380.51,228.01c-2.27-2.3-4.2-6.05-5.57-10.79h-11.96C367.22,222.74,373.41,226.69,380.51,228.01z"/>
		</g>
		<g>
			<path class="st4" d="M396.66,217.23c-1.37,4.73-3.29,8.49-5.57,10.79c7.1-1.33,13.29-5.27,17.52-10.79H396.66z"/>
		</g>
	</g>
	<g>
		<g>
			<path class="st19" d="M378.23,270.57c-1.03-0.37-2.14-0.59-3.31-0.59c-4.78,0-8.74,3.45-9.56,8c-7.24,0.38-13,6.37-13,13.71
				c0,7.29,5.67,13.24,12.84,13.7l0,0.03h21.44v-44.49C382.55,262.68,379.42,266.22,378.23,270.57z"/>
		</g>
		<g>
			<path class="st11" d="M413.77,286.56c-0.75-4.18-3.27-7.75-6.76-9.91c0.11-0.71,0.16-1.45,0.16-2.19
				c0-8.13-6.59-14.73-14.73-14.73c-2.06,0-4.02,0.43-5.8,1.19v44.49h23.82c5.37,0,9.72-4.35,9.72-9.72
				C420.19,291.48,417.51,287.91,413.77,286.56z"/>
		</g>
		<g>
			<path class="st20" d="M415.15,285.41c-0.92-3.85-3.22-7.25-6.45-9.54c0.04-0.47,0.06-0.94,0.06-1.41c0-9-7.32-16.32-16.32-16.32
				c-2,0-3.95,0.36-5.8,1.07v3.46c0.21-0.1,0.41-0.2,0.63-0.29c1.64-0.71,3.39-1.07,5.18-1.07c7.25,0,13.14,5.9,13.14,13.14
				c0,0.65-0.05,1.31-0.15,1.96l-0.15,1.03l0.89,0.55c3.17,1.96,5.38,5.18,6.04,8.84l0.16,0.9l0.86,0.31
				c3.21,1.16,5.37,4.24,5.37,7.64c0,4.49-3.65,8.14-8.14,8.14h-23.82V307h23.82c6.24,0,11.31-5.07,11.31-11.31
				C421.77,291.26,419.15,287.23,415.15,285.41z"/>
		</g>
		<g>
			<path class="st21" d="M365.76,303.83l-0.46-0.03c-6.37-0.4-11.36-5.73-11.36-12.11c0-6.46,5.05-11.79,11.5-12.13l1.26-0.06
				l0.22-1.24c0.7-3.88,4.06-6.69,8-6.69c0.93,0,1.86,0.17,2.77,0.49l1.62,0.59l0.46-1.66c0.98-3.6,3.53-6.66,6.87-8.32v-3.46
				c-0.21,0.08-0.42,0.16-0.63,0.25c-4.04,1.74-7.24,5.1-8.81,9.16c-0.75-0.16-1.51-0.24-2.28-0.24c-5.06,0-9.44,3.34-10.84,8.11
				c-7.55,0.99-13.31,7.44-13.31,15.19c0,7.54,5.5,13.89,12.79,15.11c0,0,0.58,0.1,0.78,0.1c5.43,0.2,22.3,0.11,22.3,0.11v-3.17
				H365.76z"/>
		</g>
		<g>
			<g>
				<polygon class="st22" points="370.01,316.63 370.01,303.3 364.98,303.3 374.77,293.52 384.55,303.3 379.53,303.3 379.53,316.63 
									"/>
			</g>
			<g>
				<path class="st12" d="M374.77,294.42l8.25,8.25h-4.13V316h-4.13h-4.12v-13.33h-4.13L374.77,294.42L374.77,294.42z
					 M374.77,292.62l-0.9,0.9l-8.25,8.25l-2.17,2.17h3.07h2.86V316v1.27h1.27h4.12h4.13h1.27V316v-12.06h2.86h3.07l-2.17-2.17
					l-8.25-8.25L374.77,292.62L374.77,292.62z"/>
			</g>
		</g>
		<g>
			<g>
				<polygon class="st23" points="391.01,306.58 396.03,306.58 396.03,293.25 405.55,293.25 405.55,306.58 410.58,306.58 
					400.79,316.37 				"/>
			</g>
			<g>
				<path class="st12" d="M404.92,293.89v13.33h4.13l-8.25,8.25l-8.25-8.25h4.12v-13.33h4.13H404.92L404.92,293.89z M406.19,292.62
					h-1.27h-4.12h-4.13h-1.27v1.27v12.06h-2.86h-3.07l2.17,2.17l8.25,8.25l0.9,0.9l0.9-0.9l8.25-8.25l2.17-2.17h-3.06h-2.86v-12.06
					V292.62L406.19,292.62z"/>
			</g>
		</g>
	</g>
	<g>
		<g>
			<path class="st21" d="M165.99,69.16c2.72-0.47,5.56-0.72,8.48-0.72v-3.32c-3.22,0-6.34,0.29-9.32,0.83
				c-0.58-2.66-0.95-5.64-1.05-8.89h10.37v-3.32H164.1c0.09-3.25,0.47-6.23,1.05-8.89c2.98,0.54,6.1,0.83,9.32,0.83v-3.32
				c-2.92,0-5.76-0.25-8.48-0.72c2.01-6.45,5.32-10.3,8.48-10.3v-3.32c-8.31,0-15.76,3.72-20.78,9.59
				c-0.72,0.84-1.39,1.72-2.01,2.65c-2.89,4.34-4.58,9.55-4.58,15.14c0,5.6,1.69,10.8,4.58,15.14c0.62,0.93,1.29,1.81,2.01,2.65
				c5.02,5.86,12.48,9.59,20.78,9.59v-3.32C171.3,79.45,168,75.61,165.99,69.16z M166.77,32.61c-1.62,2.16-2.99,5.01-4,8.35
				c-2.07-0.51-4.05-1.15-5.92-1.91C159.54,36.14,162.94,33.9,166.77,32.61z M154.7,41.71c2.26,0.99,4.69,1.8,7.23,2.44
				c-0.65,2.94-1.05,6.17-1.15,9.58h-10.31C150.78,49.29,152.3,45.17,154.7,41.71z M150.47,57.05h10.31c0.1,3.42,0.5,6.64,1.15,9.58
				c-2.54,0.63-4.96,1.45-7.23,2.44C152.3,65.61,150.78,61.5,150.47,57.05z M156.85,71.74c1.87-0.76,3.85-1.4,5.92-1.91
				c1.02,3.33,2.38,6.18,4,8.35C162.94,76.88,159.54,74.64,156.85,71.74z"/>
		</g>
		<g>
			<path class="st20" d="M197.26,40.25c-0.62-0.93-1.29-1.81-2.01-2.65c-5.02-5.86-12.47-9.59-20.78-9.59v3.32
				c3.16,0,6.47,3.84,8.48,10.3c-2.72,0.47-5.56,0.72-8.48,0.72v3.32c3.21,0,6.34-0.29,9.32-0.83c0.58,2.66,0.95,5.64,1.05,8.89
				h-10.37v3.32h10.37c-0.1,3.25-0.47,6.23-1.05,8.89c-2.98-0.54-6.11-0.83-9.32-0.83v3.32c2.92,0,5.76,0.25,8.48,0.72
				c-2.01,6.45-5.32,10.29-8.48,10.29v3.32c8.31,0,15.76-3.73,20.78-9.59c0.72-0.84,1.39-1.72,2.01-2.65
				c2.89-4.34,4.58-9.55,4.58-15.14C201.84,49.8,200.15,44.59,197.26,40.25z M198.46,53.73h-10.31c-0.1-3.41-0.5-6.64-1.15-9.58
				c2.54-0.63,4.96-1.45,7.23-2.44C196.64,45.17,198.16,49.29,198.46,53.73z M182.17,32.61c3.83,1.3,7.23,3.54,9.92,6.44
				c-1.87,0.76-3.85,1.4-5.92,1.91C185.15,37.62,183.79,34.77,182.17,32.61z M182.17,78.18c1.62-2.16,2.99-5.01,4-8.35
				c2.07,0.51,4.05,1.15,5.92,1.91C189.39,74.64,186,76.88,182.17,78.18z M194.24,69.07c-2.27-0.99-4.69-1.8-7.23-2.44
				c0.65-2.94,1.05-6.17,1.15-9.58h10.31C198.16,61.5,196.64,65.61,194.24,69.07z"/>
		</g>
	</g>
	<g>
		<g>
			<g>
				<path class="st20" d="M257.84,29.24h-10.35v52.53h10.35c2.09,0,3.79-1.7,3.79-3.79V33.03
					C261.62,30.93,259.93,29.24,257.84,29.24z"/>
			</g>
			<g>
				<path class="st21" d="M237.13,29.24c-2.09,0-3.79,1.7-3.79,3.79v44.95c0,2.09,1.7,3.79,3.79,3.79h10.36V29.24H237.13z"/>
			</g>
		</g>
		<g>
			<rect x="241.73" y="31.34" class="st12" width="11.5" height="0.95"/>
		</g>
		<g>
			<g>
				<path class="st12" d="M247.48,80.3c-1.72,0-3.13-1.4-3.13-3.12c0-1.72,1.4-3.12,3.13-3.12c1.72,0,3.12,1.4,3.12,3.12
					C250.61,78.9,249.21,80.3,247.48,80.3z M247.48,74.73c-1.35,0-2.45,1.09-2.45,2.44c0,1.35,1.1,2.44,2.45,2.44
					c1.35,0,2.44-1.1,2.44-2.44C249.93,75.83,248.83,74.73,247.48,74.73z"/>
			</g>
		</g>
		<g>
			<g>
				<rect x="234.71" y="34.94" class="st19" width="12.91" height="37.23"/>
			</g>
			<g>
				<rect x="247.62" y="34.94" class="st11" width="12.63" height="37.23"/>
			</g>
		</g>
	</g>
	<g>
		<g>
			<g>
				<rect x="67.36" y="100.92" class="st23" width="29.41" height="37.04"/>
			</g>
			<g>
				<rect x="37.96" y="100.92" class="st24" width="29.4" height="37.04"/>
			</g>
			<g>
				<path class="st21" d="M67.36,137.96h-29.4v-37.04h29.4V96.7H38.92c-1.77,0-3.2,1.43-3.2,3.2v41.71h31.64V137.96z"/>
			</g>
			<g>
				<path class="st20" d="M96.77,100.92v37.04H67.36v3.65h31.64V99.89c0-1.77-1.43-3.2-3.2-3.2H67.36v4.22H96.77z"/>
			</g>
		</g>
		<g>
			<rect x="31.57" y="140.66" class="st20" width="3.68" height="0.95"/>
		</g>
		<g>
			<rect x="36.91" y="140.66" class="st20" width="4.63" height="0.95"/>
		</g>
		<g>
			<rect x="68.34" y="140.66" class="st21" width="3.17" height="0.95"/>
		</g>
		<g>
			<rect x="73.68" y="140.66" class="st21" width="4.63" height="0.95"/>
		</g>
		<g>
			<rect x="80" y="140.66" class="st21" width="4.63" height="0.95"/>
		</g>
		<g>
			<rect x="86.32" y="140.66" class="st21" width="4.63" height="0.95"/>
		</g>
		<g>
			<rect x="92.63" y="140.66" class="st21" width="4.63" height="0.95"/>
		</g>
		<g>
			<rect x="99.3" y="140.66" class="st21" width="3.92" height="0.95"/>
		</g>
		<g>
			<rect x="43.06" y="140.66" class="st20" width="22.72" height="0.95"/>
		</g>
		<g>
			<path class="st21" d="M27.36,141.61v0.15c0,1.84,1.49,3.33,3.32,3.33h36.68v-3.48H27.36z"/>
		</g>
		<g>
			<path class="st20" d="M67.36,141.61v3.48h36.68c1.84,0,3.32-1.49,3.32-3.33v-0.15H67.36z"/>
		</g>
		<g>
			<path class="st22" d="M66.44,98.84c0-0.51,0.41-0.93,0.93-0.93c0.51,0,0.92,0.42,0.92,0.93c0,0.51-0.41,0.93-0.92,0.93
				C66.85,99.77,66.44,99.35,66.44,98.84z"/>
		</g>
		<g>
			<path class="st20" d="M62.66,98.84c0-0.37,0.3-0.68,0.68-0.68c0.37,0,0.67,0.31,0.67,0.68c0,0.38-0.3,0.68-0.67,0.68
				C62.96,99.52,62.66,99.22,62.66,98.84z"/>
		</g>
	</g>
	<g>
		<g>
			<path class="st20" d="M60.3,233.81c0,1.37,1.12,2.49,2.49,2.49v-4.99C61.42,231.31,60.3,232.43,60.3,233.81z"/>
		</g>
		<g>
			<path class="st21" d="M65.29,233.81c0-1.38-1.12-2.49-2.49-2.49h0v4.99h0C64.17,236.3,65.29,235.18,65.29,233.81z"/>
		</g>
		<g>
			<path class="st21" d="M59.61,233.81c0-1.76,1.43-3.19,3.19-3.19v-1.22H40.32v-51.59H62.8v-1.31h-4.17
				c-0.19,0-0.35-0.16-0.35-0.35c0-0.19,0.16-0.35,0.35-0.35h4.17v-1.11c-0.28,0-0.5-0.23-0.5-0.5c0-0.28,0.22-0.5,0.5-0.5v-0.91
				H40.77c-1.67,0-3.02,1.35-3.02,3.02v59.64c0,1.67,1.35,3.02,3.02,3.02H62.8v-1.46C61.04,236.99,59.61,235.56,59.61,233.81z"/>
		</g>
		<g>
			<path class="st20" d="M84.82,172.79H62.8v0.91l0,0c0.28,0,0.5,0.23,0.5,0.5c0,0.28-0.23,0.5-0.5,0.5l0,0v1.11h4.17
				c0.19,0,0.35,0.16,0.35,0.35c0,0.2-0.16,0.35-0.35,0.35H62.8v1.31h22.48v51.59H62.8v1.22h0c1.76,0,3.19,1.43,3.19,3.19
				c0,1.76-1.43,3.19-3.19,3.19h0v1.46h22.02c1.67,0,3.02-1.35,3.02-3.02V175.8C87.84,174.14,86.49,172.79,84.82,172.79z"/>
		</g>
		<g>
			<rect x="62.8" y="177.82" class="st11" width="22.48" height="51.59"/>
		</g>
		<g>
			<rect x="40.32" y="177.82" class="st19" width="22.47" height="51.59"/>
		</g>
		<g>
			<path class="st12" d="M66.97,176.51c0.19,0,0.35-0.16,0.35-0.35c0-0.19-0.16-0.35-0.35-0.35H62.8v0.7H66.97z"/>
		</g>
		<g>
			<path class="st12" d="M58.27,176.16c0,0.2,0.16,0.35,0.35,0.35h4.17v-0.7h-4.17C58.43,175.81,58.27,175.96,58.27,176.16z"/>
		</g>
		<g>
			<path class="st22" d="M62.29,174.2c0,0.28,0.22,0.5,0.5,0.5v-1.01C62.52,173.69,62.29,173.92,62.29,174.2z"/>
		</g>
		<g>
			<path class="st22" d="M62.8,174.7c0.28,0,0.5-0.23,0.5-0.5c0-0.28-0.23-0.5-0.5-0.5l0,0V174.7L62.8,174.7z"/>
		</g>
		<g>
			<path class="st12" d="M59.61,233.81c0,1.76,1.43,3.19,3.19,3.19v-0.69c-1.38,0-2.49-1.12-2.49-2.49c0-1.38,1.12-2.49,2.49-2.49
				v-0.69C61.04,230.62,59.61,232.05,59.61,233.81z"/>
		</g>
		<g>
			<path class="st12" d="M62.8,231.31c1.38,0,2.49,1.12,2.49,2.49c0,1.38-1.12,2.49-2.49,2.49h0v0.69h0c1.76,0,3.19-1.43,3.19-3.19
				c0-1.76-1.43-3.19-3.19-3.19h0L62.8,231.31L62.8,231.31z"/>
		</g>
	</g>
	<g>
		<g>
			<polygon class="st21" points="132.54,398.21 132.54,402.77 125.72,402.77 125.72,404.96 109.97,404.96 109.97,408.6 
				125.72,408.6 125.72,410.67 132.54,410.67 134.93,410.67 134.93,408.6 134.93,404.96 134.93,402.77 134.93,398.21 			"/>
		</g>
		<g>
			<polygon class="st20" points="144.14,404.96 144.14,402.77 137.32,402.77 137.32,398.21 134.93,398.21 134.93,402.77 
				134.93,404.96 134.93,408.6 134.93,410.67 137.32,410.67 144.14,410.67 144.14,408.6 159.89,408.6 159.89,404.96 			"/>
		</g>
		<g>
			<path class="st21" d="M134.93,360.09v-3.33h-22.44c-1.39,0-2.52,1.13-2.52,2.52v36.4c0,1.39,1.13,2.52,2.52,2.52h20.04h2.39
				v-1.89v-4.38h-23.19v-31.84H134.93z"/>
		</g>
		<g>
			<path class="st20" d="M157.37,356.77h-22.44v3.33h23.19v31.84h-23.19v4.38v1.89h2.39h20.04c1.39,0,2.52-1.13,2.52-2.52v-36.4
				C159.89,357.9,158.76,356.77,157.37,356.77z"/>
		</g>
		<g>
			<rect x="134.93" y="360.09" class="st23" width="23.19" height="31.84"/>
		</g>
		<g>
			<rect x="111.74" y="360.09" class="st24" width="23.19" height="31.84"/>
		</g>
		<g>
			<rect x="132.54" y="398.21" class="st20" width="4.79" height="2.3"/>
		</g>
	</g>
	<g>
		<g>
			<g>
				<path class="st21" d="M45.77,305.53c-6.8-12-5.7-23.47-5.7-23.47s5.74-1.57,11.36-4.4c4.95-2.5,9.36-7.07,9.36-7.07v-4.31
					c0,0-5.18,5.37-11,8.31c-6.6,3.33-13.35,5.17-13.35,5.17s-1.3,13.48,6.7,27.58c7.67,13.54,17.65,16.8,17.65,16.8v-4.31
					C60.8,319.83,52.31,317.05,45.77,305.53z"/>
			</g>
			<g>
				<path class="st20" d="M85.15,279.75c0,0-6.74-1.84-13.35-5.17c-5.82-2.93-11-8.31-11-8.31v4.31c0,0,4.41,4.57,9.36,7.07
					c5.62,2.83,11.36,4.4,11.36,4.4s1.11,11.47-5.7,23.47c-6.53,11.52-15.02,14.3-15.02,14.3v4.31c0,0,9.98-3.26,17.65-16.8
					C86.45,293.23,85.15,279.75,85.15,279.75z"/>
			</g>
			<g>
				<path class="st11" d="M75.82,305.53c6.8-12,5.7-23.47,5.7-23.47s-5.74-1.57-11.36-4.4c-4.95-2.5-9.36-7.07-9.36-7.07v49.24
					C60.8,319.83,69.29,317.05,75.82,305.53z"/>
			</g>
			<g>
				<path class="st19" d="M51.43,277.66c-5.62,2.83-11.36,4.4-11.36,4.4s-1.11,11.47,5.7,23.47c6.53,11.52,15.02,14.3,15.02,14.3
					v-49.24C60.8,270.59,56.39,275.16,51.43,277.66z"/>
			</g>
		</g>
		<g>
			<g>
				<g>
					<path class="st24" d="M63.77,289.28c-1.38,0.55-2.98,0.02-3.74-1.3c-0.76-1.32-0.42-2.97,0.74-3.89
						c-1.15-1.08-2.55-1.9-4.1-2.37c-0.21,1.46-1.47,2.59-3,2.59c-1.52,0-2.78-1.13-3-2.59c-1.55,0.47-2.94,1.29-4.1,2.37
						c1.16,0.92,1.5,2.57,0.74,3.89c-0.76,1.32-2.37,1.85-3.74,1.3c-0.18,0.76-0.28,1.55-0.28,2.37c0,0.82,0.1,1.61,0.28,2.37
						c1.37-0.55,2.98-0.02,3.74,1.3c0.76,1.32,0.42,2.97-0.74,3.89c1.15,1.08,2.55,1.9,4.1,2.37c0.22-1.47,1.47-2.59,3-2.59
						c1.52,0,2.78,1.12,3,2.59c1.55-0.47,2.95-1.29,4.1-2.37c-1.16-0.92-1.5-2.57-0.74-3.89c0.76-1.32,2.36-1.85,3.74-1.3
						c0.18-0.76,0.27-1.55,0.27-2.37C64.04,290.83,63.95,290.04,63.77,289.28z M53.68,295.84c-2.31,0-4.19-1.88-4.19-4.19
						c0-2.31,1.88-4.19,4.19-4.19c2.31,0,4.19,1.88,4.19,4.19C57.87,293.96,55.99,295.84,53.68,295.84z"/>
				</g>
				<g>
					<path class="st12" d="M53.68,288.34c-1.83,0-3.31,1.48-3.31,3.31c0,1.83,1.48,3.31,3.31,3.31c1.83,0,3.31-1.48,3.31-3.31
						C56.99,289.82,55.51,288.34,53.68,288.34z"/>
				</g>
			</g>
			<g>
				<g>
					<path class="st24" d="M73.92,300.05c0-1.14,0.84-2.08,1.94-2.24c-0.35-1.16-0.96-2.2-1.77-3.06c-0.69,0.87-1.92,1.12-2.9,0.55
						c-0.99-0.57-1.38-1.77-0.97-2.79c-0.57-0.13-1.16-0.2-1.77-0.2c-0.61,0-1.2,0.07-1.77,0.2c0.41,1.03,0.01,2.23-0.97,2.79
						c-0.99,0.57-2.22,0.31-2.91-0.55c-0.81,0.86-1.42,1.9-1.77,3.06c1.09,0.16,1.93,1.1,1.93,2.24c0,1.14-0.84,2.08-1.93,2.24
						c0.35,1.16,0.96,2.2,1.77,3.06c0.69-0.87,1.92-1.12,2.91-0.55c0.99,0.57,1.38,1.77,0.97,2.79c0.57,0.13,1.16,0.21,1.77,0.21
						c0.61,0,1.2-0.07,1.77-0.21c-0.41-1.03-0.01-2.22,0.97-2.8c0.98-0.57,2.22-0.31,2.9,0.56c0.81-0.86,1.42-1.9,1.77-3.06
						C74.76,302.13,73.92,301.19,73.92,300.05z M68.44,303.18c-1.73,0-3.13-1.4-3.13-3.13c0-1.73,1.4-3.13,3.13-3.13
						c1.73,0,3.13,1.4,3.13,3.13C71.57,301.78,70.17,303.18,68.44,303.18z"/>
				</g>
				<g>
					<path class="st12" d="M68.44,297.58c-1.37,0-2.47,1.11-2.47,2.47c0,1.37,1.11,2.47,2.47,2.47c1.36,0,2.47-1.11,2.47-2.47
						C70.91,298.69,69.81,297.58,68.44,297.58z"/>
				</g>
			</g>
		</g>
	</g>
	<g>
		<g>
			<path class="st11" d="M223.27,401.96c0,3.39-2.74,6.13-6.13,6.13c-3.39,0-6.13-2.74-6.13-6.13c0-3.39,2.74-6.13,6.13-6.13
				C220.52,395.83,223.27,398.57,223.27,401.96z"/>
		</g>
		<g>
			<g>
				<path class="st19" d="M232.38,392.66c-0.42,0-0.84-0.1-1.23-0.3c-4.03-2.05-8.87-3.13-14-3.13c-5.13,0-9.98,1.08-14,3.13
					c-1.34,0.68-2.99,0.15-3.67-1.2c-0.68-1.34-0.15-2.99,1.2-3.67c4.79-2.43,10.49-3.72,16.48-3.72c5.99,0,11.68,1.29,16.48,3.72
					c1.34,0.68,1.88,2.33,1.2,3.67C234.33,392.12,233.37,392.66,232.38,392.66z"/>
			</g>
			<g>
				<path class="st19" d="M239.55,381.75c-0.45,0-0.91-0.11-1.33-0.35c-5.84-3.27-13.32-5.07-21.08-5.07
					c-7.76,0-15.25,1.8-21.08,5.07c-1.31,0.73-2.98,0.27-3.72-1.05c-0.74-1.31-0.27-2.98,1.05-3.72c6.64-3.72,15.07-5.77,23.75-5.77
					c8.68,0,17.12,2.05,23.75,5.77c1.32,0.74,1.78,2.4,1.05,3.72C241.43,381.25,240.51,381.75,239.55,381.75z"/>
			</g>
			<g>
				<path class="st11" d="M239.55,381.75c-0.45,0-0.91-0.11-1.33-0.35c-5.84-3.27-13.32-5.07-21.08-5.07
					c-7.76,0-15.25,1.8-21.08,5.07c-1.31,0.73-2.98,0.27-3.72-1.05c-0.74-1.31-0.27-2.98,1.05-3.72c6.64-3.72,15.07-5.77,23.75-5.77
					c8.68,0,17.12,2.05,23.75,5.77c1.32,0.74,1.78,2.4,1.05,3.72C241.43,381.25,240.51,381.75,239.55,381.75z"/>
			</g>
			<g>
				<path class="st19" d="M247.91,369.03c-0.49,0-0.99-0.13-1.44-0.41c-7.91-4.92-18.33-7.63-29.34-7.63
					c-11.01,0-21.43,2.71-29.34,7.63c-1.28,0.8-2.96,0.41-3.76-0.88c-0.8-1.28-0.4-2.96,0.88-3.76c8.76-5.45,20.21-8.45,32.22-8.45
					c12.01,0,23.46,3,32.22,8.45c1.28,0.8,1.67,2.48,0.88,3.76C249.72,368.58,248.82,369.03,247.91,369.03z"/>
			</g>
		</g>
	</g>
	<g>
		<g>
			<g>
				<g>
					
						<rect x="304.55" y="35.97" transform="matrix(0.8291 -0.559 0.559 0.8291 30.8843 178.3526)" class="st4" width="5.35" height="5.36"/>
				</g>
				<g>
					<g>
						<path class="st25" d="M321.17,71.32c-0.82,0-1.55-0.6-1.68-1.44c-1.64-10.23-5.27-18.88-11.12-26.45
							c-0.58-0.74-0.44-1.81,0.31-2.39c0.74-0.58,1.81-0.44,2.39,0.31c6.2,8.04,10.05,17.19,11.78,28c0.15,0.93-0.48,1.8-1.41,1.95
							C321.35,71.32,321.26,71.32,321.17,71.32z"/>
					</g>
				</g>
				<g>
					<path class="st26" d="M315.3,44.41l-3.92-5.91c-0.04,0.03-0.09,0.07-0.13,0.1l-5.4,3.59c-0.1,0.07-0.21,0.12-0.31,0.18
						l3.93,5.92c0.45,0.67,1.35,0.85,2.03,0.41l3.4-2.26C315.57,45.98,315.75,45.08,315.3,44.41z"/>
				</g>
			</g>
			<g>
				<g>
					<rect x="322.3" y="28.53" class="st4" width="5.36" height="5.35"/>
				</g>
				<g>
					<g>
						<path class="st25" d="M324.97,71.32c-0.94,0-1.7-0.76-1.7-1.7V38.49c0-0.94,0.76-1.7,1.7-1.7c0.94,0,1.7,0.76,1.7,1.7v31.13
							C326.67,70.56,325.91,71.32,324.97,71.32z"/>
					</g>
				</g>
				<g>
					<path class="st26" d="M327.77,33.2h-5.6c-0.25,0-0.49-0.04-0.7-0.1v8.05c0,0.81,0.65,1.46,1.46,1.46h4.08
						c0.81,0,1.46-0.65,1.46-1.46V33.1C328.25,33.16,328.01,33.2,327.77,33.2z"/>
				</g>
			</g>
			<g>
				<g>
					
						<rect x="290.91" y="49.6" transform="matrix(0.3655 -0.9308 0.9308 0.3655 137.6179 306.4472)" class="st4" width="5.36" height="5.36"/>
				</g>
				<g>
					<g>
						<path class="st25" d="M317.1,71.32c-0.65,0-1.27-0.37-1.55-1.01c-3.08-6.86-8.21-11.42-15.68-13.92
							c-0.89-0.3-1.37-1.26-1.07-2.16c0.3-0.89,1.26-1.38,2.16-1.08c8.3,2.78,14.26,8.08,17.7,15.76c0.39,0.86,0,1.87-0.86,2.25
							C317.57,71.27,317.33,71.32,317.1,71.32z"/>
					</g>
				</g>
				<g>
					<path class="st26" d="M304.59,52.74l-7.81-2.97c-0.03,0.17-0.08,0.33-0.14,0.5l-2.19,5.76c-0.04,0.1-0.09,0.2-0.13,0.29
						l7.79,2.96c0.75,0.29,1.6-0.09,1.89-0.85l1.45-3.81C305.72,53.87,305.34,53.03,304.59,52.74z"/>
				</g>
			</g>
			<g>
				<g>
					
						<rect x="339.99" y="35.97" transform="matrix(0.559 -0.8292 0.8292 0.559 119.0625 301.1675)" class="st4" width="5.36" height="5.36"/>
				</g>
				<g>
					<g>
						<path class="st25" d="M328.72,71.32c0.82,0,1.55-0.6,1.68-1.44c1.64-10.23,5.27-18.88,11.12-26.45
							c0.58-0.74,0.44-1.81-0.31-2.39c-0.75-0.58-1.82-0.44-2.39,0.31c-6.2,8.04-10.05,17.19-11.78,28
							c-0.15,0.93,0.48,1.8,1.41,1.95C328.54,71.32,328.64,71.32,328.72,71.32z"/>
					</g>
				</g>
				<g>
					<path class="st26" d="M334.59,44.41l3.92-5.91c0.04,0.03,0.08,0.07,0.13,0.1l5.4,3.59c0.1,0.07,0.21,0.12,0.31,0.18l-3.93,5.92
						c-0.45,0.67-1.35,0.85-2.03,0.41l-3.4-2.26C334.33,45.98,334.15,45.08,334.59,44.41z"/>
				</g>
			</g>
			<g>
				<g>
					
						<rect x="353.63" y="49.6" transform="matrix(0.9307 -0.3658 0.3658 0.9307 5.5718 133.9685)" class="st4" width="5.35" height="5.36"/>
				</g>
				<g>
					<g>
						<path class="st25" d="M332.79,71.32c0.65,0,1.27-0.37,1.55-1.01c3.08-6.86,8.21-11.42,15.68-13.92
							c0.89-0.3,1.37-1.26,1.07-2.16c-0.3-0.89-1.26-1.38-2.16-1.08c-8.31,2.78-14.26,8.08-17.7,15.76c-0.38,0.86,0,1.87,0.86,2.25
							C332.32,71.27,332.56,71.32,332.79,71.32z"/>
					</g>
				</g>
				<g>
					<path class="st26" d="M345.3,52.74l7.81-2.97c0.03,0.17,0.08,0.33,0.14,0.5l2.19,5.76c0.04,0.1,0.09,0.2,0.14,0.29l-7.79,2.96
						c-0.75,0.29-1.6-0.09-1.89-0.85l-1.45-3.81C344.17,53.87,344.55,53.03,345.3,52.74z"/>
				</g>
			</g>
		</g>
		<g>
			<path class="st4" d="M336.24,78.24c0,0.95-0.78,1.73-1.73,1.73h-19.04c-0.96,0-1.73-0.78-1.73-1.73v-9.99
				c0-0.96,0.78-1.73,1.73-1.73h19.04c0.96,0,1.73,0.77,1.73,1.73V78.24z"/>
		</g>
	</g>
	<g>
		<g>
			<g>
				<g>
					<g>
						<path class="st2" d="M127.46,223.95v-78.13c0-2.86,2.31-5.17,5.17-5.17h115.56c2.85,0,5.16,2.31,5.16,5.17v78.13H127.46z"/>
					</g>
					<g>
						<rect x="127.46" y="223.95" class="st27" width="125.89" height="13.11"/>
					</g>
					<g>
						<g>
							<path class="st27" d="M253.35,145.82c0-2.86-2.31-5.17-5.16-5.17H132.62c-2.86,0-5.17,2.31-5.17,5.17v6.16h125.89V145.82z"/>
						</g>
						<g>
							<rect x="127.46" y="151.98" class="st2" width="125.89" height="71.97"/>
						</g>
					</g>
					<g>
						<g>
							<path class="st2" d="M238.89,233.14h-1.19c-0.96,0-1.72-0.77-1.72-1.72v-1.19c0-0.95,0.77-1.72,1.72-1.72h1.19
								c0.95,0,1.72,0.77,1.72,1.72v1.19C240.62,232.37,239.84,233.14,238.89,233.14z"/>
						</g>
					</g>
					<g>
						<g>
							<polygon class="st28" points="216.48,237.05 164.33,237.05 169.83,243.74 210.97,243.74 							"/>
						</g>
						<g>
							<polygon class="st3" points="169.83,243.74 175.34,250.43 205.46,250.43 210.97,243.74 							"/>
						</g>
					</g>
					<g>
						<path class="st2" d="M163.28,253.45c0,0,0-1.06,0-2.37c0-1.31,12.15-2.38,27.12-2.38c14.97,0,27.12,1.06,27.12,2.38v2.37
							H163.28z"/>
					</g>
				</g>
				<g>
					<rect x="179.1" y="229.5" class="st2" width="22.61" height="2.81"/>
				</g>
			</g>
			<g>
				<g>
					<path class="st3" d="M237.61,309.34h-93.6c-2.52,0-4.56-2.04-4.56-4.56v-31.3c0-2.52,2.04-4.56,4.56-4.56h93.6
						c2.52,0,4.56,2.04,4.56,4.56v31.3C242.17,307.3,240.13,309.34,237.61,309.34z"/>
				</g>
				<g>
					<g>
						<path class="st12" d="M151.97,280.08h-3.15c-0.51,0-0.91-0.41-0.91-0.91v-3.15c0-0.5,0.41-0.92,0.91-0.92h3.15
							c0.5,0,0.91,0.41,0.91,0.92v3.15C152.88,279.66,152.48,280.08,151.97,280.08z"/>
					</g>
					<g>
						<path class="st12" d="M160.01,280.08h-3.15c-0.5,0-0.91-0.41-0.91-0.91v-3.15c0-0.5,0.41-0.92,0.91-0.92h3.15
							c0.5,0,0.91,0.41,0.91,0.92v3.15C160.92,279.66,160.51,280.08,160.01,280.08z"/>
					</g>
					<g>
						<path class="st12" d="M168.04,280.08h-3.15c-0.5,0-0.91-0.41-0.91-0.91v-3.15c0-0.5,0.41-0.92,0.91-0.92h3.15
							c0.5,0,0.91,0.41,0.91,0.92v3.15C168.96,279.66,168.55,280.08,168.04,280.08z"/>
					</g>
					<g>
						<path class="st12" d="M176.08,280.08h-3.15c-0.5,0-0.91-0.41-0.91-0.91v-3.15c0-0.5,0.41-0.92,0.91-0.92h3.15
							c0.5,0,0.91,0.41,0.91,0.92v3.15C176.99,279.66,176.58,280.08,176.08,280.08z"/>
					</g>
					<g>
						<path class="st12" d="M184.11,280.08h-3.15c-0.5,0-0.91-0.41-0.91-0.91v-3.15c0-0.5,0.41-0.92,0.91-0.92h3.15
							c0.5,0,0.91,0.41,0.91,0.92v3.15C185.03,279.66,184.62,280.08,184.11,280.08z"/>
					</g>
					<g>
						<path class="st12" d="M192.15,280.08H189c-0.5,0-0.91-0.41-0.91-0.91v-3.15c0-0.5,0.41-0.92,0.91-0.92h3.15
							c0.5,0,0.91,0.41,0.91,0.92v3.15C193.06,279.66,192.66,280.08,192.15,280.08z"/>
					</g>
					<g>
						<path class="st12" d="M200.19,280.08h-3.15c-0.5,0-0.91-0.41-0.91-0.91v-3.15c0-0.5,0.41-0.92,0.91-0.92h3.15
							c0.5,0,0.91,0.41,0.91,0.92v3.15C201.1,279.66,200.69,280.08,200.19,280.08z"/>
					</g>
					<g>
						<path class="st12" d="M208.22,280.08h-3.15c-0.5,0-0.91-0.41-0.91-0.91v-3.15c0-0.5,0.41-0.92,0.91-0.92h3.15
							c0.51,0,0.91,0.41,0.91,0.92v3.15C209.13,279.66,208.73,280.08,208.22,280.08z"/>
					</g>
					<g>
						<path class="st12" d="M216.26,280.08h-3.15c-0.5,0-0.91-0.41-0.91-0.91v-3.15c0-0.5,0.41-0.92,0.91-0.92h3.15
							c0.5,0,0.91,0.41,0.91,0.92v3.15C217.17,279.66,216.76,280.08,216.26,280.08z"/>
					</g>
					<g>
						<path class="st12" d="M224.3,280.08h-3.16c-0.5,0-0.91-0.41-0.91-0.91v-3.15c0-0.5,0.41-0.92,0.91-0.92h3.16
							c0.51,0,0.91,0.41,0.91,0.92v3.15C225.21,279.66,224.8,280.08,224.3,280.08z"/>
					</g>
					<g>
						<path class="st12" d="M232.33,280.08h-3.15c-0.5,0-0.91-0.41-0.91-0.91v-3.15c0-0.5,0.41-0.92,0.91-0.92h3.15
							c0.5,0,0.91,0.41,0.91,0.92v3.15C233.25,279.66,232.84,280.08,232.33,280.08z"/>
					</g>
				</g>
				<g>
					<g>
						<g>
							<path class="st12" d="M148.28,287.98h-3.15c-0.51,0-0.91-0.41-0.91-0.91v-3.15c0-0.51,0.41-0.91,0.91-0.91h3.15
								c0.5,0,0.91,0.41,0.91,0.91v3.15C149.2,287.57,148.79,287.98,148.28,287.98z"/>
						</g>
						<g>
							<path class="st12" d="M156.32,287.98h-3.15c-0.5,0-0.91-0.41-0.91-0.91v-3.15c0-0.51,0.41-0.91,0.91-0.91h3.15
								c0.5,0,0.91,0.41,0.91,0.91v3.15C157.23,287.57,156.82,287.98,156.32,287.98z"/>
						</g>
						<g>
							<path class="st12" d="M164.36,287.98h-3.15c-0.5,0-0.91-0.41-0.91-0.91v-3.15c0-0.51,0.41-0.91,0.91-0.91h3.15
								c0.5,0,0.91,0.41,0.91,0.91v3.15C165.27,287.57,164.86,287.98,164.36,287.98z"/>
						</g>
						<g>
							<path class="st12" d="M172.39,287.98h-3.15c-0.5,0-0.91-0.41-0.91-0.91v-3.15c0-0.51,0.41-0.91,0.91-0.91h3.15
								c0.5,0,0.91,0.41,0.91,0.91v3.15C173.3,287.57,172.9,287.98,172.39,287.98z"/>
						</g>
						<g>
							<path class="st12" d="M180.43,287.98h-3.15c-0.5,0-0.91-0.41-0.91-0.91v-3.15c0-0.51,0.41-0.91,0.91-0.91h3.15
								c0.5,0,0.91,0.41,0.91,0.91v3.15C181.34,287.57,180.93,287.98,180.43,287.98z"/>
						</g>
						<g>
							<path class="st12" d="M188.46,287.98h-3.15c-0.5,0-0.91-0.41-0.91-0.91v-3.15c0-0.51,0.41-0.91,0.91-0.91h3.15
								c0.5,0,0.91,0.41,0.91,0.91v3.15C189.38,287.57,188.97,287.98,188.46,287.98z"/>
						</g>
						<g>
							<path class="st12" d="M196.5,287.98h-3.15c-0.5,0-0.91-0.41-0.91-0.91v-3.15c0-0.51,0.41-0.91,0.91-0.91h3.15
								c0.5,0,0.91,0.41,0.91,0.91v3.15C197.41,287.57,197,287.98,196.5,287.98z"/>
						</g>
						<g>
							<path class="st12" d="M204.54,287.98h-3.15c-0.5,0-0.91-0.41-0.91-0.91v-3.15c0-0.51,0.41-0.91,0.91-0.91h3.15
								c0.5,0,0.91,0.41,0.91,0.91v3.15C205.45,287.57,205.04,287.98,204.54,287.98z"/>
						</g>
						<g>
							<path class="st12" d="M212.57,287.98h-3.15c-0.5,0-0.91-0.41-0.91-0.91v-3.15c0-0.51,0.41-0.91,0.91-0.91h3.15
								c0.5,0,0.91,0.41,0.91,0.91v3.15C213.48,287.57,213.07,287.98,212.57,287.98z"/>
						</g>
						<g>
							<path class="st12" d="M220.61,287.98h-3.15c-0.5,0-0.91-0.41-0.91-0.91v-3.15c0-0.51,0.41-0.91,0.91-0.91h3.15
								c0.5,0,0.91,0.41,0.91,0.91v3.15C221.52,287.57,221.11,287.98,220.61,287.98z"/>
						</g>
						<g>
							<path class="st12" d="M228.64,287.98h-3.16c-0.5,0-0.91-0.41-0.91-0.91v-3.15c0-0.51,0.41-0.91,0.91-0.91h3.16
								c0.5,0,0.91,0.41,0.91,0.91v3.15C229.55,287.57,229.15,287.98,228.64,287.98z"/>
						</g>
					</g>
					<g>
						<g>
							<path class="st12" d="M148.28,295.88h-3.15c-0.51,0-0.91-0.41-0.91-0.91v-3.16c0-0.51,0.41-0.91,0.91-0.91h3.15
								c0.5,0,0.91,0.41,0.91,0.91v3.16C149.2,295.48,148.79,295.88,148.28,295.88z"/>
						</g>
						<g>
							<path class="st12" d="M156.32,295.88h-3.15c-0.5,0-0.91-0.41-0.91-0.91v-3.16c0-0.51,0.41-0.91,0.91-0.91h3.15
								c0.5,0,0.91,0.41,0.91,0.91v3.16C157.23,295.48,156.82,295.88,156.32,295.88z"/>
						</g>
						<g>
							<path class="st12" d="M164.36,295.88h-3.15c-0.5,0-0.91-0.41-0.91-0.91v-3.16c0-0.51,0.41-0.91,0.91-0.91h3.15
								c0.5,0,0.91,0.41,0.91,0.91v3.16C165.27,295.48,164.86,295.88,164.36,295.88z"/>
						</g>
						<g>
							<path class="st12" d="M172.39,295.88h-3.15c-0.5,0-0.91-0.41-0.91-0.91v-3.16c0-0.51,0.41-0.91,0.91-0.91h3.15
								c0.5,0,0.91,0.41,0.91,0.91v3.16C173.3,295.48,172.9,295.88,172.39,295.88z"/>
						</g>
						<g>
							<path class="st12" d="M180.43,295.88h-3.15c-0.5,0-0.91-0.41-0.91-0.91v-3.16c0-0.51,0.41-0.91,0.91-0.91h3.15
								c0.5,0,0.91,0.41,0.91,0.91v3.16C181.34,295.48,180.93,295.88,180.43,295.88z"/>
						</g>
						<g>
							<path class="st12" d="M188.46,295.88h-3.15c-0.5,0-0.91-0.41-0.91-0.91v-3.16c0-0.51,0.41-0.91,0.91-0.91h3.15
								c0.5,0,0.91,0.41,0.91,0.91v3.16C189.38,295.48,188.97,295.88,188.46,295.88z"/>
						</g>
						<g>
							<path class="st12" d="M196.5,295.88h-3.15c-0.5,0-0.91-0.41-0.91-0.91v-3.16c0-0.51,0.41-0.91,0.91-0.91h3.15
								c0.5,0,0.91,0.41,0.91,0.91v3.16C197.41,295.48,197,295.88,196.5,295.88z"/>
						</g>
						<g>
							<path class="st12" d="M204.54,295.88h-3.15c-0.5,0-0.91-0.41-0.91-0.91v-3.16c0-0.51,0.41-0.91,0.91-0.91h3.15
								c0.5,0,0.91,0.41,0.91,0.91v3.16C205.45,295.48,205.04,295.88,204.54,295.88z"/>
						</g>
						<g>
							<path class="st12" d="M212.57,295.88h-3.15c-0.5,0-0.91-0.41-0.91-0.91v-3.16c0-0.51,0.41-0.91,0.91-0.91h3.15
								c0.5,0,0.91,0.41,0.91,0.91v3.16C213.48,295.48,213.07,295.88,212.57,295.88z"/>
						</g>
						<g>
							<path class="st12" d="M220.61,295.88h-3.15c-0.5,0-0.91-0.41-0.91-0.91v-3.16c0-0.51,0.41-0.91,0.91-0.91h3.15
								c0.5,0,0.91,0.41,0.91,0.91v3.16C221.52,295.48,221.11,295.88,220.61,295.88z"/>
						</g>
						<g>
							<path class="st12" d="M228.64,295.88h-3.16c-0.5,0-0.91-0.41-0.91-0.91v-3.16c0-0.51,0.41-0.91,0.91-0.91h3.16
								c0.5,0,0.91,0.41,0.91,0.91v3.16C229.55,295.48,229.15,295.88,228.64,295.88z"/>
						</g>
						<g>
							<path class="st12" d="M236.66,287.98h-3.15c-0.5,0-0.92-0.41-0.92-0.91v-3.15c0-0.51,0.41-0.91,0.92-0.91h3.15
								c0.5,0,0.91,0.41,0.91,0.91v3.15C237.57,287.57,237.16,287.98,236.66,287.98z"/>
						</g>
						<g>
							<path class="st12" d="M236.66,295.88h-3.15c-0.5,0-0.92-0.41-0.92-0.91v-3.16c0-0.51,0.41-0.91,0.92-0.91h3.15
								c0.5,0,0.91,0.41,0.91,0.91v3.16C237.57,295.48,237.16,295.88,236.66,295.88z"/>
						</g>
					</g>
				</g>
				<g>
					<path class="st12" d="M151.97,303.78h-3.15c-0.51,0-0.91-0.41-0.91-0.91v-3.15c0-0.5,0.41-0.91,0.91-0.91h3.15
						c0.5,0,0.91,0.41,0.91,0.91v3.15C152.88,303.37,152.48,303.78,151.97,303.78z"/>
				</g>
				<g>
					<path class="st12" d="M160.01,303.78h-3.15c-0.5,0-0.91-0.41-0.91-0.91v-3.15c0-0.5,0.41-0.91,0.91-0.91h3.15
						c0.5,0,0.91,0.41,0.91,0.91v3.15C160.92,303.37,160.51,303.78,160.01,303.78z"/>
				</g>
				<g>
					<path class="st12" d="M168.04,303.78h-3.15c-0.5,0-0.91-0.41-0.91-0.91v-3.15c0-0.5,0.41-0.91,0.91-0.91h3.15
						c0.5,0,0.91,0.41,0.91,0.91v3.15C168.96,303.37,168.55,303.78,168.04,303.78z"/>
				</g>
				<g>
					<path class="st12" d="M192.49,303.78h-19.57c-0.5,0-0.91-0.41-0.91-0.91v-3.15c0-0.5,0.41-0.91,0.91-0.91h19.57
						c0.5,0,0.91,0.41,0.91,0.91v3.15C193.4,303.37,193,303.78,192.49,303.78z"/>
				</g>
				<g>
					<path class="st12" d="M200.19,303.78h-3.15c-0.5,0-0.91-0.41-0.91-0.91v-3.15c0-0.5,0.41-0.91,0.91-0.91h3.15
						c0.5,0,0.91,0.41,0.91,0.91v3.15C201.1,303.37,200.69,303.78,200.19,303.78z"/>
				</g>
				<g>
					<path class="st12" d="M208.22,303.78h-3.15c-0.5,0-0.91-0.41-0.91-0.91v-3.15c0-0.5,0.41-0.91,0.91-0.91h3.15
						c0.51,0,0.91,0.41,0.91,0.91v3.15C209.13,303.37,208.73,303.78,208.22,303.78z"/>
				</g>
				<g>
					<path class="st12" d="M216.26,303.78h-3.15c-0.5,0-0.91-0.41-0.91-0.91v-3.15c0-0.5,0.41-0.91,0.91-0.91h3.15
						c0.5,0,0.91,0.41,0.91,0.91v3.15C217.17,303.37,216.76,303.78,216.26,303.78z"/>
				</g>
				<g>
					<path class="st12" d="M224.3,303.78h-3.16c-0.5,0-0.91-0.41-0.91-0.91v-3.15c0-0.5,0.41-0.91,0.91-0.91h3.16
						c0.51,0,0.91,0.41,0.91,0.91v3.15C225.21,303.37,224.8,303.78,224.3,303.78z"/>
				</g>
				<g>
					<path class="st12" d="M232.33,303.78h-3.15c-0.5,0-0.91-0.41-0.91-0.91v-3.15c0-0.5,0.41-0.91,0.91-0.91h3.15
						c0.5,0,0.91,0.41,0.91,0.91v3.15C233.25,303.37,232.84,303.78,232.33,303.78z"/>
				</g>
				<g>
					<rect x="187.16" y="266.79" class="st3" width="6.84" height="2.13"/>
				</g>
			</g>
			<g>
				<g>
					<path d="M286.31,286.52l-0.96,11.91c0,4.57,3.7,8.28,8.28,8.28h3.93c4.57,0,8.28-3.71,8.28-8.28l-0.96-11.91H286.31z"/>
				</g>
				<g>
					<g>
						<path class="st6" d="M293.63,275.69c-4.58,0-7.11,3.71-7.11,8.28l-0.21,2.55h9.28v-10.83H293.63z"/>
					</g>
					<g>
						<path class="st6" d="M304.67,283.97c0-4.57-2.54-8.28-7.11-8.28h-1.97v10.83h9.28L304.67,283.97z"/>
					</g>
				</g>
				<g>
					<path class="st27" d="M296.03,287.31h-0.86c-0.3,0-0.55-0.33-0.55-0.74v-6.46c0-0.41,0.25-0.74,0.55-0.74h0.86
						c0.31,0,0.55,0.33,0.55,0.74v6.46C296.58,286.98,296.33,287.31,296.03,287.31z"/>
				</g>
				<g>
					<g>
						<rect x="295.32" y="275.69" class="st27" width="0.55" height="3.69"/>
					</g>
				</g>
			</g>
			<g>
				<g>
					<path class="st3" d="M318.29,256.05h-43.21c-2.35,0-4.25-1.9-4.25-4.25v-98.63c0-2.35,1.91-4.25,4.25-4.25h43.21
						c2.35,0,4.25,1.91,4.25,4.25v98.63C322.54,254.15,320.64,256.05,318.29,256.05z"/>
				</g>
				<g>
					<path class="st6" d="M322.54,251.8v-38.28c-4.17-8.67-14.17-14.78-25.86-14.78c-11.69,0-21.69,6.11-25.86,14.78v38.28
						c0,2.35,1.91,4.25,4.25,4.25h43.21C320.64,256.05,322.54,254.15,322.54,251.8z"/>
				</g>
				<g>
					<rect x="295.6" y="222.88" class="st5" width="2.18" height="33.17"/>
				</g>
				<g>
					<path class="st7" d="M296.69,223.71c-1.99,0-3.82-1.18-5.01-3.25l-2.7-4.68c-1.19-2.06-1.31-4.24-0.31-5.96
						c0.99-1.73,2.93-2.72,5.32-2.72h5.4c2.39,0,4.32,0.99,5.32,2.72c0.99,1.72,0.88,3.89-0.31,5.96l-2.7,4.68
						C300.5,222.52,298.68,223.71,296.69,223.71z"/>
				</g>
				<g>
					<path class="st4" d="M291.44,214.36l2.7,4.68c1.41,2.44,3.69,2.44,5.1,0l2.7-4.68c1.41-2.44,0.27-4.42-2.55-4.42h-5.4
						C291.17,209.94,290.03,211.92,291.44,214.36z"/>
				</g>
				<g>
					<rect x="273.98" y="156.06" class="st6" width="45.42" height="11.81"/>
				</g>
				<g>
					<rect x="273.98" y="169.69" class="st6" width="45.42" height="11.81"/>
				</g>
				<g>
					<g>
						<g>
							<rect x="278.9" y="184.84" class="st8" width="6.9" height="3.26"/>
						</g>
						<g>
							<rect x="278.9" y="184.84" class="st9" width="6.9" height="1.2"/>
						</g>
					</g>
					<g>
						<g>
							<rect x="289.53" y="184.84" class="st8" width="6.9" height="3.26"/>
						</g>
						<g>
							<rect x="289.53" y="184.84" class="st9" width="6.9" height="1.2"/>
						</g>
					</g>
					<g>
						<g>
							<path class="st6" d="M303.79,186.74c0,0.72-0.58,1.3-1.3,1.3c-0.71,0-1.3-0.58-1.3-1.3c0-0.72,0.58-1.3,1.3-1.3
								C303.21,185.44,303.79,186.02,303.79,186.74z"/>
						</g>
						<g>
							<path class="st9" d="M302.49,187.76c-0.56,0-1.02-0.46-1.02-1.02c0-0.56,0.46-1.02,1.02-1.02c0.56,0,1.02,0.46,1.02,1.02
								C303.51,187.3,303.05,187.76,302.49,187.76z"/>
						</g>
					</g>
					<g>
						<g>
							<path class="st6" d="M308.84,186.74c0,0.72-0.58,1.3-1.3,1.3c-0.72,0-1.3-0.58-1.3-1.3c0-0.72,0.58-1.3,1.3-1.3
								C308.26,185.44,308.84,186.02,308.84,186.74z"/>
						</g>
						<g>
							<path class="st9" d="M307.54,187.76c-0.56,0-1.01-0.46-1.01-1.02c0-0.56,0.46-1.02,1.01-1.02c0.56,0,1.02,0.46,1.02,1.02
								C308.56,187.3,308.1,187.76,307.54,187.76z"/>
						</g>
					</g>
					<g>
						<path class="st10" d="M314.48,186.74c0,0.56-0.46,1.02-1.02,1.02c-0.56,0-1.01-0.46-1.01-1.02c0-0.56,0.45-1.02,1.01-1.02
							C314.02,185.73,314.48,186.18,314.48,186.74z"/>
					</g>
				</g>
				<g>
					<rect x="313.46" y="171.71" class="st3" width="4.2" height="1.95"/>
				</g>
				<g>
					<rect x="313.46" y="157.97" class="st3" width="4.2" height="1.95"/>
				</g>
				<g>
					<path d="M270.83,250.47v1.33c0,2.35,1.91,4.25,4.25,4.25h43.21c2.35,0,4.25-1.9,4.25-4.25v-1.33H270.83z"/>
				</g>
			</g>
		</g>
		<g>
			<path d="M191.35,266.93l-1.09-0.28c0.08-0.3,2.07-7.48,16.38-7.48c3.07,0,6.86,0.34,10.88,0.69c14.73,1.31,33.06,2.93,37.96-9
				c0.9-2.19,1.7-4.42,2.48-6.59c3.16-8.76,5.89-16.33,12.86-16.33v1.12c-6.18,0-8.79,7.23-11.81,15.59
				c-0.78,2.17-1.59,4.42-2.5,6.63c-5.21,12.69-24,11.03-39.09,9.69c-3.99-0.35-7.76-0.69-10.78-0.69
				C193.2,260.3,191.37,266.87,191.35,266.93z"/>
		</g>
	</g>
	<g>
		<g>
			<g>
				<path class="st24" d="M283.19,372.17h-4.04v35.58c0,2.05,1.66,3.71,3.71,3.71h16.22v-39.29H283.19z"/>
			</g>
			<g>
				<path class="st23" d="M314.96,372.17h-15.88v39.29h16.22c2.05,0,3.71-1.66,3.71-3.71v-35.58H314.96z"/>
			</g>
			<g>
				<path class="st29" d="M314.96,372.17v-22.62h-15.88v22.62H314.96z M309.4,357.34v6.06h-6.06v-6.06H309.4z"/>
			</g>
			<g>
				<path class="st30" d="M299.08,349.55h-15.89v22.62h15.89V349.55z M288.76,363.4v-6.06h6.06v6.06H288.76z"/>
			</g>
			<g>
				<rect x="288.76" y="357.34" class="st29" width="6.06" height="6.06"/>
			</g>
			<g>
				<rect x="303.34" y="357.34" class="st31" width="6.06" height="6.06"/>
			</g>
			<g>
				<path class="st21" d="M306.65,405.77c-4.51-7.96-3.78-15.56-3.78-15.56s3.8-1.04,7.53-2.92c3.28-1.65,6.2-4.69,6.2-4.69v-2.86
					c0,0-3.44,3.56-7.29,5.51c-4.38,2.21-8.84,3.43-8.84,3.43s-0.86,8.93,4.44,18.28c5.08,8.97,11.7,11.13,11.7,11.13v-2.86
					C316.61,415.25,310.98,413.41,306.65,405.77z"/>
			</g>
			<g>
				<rect x="280.57" y="373.65" class="st32" width="18.51" height="1.67"/>
			</g>
			<g>
				<rect x="299.08" y="373.65" class="st24" width="18.51" height="1.67"/>
			</g>
		</g>
		<g>
			<g>
				<path class="st20" d="M332.74,388.69c0,0-4.47-1.22-8.85-3.43c-3.86-1.94-7.29-5.51-7.29-5.51v2.86c0,0,2.92,3.03,6.21,4.69
					c3.72,1.88,7.53,2.92,7.53,2.92s0.73,7.6-3.78,15.56c-4.33,7.63-9.96,9.48-9.96,9.48v2.86c0,0,6.61-2.17,11.7-11.13
					C333.6,397.62,332.74,388.69,332.74,388.69z"/>
			</g>
			<g>
				<path class="st33" d="M326.56,405.77c4.51-7.96,3.78-15.56,3.78-15.56s-3.8-1.04-7.53-2.92c-3.28-1.65-6.21-4.69-6.21-4.69
					v32.63C316.61,415.25,322.23,413.41,326.56,405.77z"/>
			</g>
			<g>
				<path class="st34" d="M310.4,387.3c-3.73,1.88-7.53,2.92-7.53,2.92s-0.73,7.6,3.78,15.56c4.33,7.63,9.96,9.48,9.96,9.48v-32.63
					C316.61,382.61,313.68,385.65,310.4,387.3z"/>
			</g>
		</g>
	</g>
</g>
</svg>
