<?xml version="1.0" encoding="utf-8"?>
<!-- Generator: Adobe Illustrator 27.3.1, SVG Export Plug-In . SVG Version: 6.00 Build 0)  -->
<svg version="1.1" xmlns="http://www.w3.org/2000/svg" xmlns:xlink="http://www.w3.org/1999/xlink" x="0px" y="0px"
	 viewBox="0 0 500 500" style="enable-background:new 0 0 500 500;" xml:space="preserve">
<style type="text/css">
	.st0{display:none;}
	.st1{display:inline;fill:#281756;stroke:#FFFFFF;stroke-miterlimit:10;}
	.st2{fill:#FCFCFF;}
	.st3{display:none;fill:#F03063;}
</style>
<g id="BACKGROUND" class="st0">
	<rect class="st1" width="500" height="500"/>
</g>
<g id="OBJECTS">
	<g>
		<g>
			<g>
				<path class="st2" d="M249.52,304.75c-7.28,0-14.07-11.03-19.11-31.05c-4.99-19.83-7.74-46.18-7.74-74.2s2.75-54.38,7.74-74.2
					c5.04-20.02,11.82-31.05,19.11-31.05c7.28,0,14.07,11.03,19.11,31.05c4.99,19.83,7.74,46.18,7.74,74.2s-2.75,54.38-7.74,74.2
					C263.59,293.72,256.8,304.75,249.52,304.75z M249.52,95.2c-14.27,0-25.89,46.79-25.89,104.3c0,57.51,11.61,104.29,25.89,104.29
					c14.27,0,25.89-46.79,25.89-104.29C275.41,141.98,263.79,95.2,249.52,95.2z"/>
			</g>
		</g>
		<g>
			<g>
				<path class="st2" d="M249.52,304.75c-26.77,0-48.56-47.22-48.56-105.25s21.78-105.25,48.56-105.25s48.56,47.22,48.56,105.25
					S276.29,304.75,249.52,304.75z M249.52,95.2c-26.24,0-47.6,46.79-47.6,104.3c0,57.51,21.35,104.29,47.6,104.29
					c26.24,0,47.6-46.79,47.6-104.29C297.12,141.98,275.77,95.2,249.52,95.2z"/>
			</g>
		</g>
		<g>
			<g>
				<path class="st2" d="M249.52,304.75c-42.12,0-76.38-47.22-76.38-105.25S207.4,94.24,249.52,94.24
					c42.12,0,76.38,47.22,76.38,105.25S291.64,304.75,249.52,304.75z M249.52,95.2c-41.59,0-75.42,46.79-75.42,104.3
					c0,57.51,33.83,104.29,75.42,104.29c41.59,0,75.42-46.79,75.42-104.29C324.94,141.98,291.11,95.2,249.52,95.2z"/>
			</g>
		</g>
		<g>
			<g>
				<path class="st2" d="M249.52,247.77c-58.04,0-105.25-21.66-105.25-48.28c0-26.62,47.22-48.28,105.25-48.28
					s105.25,21.66,105.25,48.28C354.77,226.11,307.56,247.77,249.52,247.77z M249.52,152.18c-57.51,0-104.29,21.23-104.29,47.32
					c0,26.09,46.79,47.32,104.29,47.32s104.3-21.23,104.3-47.32C353.82,173.4,307.03,152.18,249.52,152.18z"/>
			</g>
		</g>
		<g>
			<g>
				<path class="st2" d="M249.52,281.76c-58.04,0-105.25-36.9-105.25-82.26c0-45.36,47.22-82.26,105.25-82.26
					s105.25,36.9,105.25,82.26C354.77,244.85,307.56,281.76,249.52,281.76z M249.52,118.19c-57.51,0-104.29,36.47-104.29,81.3
					c0,44.83,46.79,81.3,104.29,81.3s104.3-36.47,104.3-81.3C353.82,154.66,307.03,118.19,249.52,118.19z"/>
			</g>
		</g>
		<g>
			<g>
				<path class="st2" d="M249.52,304.75c-28.11,0-54.55-10.95-74.43-30.83c-19.88-19.88-30.83-46.31-30.83-74.43
					c0-28.11,10.95-54.55,30.83-74.43c19.88-19.88,46.31-30.83,74.43-30.83c28.11,0,54.55,10.95,74.43,30.83
					c19.88,19.88,30.83,46.31,30.83,74.43c0,28.11-10.95,54.55-30.83,74.43C304.07,293.8,277.63,304.75,249.52,304.75z M249.52,95.2
					c-57.51,0-104.29,46.79-104.29,104.3c0,57.51,46.79,104.29,104.29,104.29s104.3-46.79,104.3-104.29
					C353.82,141.98,307.03,95.2,249.52,95.2z"/>
			</g>
		</g>
		<g>
			<g>
				<rect x="144.46" y="199.01" class="st2" width="209.56" height="0.96"/>
			</g>
		</g>
		<g>
			<g>
				<rect x="249.04" y="94.43" class="st2" width="0.96" height="210.12"/>
			</g>
		</g>
	</g>
	<polygon class="st3" points="326.77,128.65 327.27,129.15 327.1,128.48 345.4,143.71 328.54,126.9 329.22,127.01 328.67,126.55 
		352.45,128.11 328.96,124.43 329.55,124.13 328.84,124.08 348.99,111.36 327.8,122.19 328.11,121.59 327.54,121.95 336.35,99.85 
		325.56,121.09 325.45,120.39 325.2,121 319.36,97.96 323.12,121.49 322.61,120.99 322.78,121.65 304.48,106.43 321.34,123.23 
		320.66,123.13 321.21,123.58 297.43,122.03 320.92,125.71 320.33,126 321.04,126.05 300.89,138.77 322.08,127.95 321.77,128.54 
		322.34,128.19 313.53,150.29 324.32,129.04 324.44,129.74 324.68,129.13 330.53,152.18 	"/>
</g>
</svg>
