<svg width="34" height="34" viewBox="0 0 34 34" fill="none" xmlns="http://www.w3.org/2000/svg">
<circle cx="17" cy="17" r="17" fill="#2D855F"/>
<path d="M17 32C8.72929 32 2 25.2707 2 17C2 8.72929 8.72929 2 17 2C25.2707 2 32 8.72929 32 17C32 25.2707 25.2707 32 17 32ZM17 3.42857C9.51643 3.42857 3.42857 9.51643 3.42857 17C3.42857 24.4836 9.51643 30.5714 17 30.5714C24.4836 30.5714 30.5714 24.4836 30.5714 17C30.5714 9.51643 24.4836 3.42857 17 3.42857Z" fill="white"/>
<path d="M16.9987 25.7466C19.7964 24.4017 21.059 23.6701 22.1021 22.4846L22.1026 22.4841C22.9707 21.5002 23.5 20.0617 23.5 18.6509V10.6429C21.2128 10.4543 18.9675 9.74127 17 8.58099C15.0042 9.75766 12.8162 10.4513 10.5 10.6429V18.6521C10.5 20.0615 11.0284 21.4989 11.8964 22.4856L16.9987 25.7466ZM16.9987 25.7466C14.2017 24.4013 12.9406 23.6706 11.8965 22.4857L16.9987 25.7466Z" stroke="white"/>
<path d="M21.0789 15.9245H18.7802V17.4021H21.0789V15.9245Z" fill="white"/>
<path d="M15.8521 19.5091H18.15V18.0323H15.8521V19.5091Z" fill="white"/>
<path d="M21.0789 15.0539C21.0789 14.3696 20.5244 13.8151 19.8401 13.8151H18.7802V15.2931H21.0789V15.0539Z" fill="white"/>
<path d="M15.8521 13.8163V15.2943H18.15V13.8163H15.8521Z" fill="white"/>
<path d="M12.9223 15.9245V17.4021H15.2206V15.9245H12.9223Z" fill="white"/>
<path d="M18.7802 19.5091H19.8401C20.5244 19.5091 21.0789 18.9546 21.0789 18.2707V18.0311H18.7802V19.5091Z" fill="white"/>
<path d="M12.9223 18.2715C12.9223 18.9558 13.4764 19.5103 14.1611 19.5103H15.2219V18.0332H12.9231V18.2724L12.9223 18.2715Z" fill="white"/>
<path d="M12.9223 15.0539V15.2931H15.2206V13.8151H14.1598C13.4756 13.8151 12.9215 14.3696 12.9215 15.0539H12.9223Z" fill="white"/>
</svg>
