<svg width="34" height="34" viewBox="0 0 34 34" fill="none" xmlns="http://www.w3.org/2000/svg">
<circle cx="17" cy="17" r="17" fill="#8F63CC"/>
<path d="M17 32C8.72929 32 2 25.2707 2 17C2 8.72929 8.72929 2 17 2C25.2707 2 32 8.72929 32 17C32 25.2707 25.2707 32 17 32ZM17 3.42857C9.51643 3.42857 3.42857 9.51643 3.42857 17C3.42857 24.4836 9.51643 30.5714 17 30.5714C24.4836 30.5714 30.5714 24.4836 30.5714 17C30.5714 9.51643 24.4836 3.42857 17 3.42857Z" fill="white"/>
<path d="M17.7086 22.3171V24.2857H19.1371V22.3171C19.1387 20.987 19.6678 19.7119 20.6083 18.7714C21.5489 17.831 22.8242 17.302 24.1543 17.3007H24.16V15.8721H24.1543C22.4455 15.874 20.8072 16.5536 19.5988 17.7619C18.3904 18.9701 17.7107 20.6083 17.7086 22.3171Z" fill="white"/>
<path d="M20.5657 22.3171V24.2857H24.16V18.7293H24.1543C23.203 18.7302 22.2908 19.1085 21.6181 19.7811C20.9453 20.4538 20.5669 21.3658 20.5657 22.3171Z" fill="white"/>
<path d="M13.4229 22.3171C13.4229 16.7129 17.7421 12.0986 23.2264 11.6264C22.6015 10.526 21.696 9.61096 20.6022 8.97454C19.5084 8.33811 18.2655 8.00308 17 8.00357C15.1012 8.00357 13.2801 8.75783 11.9374 10.1004C10.5946 11.443 9.84019 13.264 9.84 15.1629V24.2857H13.4229V22.3171Z" fill="white"/>
<path d="M14.8514 22.3171V24.2857H16.28V22.3171C16.2824 20.2349 17.1086 18.2382 18.5782 16.763C20.0478 15.2878 22.0413 14.4539 24.1236 14.4436C24.0758 13.9606 23.9786 13.4838 23.8336 13.0207C18.8521 13.1907 14.8514 17.295 14.8514 22.3171Z" fill="white"/>
</svg>
