<svg width="34" height="34" viewBox="0 0 34 34" fill="none" xmlns="http://www.w3.org/2000/svg">
<circle cx="17" cy="17" r="17" fill="#3080E3"/>
<path d="M17 32C8.72929 32 2 25.2707 2 17C2 8.72929 8.72929 2 17 2C25.2707 2 32 8.72929 32 17C32 25.2707 25.2707 32 17 32ZM17 3.42857C9.51643 3.42857 3.42857 9.51643 3.42857 17C3.42857 24.4836 9.51643 30.5714 17 30.5714C24.4836 30.5714 30.5714 24.4836 30.5714 17C30.5714 9.51643 24.4836 3.42857 17 3.42857Z" fill="white"/>
<path d="M11.6864 13.0821C11.0116 13.4512 10.5013 14.0618 10.2579 14.7914V22.4857C10.7267 22.6404 11.2036 22.7694 11.6864 22.8721V13.0821Z" fill="white"/>
<path d="M14.5214 12.8371C14.1526 12.7088 13.7648 12.6431 13.3743 12.6429C13.2864 12.6429 13.2 12.6464 13.115 12.6529V23.1264C13.5721 23.1914 14.0493 23.245 14.5436 23.2857V12.8071L14.5214 12.8371Z" fill="white"/>
<path d="M24.3721 15.1586C24.3279 12.6457 21.9636 10.6136 19.0636 10.6136C17.973 10.6079 16.9024 10.9064 15.9721 11.4757V23.3686C16.3164 23.38 16.6671 23.3864 17.0221 23.3864C19.945 23.3864 22.7114 22.9579 24.43 22.2436C26.0014 21.7022 27.0557 20.2843 27.0557 18.7093C27.0557 17.0929 25.9579 15.6779 24.3721 15.1586Z" fill="white"/>
<path d="M8.82929 15.6779C7.69358 16.3257 6.94429 17.4636 6.94429 18.7536C6.94429 19.7536 7.38429 20.6821 8.18286 21.3757C8.37815 21.5597 8.59383 21.7207 8.82572 21.8557L8.82929 15.6779Z" fill="white"/>
</svg>
