<svg width="34" height="34" viewBox="0 0 34 34" fill="none" xmlns="http://www.w3.org/2000/svg">
<g clip-path="url(#clip0_89_2617)">
<circle cx="17" cy="17" r="17" fill="#DA291C"/>
<path d="M17 32C8.72929 32 2 25.2707 2 17C2 8.72929 8.72929 2 17 2C25.2707 2 32 8.72929 32 17C32 25.2707 25.2707 32 17 32ZM17 3.42857C9.51643 3.42857 3.42857 9.51643 3.42857 17C3.42857 24.4836 9.51643 30.5714 17 30.5714C24.4836 30.5714 30.5714 24.4836 30.5714 17C30.5714 9.51643 24.4836 3.42857 17 3.42857Z" fill="white"/>
<path d="M8.95857 21.6429L11.3214 23.0071V18.7193L8.95857 17.3557V21.6429Z" fill="white"/>
<path d="M8.95857 12.3571V12.4064L15.6071 16.2457V25.4814L17 26.2857L17.0357 26.265V15.4207L10.3436 11.5571L8.95857 12.3571Z" fill="white"/>
<path d="M17 7.71429L11.7721 10.7321L18.4643 14.5957V25.4407L25.0414 21.6429V12.3571L17 7.71429Z" fill="white"/>
<path d="M8.95857 15.7057L12.75 17.895V23.8314L14.1786 24.6564V17.07L8.95857 14.0564V15.7057Z" fill="white"/>
</g>
<defs>
<clipPath id="clip0_89_2617">
<rect width="34" height="34" fill="white"/>
</clipPath>
</defs>
</svg>
